<?xml version="1.0" encoding="UTF-8" standalone="no"?>
<!-- Created with Inkscape (http://www.inkscape.org/) -->

<svg
   width="800"
   height="800"
   viewBox="0 0 211.66667 211.66667"
   version="1.1"
   id="svg5"
   inkscape:version="1.2.1 (9c6d41e410, 2022-07-14)"
   sodipodi:docname="dfs_logo_2023b.svg"
   xmlns:inkscape="http://www.inkscape.org/namespaces/inkscape"
   xmlns:sodipodi="http://sodipodi.sourceforge.net/DTD/sodipodi-0.dtd"
   xmlns="http://www.w3.org/2000/svg"
   xmlns:svg="http://www.w3.org/2000/svg">
  <sodipodi:namedview
     id="namedview7"
     pagecolor="#ffffff"
     bordercolor="#666666"
     borderopacity="1.0"
     inkscape:pageshadow="2"
     inkscape:pageopacity="0.0"
     inkscape:pagecheckerboard="0"
     inkscape:document-units="mm"
     showgrid="true"
     height="210mm"
     inkscape:zoom="0.79364218"
     inkscape:cx="382.41415"
     inkscape:cy="409.50444"
     inkscape:window-width="1920"
     inkscape:window-height="1027"
     inkscape:window-x="-8"
     inkscape:window-y="22"
     inkscape:window-maximized="1"
     inkscape:current-layer="layer3"
     units="px"
     width="800px"
     inkscape:showpageshadow="0"
     inkscape:deskcolor="#d1d1d1">
    <inkscape:grid
       type="xygrid"
       id="grid850" />
  </sodipodi:namedview>
  <defs
     id="defs2">
    <pattern
       id="EMFhbasepattern"
       patternUnits="userSpaceOnUse"
       width="6"
       height="6"
       x="0"
       y="0" />
  </defs>
  <g
     inkscape:label="Layer 1"
     inkscape:groupmode="layer"
     id="layer1"
     style="display:inline"
     sodipodi:insensitive="true">
    <circle
       style="display:none;fill:#000000;fill-opacity:1;fill-rule:evenodd;stroke:none;stroke-width:0.277987"
       cx="105.83334"
       cy="105.83334"
       id="ellipse134-6"
       r="105.83334"
       inkscape:label="Back Black"
       sodipodi:insensitive="true" />
    <circle
       style="display:none;fill:#212121;fill-opacity:1;fill-rule:evenodd;stroke:none;stroke-width:0.277987"
       cx="105.83334"
       cy="105.83334"
       id="circle2377"
       r="105.83334"
       inkscape:label="Back Grey"
       sodipodi:insensitive="true" />
    <circle
       style="display:none;fill:#ffffff;fill-opacity:1;fill-rule:evenodd;stroke:none;stroke-width:0.277987"
       cx="105.83334"
       cy="105.83334"
       id="circle2381"
       r="105.83334"
       inkscape:label="Back White"
       sodipodi:insensitive="true" />
    <circle
       style="display:none;fill:#ce1717;fill-opacity:1;fill-rule:evenodd;stroke:none;stroke-width:0.277987"
       cx="105.83334"
       cy="105.83334"
       id="circle2385"
       r="105.83334"
       inkscape:label="Back Red"
       sodipodi:insensitive="true" />
  </g>
  <g
     inkscape:groupmode="layer"
     id="layer2"
     inkscape:label="Layer 2"
     style="display:inline;fill:#212121;fill-opacity:1;stroke:none"
     sodipodi:insensitive="true">
    <path
       id="path126"
       style="display:none;fill:#000000;fill-opacity:1;fill-rule:nonzero;stroke:none;stroke-width:0.257137"
       d="m 128.60869,21.711336 -3.20291,0.350366 -1.77922,0.350366 -1.42368,0.350367 -1.42317,0.350366 -1.77922,0.700732 -1.42369,1.051099 -1.06763,0.700732 -1.42317,1.0511 -1.06764,1.401463 -2.49132,2.80293 -1.06763,1.401466 -1.06764,1.75183 -1.77922,3.854029 -1.77922,4.204394 -1.42368,4.555278 -1.06712,4.55476 -1.06764,5.255492 -0.35605,2.452563 -0.35605,2.80293 -0.71158,5.606378 -0.35605,5.956226 v 6.30659 l -3.914492,0.700733 -5.337659,0.700733 -5.338175,0.350366 -4.626076,0.350367 -1.067633,0.350364 -0.711587,0.350366 -0.356049,0.350367 -0.35605,0.700733 v 0.350366 l -0.355534,1.75183 v 1.0511 l 0.355534,0.350367 0.35605,0.70073 0.356049,0.350367 0.711587,0.350366 0.711583,0.350367 h 1.779736 l 3.914489,-0.350367 6.049246,-0.700733 8.185031,-1.401463 0.35605,4.905644 1.02939,17.565854 -1.74149,4.8581 -1.779223,5.95623 -2.135269,5.60585 -2.134754,5.60586 -4.626591,10.86187 -2.13527,4.90513 -2.490806,5.25549 -1.423683,2.1022 -1.06712,2.1022 -2.491319,4.20491 -2.846856,3.15329 -2.491319,2.80293 -2.846856,2.1022 -1.42317,0.70073 -1.423686,0.70073 -1.423167,0.70074 -1.423686,0.35036 -2.846856,0.35037 h -0.711583 l -1.067637,-0.35037 -1.423685,-0.35036 -0.711584,-0.70074 -0.35605,-0.35036 -0.355534,-0.70073 -0.712102,-1.0511 -0.711584,-1.40147 -0.355533,-1.75183 -0.356053,-1.75183 v -2.10219 -2.45309 l 0.356053,-2.80293 0.711583,-2.80293 0.711584,-2.80293 0.711586,-3.15329 1.423686,-2.80293 1.423167,-3.1533 1.423686,-3.15329 3.55844,-5.95674 1.779735,-2.80294 2.134754,-2.80292 3.914492,-4.90513 4.270539,-4.90513 3.914489,-3.85454 3.558955,-2.80293 1.42317,-1.0511 1.067636,-0.70073 1.067634,-0.35037 1.067636,-0.35037 0.355533,0.35037 h 0.35605 l 0.35605,1.0511 -0.35605,1.0511 -0.35605,1.75183 -0.711583,1.40146 -0.355534,1.05162 0.355534,0.35037 v 0.35036 h 0.711583 l 0.7121,-0.35036 1.77922,-1.75235 1.42317,-2.45257 1.779735,-2.80293 0.711587,-1.40146 0.356049,-1.40147 0.355534,-1.40146 v -1.0511 -0.70073 l -0.355534,-0.70073 -0.356049,-0.700735 -0.356053,-0.350366 -1.77922,-0.700733 h -2.135269 -1.42317 l -1.779217,0.700733 -1.423686,0.70073 -2.135272,1.051101 -2.13527,1.40146 -2.134753,2.1022 -5.338175,4.55476 -2.491319,2.45256 -2.846856,3.15382 -2.490804,2.80293 -2.491321,3.15329 -2.134754,3.1533 -2.491319,3.15329 -2.135272,3.50367 -2.13527,3.85402 -2.134753,3.50419 -1.779736,3.50366 -1.42317,3.50366 -1.067633,3.50366 -1.067637,3.1533 -0.711583,3.50366 -0.356053,3.15329 v 3.15382 2.10219 2.1022 l 0.356053,2.1022 0.355534,1.75183 0.712099,1.75183 0.711587,1.75183 0.711583,1.40147 0.712102,1.40146 1.067118,1.0511 0.35605,0.70073 0.711586,0.35037 1.067633,1.0511 1.067636,0.70073 1.067634,0.35037 1.423686,0.35036 1.067636,0.35037 h 1.42317 2.846853 l 2.846856,-1.0511 3.202905,-1.40146 1.067634,-0.70074 1.423685,-1.0511 2.846856,-2.45256 2.846853,-2.80293 2.490806,-3.50366 2.846853,-3.85403 2.491322,-4.20439 2.490804,-4.90565 2.135269,-4.90513 2.491322,-4.90512 2.134754,-5.60586 2.491319,-5.95674 2.135273,-5.95623 1.62626,-5.7645 0.15296,3.31194 0.35605,12.96407 0.35553,10.16061 v 1.40147 4.20439 l -0.35553,9.11004 -0.35605,8.75916 0.35605,2.10219 0.35553,1.75183 0.35605,0.35037 0.35554,0.70073 h 0.7121 l 0.71158,0.35037 0.71159,-0.35037 h 1.06763 l 1.77922,-1.0511 1.06764,-0.70073 0.7121,-1.0511 0.71158,-0.70073 v -0.70073 -1.75183 l -0.71158,-3.50366 -0.35605,-2.1022 v -2.1022 l -0.57981,-7.42332 0.57981,-0.28525 0.35605,-1.75183 v -0.70074 l 0.71158,1.0511 1.06764,0.70074 1.42317,0.35036 2.13527,0.35037 2.49132,0.35036 h 3.20239 4.98212 l 2.49132,-0.35036 2.49081,-0.35037 4.62658,-1.40146 2.49081,-0.70074 2.4908,-1.05109 2.13527,-1.0511 2.13528,-1.0511 2.13526,-1.0511 1.77922,-1.40147 1.77922,-1.05109 1.77974,-1.40147 3.20239,-3.15329 1.06763,-1.40147 1.42369,-1.75183 0.71158,-1.75235 0.71159,-1.40146 0.7121,-1.75183 0.35553,-1.75183 0.35605,-1.75184 v -1.75183 -1.75183 -0.70073 l -0.35605,-0.70073 -0.35553,-1.75183 -0.7121,-1.40147 -1.06764,-1.40146 -1.06711,-1.0511 -1.42369,-1.0511 -1.42369,-1.0511 -3.55844,-1.75183 -4.27054,-1.40146 -5.33765,-1.75235 -5.69372,-1.40147 -2.49131,-0.70073 -1.42317,-0.35037 -1.42369,-0.35036 -5.69371,-1.0511 -4.27054,-1.40147 -3.91449,-1.05109 -2.4908,-0.70074 -1.77974,-1.0511 -1.42317,-1.40146 -0.71158,-0.70073 -0.35605,-0.70073 v -1.0511 -0.700735 -1.401466 l 0.35605,-1.401463 0.35553,-1.401467 0.71158,-1.401463 1.42369,-2.452566 1.42369,-1.051097 1.06763,-1.051099 2.84686,-1.752349 3.20239,-1.75183 3.2029,-1.401464 3.20291,-1.051099 6.04975,-1.75183 0.42685,-0.07028 0.28474,0.07028 h 1.42368 l 1.42317,0.70073 1.42369,0.350367 h 1.77922 0.71158 1.06764 1.06764 l 1.06763,-0.700733 0.71159,-0.700731 0.71158,-0.700733 0.7121,-1.401463 0.35553,-1.0511 0.35605,-1.0511 v -0.700733 -0.70073 l -0.35605,-0.700733 -0.35553,-0.700733 -0.7121,-0.350367 -0.71158,-0.350364 -1.06764,-0.350366 h -1.06764 l -0.71158,-0.350367 h -1.06764 -2.4908 l -3.20291,0.350367 -4.27053,0.70073 -5.33766,1.0511 -7.82898,1.75183 -2.84686,0.350366 -2.84737,0.350367 -4.1243,0.580327 0.20981,-7.237286 0.35605,-7.708572 -0.35605,-0.700733 v -0.700733 l -0.16433,-0.161745 0.16433,-1.940451 0.7121,-4.55476 1.06764,-3.854029 0.71158,-4.204394 1.42317,-3.503662 1.06764,-3.504179 1.77973,-3.153296 1.42317,-2.452563 1.06764,-1.0511 1.06763,-1.051097 1.06764,-1.051099 1.06763,-0.700734 2.13527,-1.051096 1.06712,-0.350367 1.42369,-0.350367 1.42368,-0.350366 h 1.42317 l 1.77922,0.350366 1.06764,0.350367 1.06763,0.350367 1.77922,1.051096 1.77973,1.751833 1.77922,1.75183 1.42317,2.102197 1.42369,2.452563 0.71158,2.452563 1.06764,2.803448 0.35605,0.700733 0.35553,0.350364 h 1.06764 0.7121 l 0.35554,-0.70073 0.35605,-1.0511 0.71158,-1.401982 0.35605,-2.452563 0.35553,-2.452563 v -1.401466 l -0.71158,-1.75183 -0.71158,-1.401464 -1.06764,-1.751833 -1.42369,-1.75183 -1.77922,-1.75183 -1.77922,-1.401466 -2.13527,-1.401465 -2.13527,-1.051098 -1.42317,-0.350366 -1.06763,-0.350367 -2.49132,-0.700732 z m -14.44667,62.167263 -3.70261,2.651519 -1.61489,1.590082 0.12764,-3.389974 z m -4.24625,25.770001 0.54364,0.35657 2.49132,1.0511 2.84685,1.0511 7.1174,1.75235 9.25215,2.45256 8.18502,1.75183 5.33818,1.40147 2.13475,0.70073 1.77974,1.0511 1.42317,0.70073 1.77922,1.40146 1.06763,1.40147 0.71159,1.40146 0.7121,1.75183 v 2.1022 1.0511 l -0.35605,1.0511 -0.71159,2.10219 -1.42368,2.1022 -0.71159,1.05162 -1.06763,1.0511 -2.13527,1.75183 -2.84685,1.75183 -2.84686,1.40146 -3.20291,1.40147 -3.55844,1.0511 -3.2029,0.70073 -3.55844,0.70073 h -3.2029 l -2.49081,-0.35037 -2.49132,-0.35036 -0.71158,-0.35037 -0.71159,-0.35036 -0.35605,-0.35037 v -0.70073 l 0.71159,-0.70073 0.71158,-0.35037 v -0.70073 -0.35037 l -0.35553,-0.35036 h -1.42369 -0.71158 l -1.06764,0.70073 -1.42317,1.0511 -1.77973,1.75183 -1.77922,1.40146 -1.06764,1.40147 -0.35553,0.52503 v -7.18199 l -0.35605,-10.5115 -0.35605,-11.56209 z"
       inkscape:label="DFS Black"
       sodipodi:insensitive="true" />
    <path
       id="path3841"
       style="display:inline;fill:#212121;fill-opacity:1;fill-rule:nonzero;stroke:none;stroke-width:0.257137"
       d="m 128.60869,21.711336 -3.20291,0.350366 -1.77922,0.350366 -1.42368,0.350367 -1.42317,0.350366 -1.77922,0.700732 -1.42369,1.051099 -1.06763,0.700732 -1.42317,1.0511 -1.06764,1.401463 -2.49132,2.80293 -1.06763,1.401466 -1.06764,1.75183 -1.77922,3.854029 -1.77922,4.204394 -1.42368,4.555278 -1.06712,4.55476 -1.06764,5.255492 -0.35605,2.452563 -0.35605,2.80293 -0.71158,5.606378 -0.35605,5.956226 v 6.30659 l -3.914492,0.700733 -5.337659,0.700733 -5.338175,0.350366 -4.626076,0.350367 -1.067633,0.350364 -0.711587,0.350366 -0.356049,0.350367 -0.35605,0.700733 v 0.350366 l -0.355534,1.75183 v 1.0511 l 0.355534,0.350367 0.35605,0.70073 0.356049,0.350367 0.711587,0.350366 0.711583,0.350367 h 1.779736 l 3.914489,-0.350367 6.049246,-0.700733 8.185031,-1.401463 0.35605,4.905644 1.02939,17.565854 -1.74149,4.8581 -1.779223,5.95623 -2.135269,5.60585 -2.134754,5.60586 -4.626591,10.86187 -2.13527,4.90513 -2.490806,5.25549 -1.423683,2.1022 -1.06712,2.1022 -2.491319,4.20491 -2.846856,3.15329 -2.491319,2.80293 -2.846856,2.1022 -1.42317,0.70073 -1.423686,0.70073 -1.423167,0.70074 -1.423686,0.35036 -2.846856,0.35037 h -0.711583 l -1.067637,-0.35037 -1.423685,-0.35036 -0.711584,-0.70074 -0.35605,-0.35036 -0.355534,-0.70073 -0.712102,-1.0511 -0.711584,-1.40147 -0.355533,-1.75183 -0.356053,-1.75183 v -2.10219 -2.45309 l 0.356053,-2.80293 0.711583,-2.80293 0.711584,-2.80293 0.711586,-3.15329 1.423686,-2.80293 1.423167,-3.1533 1.423686,-3.15329 3.55844,-5.95674 1.779735,-2.80294 2.134754,-2.80292 3.914492,-4.90513 4.270539,-4.90513 3.914489,-3.85454 3.558955,-2.80293 1.42317,-1.0511 1.067636,-0.70073 1.067634,-0.35037 1.067636,-0.35037 0.355533,0.35037 h 0.35605 l 0.35605,1.0511 -0.35605,1.0511 -0.35605,1.75183 -0.711583,1.40146 -0.355534,1.05162 0.355534,0.35037 v 0.35036 h 0.711583 l 0.7121,-0.35036 1.77922,-1.75235 1.42317,-2.45257 1.779735,-2.80293 0.711587,-1.40146 0.356049,-1.40147 0.355534,-1.40146 v -1.0511 -0.70073 l -0.355534,-0.70073 -0.356049,-0.700735 -0.356053,-0.350366 -1.77922,-0.700733 h -2.135269 -1.42317 l -1.779217,0.700733 -1.423686,0.70073 -2.135272,1.051101 -2.13527,1.40146 -2.134753,2.1022 -5.338175,4.55476 -2.491319,2.45256 -2.846856,3.15382 -2.490804,2.80293 -2.491321,3.15329 -2.134754,3.1533 -2.491319,3.15329 -2.135272,3.50367 -2.13527,3.85402 -2.134753,3.50419 -1.779736,3.50366 -1.42317,3.50366 -1.067633,3.50366 -1.067637,3.1533 -0.711583,3.50366 -0.356053,3.15329 v 3.15382 2.10219 2.1022 l 0.356053,2.1022 0.355534,1.75183 0.712099,1.75183 0.711587,1.75183 0.711583,1.40147 0.712102,1.40146 1.067118,1.0511 0.35605,0.70073 0.711586,0.35037 1.067633,1.0511 1.067636,0.70073 1.067634,0.35037 1.423686,0.35036 1.067636,0.35037 h 1.42317 2.846853 l 2.846856,-1.0511 3.202905,-1.40146 1.067634,-0.70074 1.423685,-1.0511 2.846856,-2.45256 2.846853,-2.80293 2.490806,-3.50366 2.846853,-3.85403 2.491322,-4.20439 2.490804,-4.90565 2.135269,-4.90513 2.491322,-4.90512 2.134754,-5.60586 2.491319,-5.95674 2.135273,-5.95623 1.62626,-5.7645 0.15296,3.31194 0.35605,12.96407 0.35553,10.16061 v 1.40147 4.20439 l -0.35553,9.11004 -0.35605,8.75916 0.35605,2.10219 0.35553,1.75183 0.35605,0.35037 0.35554,0.70073 h 0.7121 l 0.71158,0.35037 0.71159,-0.35037 h 1.06763 l 1.77922,-1.0511 1.06764,-0.70073 0.7121,-1.0511 0.71158,-0.70073 v -0.70073 -1.75183 l -0.71158,-3.50366 -0.35605,-2.1022 v -2.1022 l -0.57981,-7.42332 0.57981,-0.28525 0.35605,-1.75183 v -0.70074 l 0.71158,1.0511 1.06764,0.70074 1.42317,0.35036 2.13527,0.35037 2.49132,0.35036 h 3.20239 4.98212 l 2.49132,-0.35036 2.49081,-0.35037 4.62658,-1.40146 2.49081,-0.70074 2.4908,-1.05109 2.13527,-1.0511 2.13528,-1.0511 2.13526,-1.0511 1.77922,-1.40147 1.77922,-1.05109 1.77974,-1.40147 3.20239,-3.15329 1.06763,-1.40147 1.42369,-1.75183 0.71158,-1.75235 0.71159,-1.40146 0.7121,-1.75183 0.35553,-1.75183 0.35605,-1.75184 v -1.75183 -1.75183 -0.70073 l -0.35605,-0.70073 -0.35553,-1.75183 -0.7121,-1.40147 -1.06764,-1.40146 -1.06711,-1.0511 -1.42369,-1.0511 -1.42369,-1.0511 -3.55844,-1.75183 -4.27054,-1.40146 -5.33765,-1.75235 -5.69372,-1.40147 -2.49131,-0.70073 -1.42317,-0.35037 -1.42369,-0.35036 -5.69371,-1.0511 -4.27054,-1.40147 -3.91449,-1.05109 -2.4908,-0.70074 -1.77974,-1.0511 -1.42317,-1.40146 -0.71158,-0.70073 -0.35605,-0.70073 v -1.0511 -0.700735 -1.401466 l 0.35605,-1.401463 0.35553,-1.401467 0.71158,-1.401463 1.42369,-2.452566 1.42369,-1.051097 1.06763,-1.051099 2.84686,-1.752349 3.20239,-1.75183 3.2029,-1.401464 3.20291,-1.051099 6.04975,-1.75183 0.42685,-0.07028 0.28474,0.07028 h 1.42368 l 1.42317,0.70073 1.42369,0.350367 h 1.77922 0.71158 1.06764 1.06764 l 1.06763,-0.700733 0.71159,-0.700731 0.71158,-0.700733 0.7121,-1.401463 0.35553,-1.0511 0.35605,-1.0511 v -0.700733 -0.70073 l -0.35605,-0.700733 -0.35553,-0.700733 -0.7121,-0.350367 -0.71158,-0.350364 -1.06764,-0.350366 h -1.06764 l -0.71158,-0.350367 h -1.06764 -2.4908 l -3.20291,0.350367 -4.27053,0.70073 -5.33766,1.0511 -7.82898,1.75183 -2.84686,0.350366 -2.84737,0.350367 -4.1243,0.580327 0.20981,-7.237286 0.35605,-7.708572 -0.35605,-0.700733 v -0.700733 l -0.16433,-0.161745 0.16433,-1.940451 0.7121,-4.55476 1.06764,-3.854029 0.71158,-4.204394 1.42317,-3.503662 1.06764,-3.504179 1.77973,-3.153296 1.42317,-2.452563 1.06764,-1.0511 1.06763,-1.051097 1.06764,-1.051099 1.06763,-0.700734 2.13527,-1.051096 1.06712,-0.350367 1.42369,-0.350367 1.42368,-0.350366 h 1.42317 l 1.77922,0.350366 1.06764,0.350367 1.06763,0.350367 1.77922,1.051096 1.77973,1.751833 1.77922,1.75183 1.42317,2.102197 1.42369,2.452563 0.71158,2.452563 1.06764,2.803448 0.35605,0.700733 0.35553,0.350364 h 1.06764 0.7121 l 0.35554,-0.70073 0.35605,-1.0511 0.71158,-1.401982 0.35605,-2.452563 0.35553,-2.452563 v -1.401466 l -0.71158,-1.75183 -0.71158,-1.401464 -1.06764,-1.751833 -1.42369,-1.75183 -1.77922,-1.75183 -1.77922,-1.401466 -2.13527,-1.401465 -2.13527,-1.051098 -1.42317,-0.350366 -1.06763,-0.350367 -2.49132,-0.700732 z m -14.44667,62.167263 -3.70261,2.651519 -1.61489,1.590082 0.12764,-3.389974 z m -4.24625,25.770001 0.54364,0.35657 2.49132,1.0511 2.84685,1.0511 7.1174,1.75235 9.25215,2.45256 8.18502,1.75183 5.33818,1.40147 2.13475,0.70073 1.77974,1.0511 1.42317,0.70073 1.77922,1.40146 1.06763,1.40147 0.71159,1.40146 0.7121,1.75183 v 2.1022 1.0511 l -0.35605,1.0511 -0.71159,2.10219 -1.42368,2.1022 -0.71159,1.05162 -1.06763,1.0511 -2.13527,1.75183 -2.84685,1.75183 -2.84686,1.40146 -3.20291,1.40147 -3.55844,1.0511 -3.2029,0.70073 -3.55844,0.70073 h -3.2029 l -2.49081,-0.35037 -2.49132,-0.35036 -0.71158,-0.35037 -0.71159,-0.35036 -0.35605,-0.35037 v -0.70073 l 0.71159,-0.70073 0.71158,-0.35037 v -0.70073 -0.35037 l -0.35553,-0.35036 h -1.42369 -0.71158 l -1.06764,0.70073 -1.42317,1.0511 -1.77973,1.75183 -1.77922,1.40146 -1.06764,1.40147 -0.35553,0.52503 v -7.18199 l -0.35605,-10.5115 -0.35605,-11.56209 z"
       inkscape:label="DFS Grey"
       sodipodi:insensitive="true" />
    <path
       id="path3859"
       style="display:none;fill:#ffffff;fill-opacity:1;fill-rule:nonzero;stroke:none;stroke-width:0.257137"
       d="m 128.60869,21.711336 -3.20291,0.350366 -1.77922,0.350366 -1.42368,0.350367 -1.42317,0.350366 -1.77922,0.700732 -1.42369,1.051099 -1.06763,0.700732 -1.42317,1.0511 -1.06764,1.401463 -2.49132,2.80293 -1.06763,1.401466 -1.06764,1.75183 -1.77922,3.854029 -1.77922,4.204394 -1.42368,4.555278 -1.06712,4.55476 -1.06764,5.255492 -0.35605,2.452563 -0.35605,2.80293 -0.71158,5.606378 -0.35605,5.956226 v 6.30659 l -3.914492,0.700733 -5.337659,0.700733 -5.338175,0.350366 -4.626076,0.350367 -1.067633,0.350364 -0.711587,0.350366 -0.356049,0.350367 -0.35605,0.700733 v 0.350366 l -0.355534,1.75183 v 1.0511 l 0.355534,0.350367 0.35605,0.70073 0.356049,0.350367 0.711587,0.350366 0.711583,0.350367 h 1.779736 l 3.914489,-0.350367 6.049246,-0.700733 8.185031,-1.401463 0.35605,4.905644 1.02939,17.565854 -1.74149,4.8581 -1.779223,5.95623 -2.135269,5.60585 -2.134754,5.60586 -4.626591,10.86187 -2.13527,4.90513 -2.490806,5.25549 -1.423683,2.1022 -1.06712,2.1022 -2.491319,4.20491 -2.846856,3.15329 -2.491319,2.80293 -2.846856,2.1022 -1.42317,0.70073 -1.423686,0.70073 -1.423167,0.70074 -1.423686,0.35036 -2.846856,0.35037 h -0.711583 l -1.067637,-0.35037 -1.423685,-0.35036 -0.711584,-0.70074 -0.35605,-0.35036 -0.355534,-0.70073 -0.712102,-1.0511 -0.711584,-1.40147 -0.355533,-1.75183 -0.356053,-1.75183 v -2.10219 -2.45309 l 0.356053,-2.80293 0.711583,-2.80293 0.711584,-2.80293 0.711586,-3.15329 1.423686,-2.80293 1.423167,-3.1533 1.423686,-3.15329 3.55844,-5.95674 1.779735,-2.80294 2.134754,-2.80292 3.914492,-4.90513 4.270539,-4.90513 3.914489,-3.85454 3.558955,-2.80293 1.42317,-1.0511 1.067636,-0.70073 1.067634,-0.35037 1.067636,-0.35037 0.355533,0.35037 h 0.35605 l 0.35605,1.0511 -0.35605,1.0511 -0.35605,1.75183 -0.711583,1.40146 -0.355534,1.05162 0.355534,0.35037 v 0.35036 h 0.711583 l 0.7121,-0.35036 1.77922,-1.75235 1.42317,-2.45257 1.779735,-2.80293 0.711587,-1.40146 0.356049,-1.40147 0.355534,-1.40146 v -1.0511 -0.70073 l -0.355534,-0.70073 -0.356049,-0.700735 -0.356053,-0.350366 -1.77922,-0.700733 h -2.135269 -1.42317 l -1.779217,0.700733 -1.423686,0.70073 -2.135272,1.051101 -2.13527,1.40146 -2.134753,2.1022 -5.338175,4.55476 -2.491319,2.45256 -2.846856,3.15382 -2.490804,2.80293 -2.491321,3.15329 -2.134754,3.1533 -2.491319,3.15329 -2.135272,3.50367 -2.13527,3.85402 -2.134753,3.50419 -1.779736,3.50366 -1.42317,3.50366 -1.067633,3.50366 -1.067637,3.1533 -0.711583,3.50366 -0.356053,3.15329 v 3.15382 2.10219 2.1022 l 0.356053,2.1022 0.355534,1.75183 0.712099,1.75183 0.711587,1.75183 0.711583,1.40147 0.712102,1.40146 1.067118,1.0511 0.35605,0.70073 0.711586,0.35037 1.067633,1.0511 1.067636,0.70073 1.067634,0.35037 1.423686,0.35036 1.067636,0.35037 h 1.42317 2.846853 l 2.846856,-1.0511 3.202905,-1.40146 1.067634,-0.70074 1.423685,-1.0511 2.846856,-2.45256 2.846853,-2.80293 2.490806,-3.50366 2.846853,-3.85403 2.491322,-4.20439 2.490804,-4.90565 2.135269,-4.90513 2.491322,-4.90512 2.134754,-5.60586 2.491319,-5.95674 2.135273,-5.95623 1.62626,-5.7645 0.15296,3.31194 0.35605,12.96407 0.35553,10.16061 v 1.40147 4.20439 l -0.35553,9.11004 -0.35605,8.75916 0.35605,2.10219 0.35553,1.75183 0.35605,0.35037 0.35554,0.70073 h 0.7121 l 0.71158,0.35037 0.71159,-0.35037 h 1.06763 l 1.77922,-1.0511 1.06764,-0.70073 0.7121,-1.0511 0.71158,-0.70073 v -0.70073 -1.75183 l -0.71158,-3.50366 -0.35605,-2.1022 v -2.1022 l -0.57981,-7.42332 0.57981,-0.28525 0.35605,-1.75183 v -0.70074 l 0.71158,1.0511 1.06764,0.70074 1.42317,0.35036 2.13527,0.35037 2.49132,0.35036 h 3.20239 4.98212 l 2.49132,-0.35036 2.49081,-0.35037 4.62658,-1.40146 2.49081,-0.70074 2.4908,-1.05109 2.13527,-1.0511 2.13528,-1.0511 2.13526,-1.0511 1.77922,-1.40147 1.77922,-1.05109 1.77974,-1.40147 3.20239,-3.15329 1.06763,-1.40147 1.42369,-1.75183 0.71158,-1.75235 0.71159,-1.40146 0.7121,-1.75183 0.35553,-1.75183 0.35605,-1.75184 v -1.75183 -1.75183 -0.70073 l -0.35605,-0.70073 -0.35553,-1.75183 -0.7121,-1.40147 -1.06764,-1.40146 -1.06711,-1.0511 -1.42369,-1.0511 -1.42369,-1.0511 -3.55844,-1.75183 -4.27054,-1.40146 -5.33765,-1.75235 -5.69372,-1.40147 -2.49131,-0.70073 -1.42317,-0.35037 -1.42369,-0.35036 -5.69371,-1.0511 -4.27054,-1.40147 -3.91449,-1.05109 -2.4908,-0.70074 -1.77974,-1.0511 -1.42317,-1.40146 -0.71158,-0.70073 -0.35605,-0.70073 v -1.0511 -0.700735 -1.401466 l 0.35605,-1.401463 0.35553,-1.401467 0.71158,-1.401463 1.42369,-2.452566 1.42369,-1.051097 1.06763,-1.051099 2.84686,-1.752349 3.20239,-1.75183 3.2029,-1.401464 3.20291,-1.051099 6.04975,-1.75183 0.42685,-0.07028 0.28474,0.07028 h 1.42368 l 1.42317,0.70073 1.42369,0.350367 h 1.77922 0.71158 1.06764 1.06764 l 1.06763,-0.700733 0.71159,-0.700731 0.71158,-0.700733 0.7121,-1.401463 0.35553,-1.0511 0.35605,-1.0511 v -0.700733 -0.70073 l -0.35605,-0.700733 -0.35553,-0.700733 -0.7121,-0.350367 -0.71158,-0.350364 -1.06764,-0.350366 h -1.06764 l -0.71158,-0.350367 h -1.06764 -2.4908 l -3.20291,0.350367 -4.27053,0.70073 -5.33766,1.0511 -7.82898,1.75183 -2.84686,0.350366 -2.84737,0.350367 -4.1243,0.580327 0.20981,-7.237286 0.35605,-7.708572 -0.35605,-0.700733 v -0.700733 l -0.16433,-0.161745 0.16433,-1.940451 0.7121,-4.55476 1.06764,-3.854029 0.71158,-4.204394 1.42317,-3.503662 1.06764,-3.504179 1.77973,-3.153296 1.42317,-2.452563 1.06764,-1.0511 1.06763,-1.051097 1.06764,-1.051099 1.06763,-0.700734 2.13527,-1.051096 1.06712,-0.350367 1.42369,-0.350367 1.42368,-0.350366 h 1.42317 l 1.77922,0.350366 1.06764,0.350367 1.06763,0.350367 1.77922,1.051096 1.77973,1.751833 1.77922,1.75183 1.42317,2.102197 1.42369,2.452563 0.71158,2.452563 1.06764,2.803448 0.35605,0.700733 0.35553,0.350364 h 1.06764 0.7121 l 0.35554,-0.70073 0.35605,-1.0511 0.71158,-1.401982 0.35605,-2.452563 0.35553,-2.452563 v -1.401466 l -0.71158,-1.75183 -0.71158,-1.401464 -1.06764,-1.751833 -1.42369,-1.75183 -1.77922,-1.75183 -1.77922,-1.401466 -2.13527,-1.401465 -2.13527,-1.051098 -1.42317,-0.350366 -1.06763,-0.350367 -2.49132,-0.700732 z m -14.44667,62.167263 -3.70261,2.651519 -1.61489,1.590082 0.12764,-3.389974 z m -4.24625,25.770001 0.54364,0.35657 2.49132,1.0511 2.84685,1.0511 7.1174,1.75235 9.25215,2.45256 8.18502,1.75183 5.33818,1.40147 2.13475,0.70073 1.77974,1.0511 1.42317,0.70073 1.77922,1.40146 1.06763,1.40147 0.71159,1.40146 0.7121,1.75183 v 2.1022 1.0511 l -0.35605,1.0511 -0.71159,2.10219 -1.42368,2.1022 -0.71159,1.05162 -1.06763,1.0511 -2.13527,1.75183 -2.84685,1.75183 -2.84686,1.40146 -3.20291,1.40147 -3.55844,1.0511 -3.2029,0.70073 -3.55844,0.70073 h -3.2029 l -2.49081,-0.35037 -2.49132,-0.35036 -0.71158,-0.35037 -0.71159,-0.35036 -0.35605,-0.35037 v -0.70073 l 0.71159,-0.70073 0.71158,-0.35037 v -0.70073 -0.35037 l -0.35553,-0.35036 h -1.42369 -0.71158 l -1.06764,0.70073 -1.42317,1.0511 -1.77973,1.75183 -1.77922,1.40146 -1.06764,1.40147 -0.35553,0.52503 v -7.18199 l -0.35605,-10.5115 -0.35605,-11.56209 z"
       inkscape:label="DFS White"
       sodipodi:insensitive="true" />
    <path
       id="path3863"
       style="display:none;fill:#cf1717;fill-opacity:1;fill-rule:nonzero;stroke:none;stroke-width:0.257137"
       d="m 128.60869,21.711336 -3.20291,0.350366 -1.77922,0.350366 -1.42368,0.350367 -1.42317,0.350366 -1.77922,0.700732 -1.42369,1.051099 -1.06763,0.700732 -1.42317,1.0511 -1.06764,1.401463 -2.49132,2.80293 -1.06763,1.401466 -1.06764,1.75183 -1.77922,3.854029 -1.77922,4.204394 -1.42368,4.555278 -1.06712,4.55476 -1.06764,5.255492 -0.35605,2.452563 -0.35605,2.80293 -0.71158,5.606378 -0.35605,5.956226 v 6.30659 l -3.914492,0.700733 -5.337659,0.700733 -5.338175,0.350366 -4.626076,0.350367 -1.067633,0.350364 -0.711587,0.350366 -0.356049,0.350367 -0.35605,0.700733 v 0.350366 l -0.355534,1.75183 v 1.0511 l 0.355534,0.350367 0.35605,0.70073 0.356049,0.350367 0.711587,0.350366 0.711583,0.350367 h 1.779736 l 3.914489,-0.350367 6.049246,-0.700733 8.185031,-1.401463 0.35605,4.905644 1.02939,17.565854 -1.74149,4.8581 -1.779223,5.95623 -2.135269,5.60585 -2.134754,5.60586 -4.626591,10.86187 -2.13527,4.90513 -2.490806,5.25549 -1.423683,2.1022 -1.06712,2.1022 -2.491319,4.20491 -2.846856,3.15329 -2.491319,2.80293 -2.846856,2.1022 -1.42317,0.70073 -1.423686,0.70073 -1.423167,0.70074 -1.423686,0.35036 -2.846856,0.35037 h -0.711583 l -1.067637,-0.35037 -1.423685,-0.35036 -0.711584,-0.70074 -0.35605,-0.35036 -0.355534,-0.70073 -0.712102,-1.0511 -0.711584,-1.40147 -0.355533,-1.75183 -0.356053,-1.75183 v -2.10219 -2.45309 l 0.356053,-2.80293 0.711583,-2.80293 0.711584,-2.80293 0.711586,-3.15329 1.423686,-2.80293 1.423167,-3.1533 1.423686,-3.15329 3.55844,-5.95674 1.779735,-2.80294 2.134754,-2.80292 3.914492,-4.90513 4.270539,-4.90513 3.914489,-3.85454 3.558955,-2.80293 1.42317,-1.0511 1.067636,-0.70073 1.067634,-0.35037 1.067636,-0.35037 0.355533,0.35037 h 0.35605 l 0.35605,1.0511 -0.35605,1.0511 -0.35605,1.75183 -0.711583,1.40146 -0.355534,1.05162 0.355534,0.35037 v 0.35036 h 0.711583 l 0.7121,-0.35036 1.77922,-1.75235 1.42317,-2.45257 1.779735,-2.80293 0.711587,-1.40146 0.356049,-1.40147 0.355534,-1.40146 v -1.0511 -0.70073 l -0.355534,-0.70073 -0.356049,-0.700735 -0.356053,-0.350366 -1.77922,-0.700733 h -2.135269 -1.42317 l -1.779217,0.700733 -1.423686,0.70073 -2.135272,1.051101 -2.13527,1.40146 -2.134753,2.1022 -5.338175,4.55476 -2.491319,2.45256 -2.846856,3.15382 -2.490804,2.80293 -2.491321,3.15329 -2.134754,3.1533 -2.491319,3.15329 -2.135272,3.50367 -2.13527,3.85402 -2.134753,3.50419 -1.779736,3.50366 -1.42317,3.50366 -1.067633,3.50366 -1.067637,3.1533 -0.711583,3.50366 -0.356053,3.15329 v 3.15382 2.10219 2.1022 l 0.356053,2.1022 0.355534,1.75183 0.712099,1.75183 0.711587,1.75183 0.711583,1.40147 0.712102,1.40146 1.067118,1.0511 0.35605,0.70073 0.711586,0.35037 1.067633,1.0511 1.067636,0.70073 1.067634,0.35037 1.423686,0.35036 1.067636,0.35037 h 1.42317 2.846853 l 2.846856,-1.0511 3.202905,-1.40146 1.067634,-0.70074 1.423685,-1.0511 2.846856,-2.45256 2.846853,-2.80293 2.490806,-3.50366 2.846853,-3.85403 2.491322,-4.20439 2.490804,-4.90565 2.135269,-4.90513 2.491322,-4.90512 2.134754,-5.60586 2.491319,-5.95674 2.135273,-5.95623 1.62626,-5.7645 0.15296,3.31194 0.35605,12.96407 0.35553,10.16061 v 1.40147 4.20439 l -0.35553,9.11004 -0.35605,8.75916 0.35605,2.10219 0.35553,1.75183 0.35605,0.35037 0.35554,0.70073 h 0.7121 l 0.71158,0.35037 0.71159,-0.35037 h 1.06763 l 1.77922,-1.0511 1.06764,-0.70073 0.7121,-1.0511 0.71158,-0.70073 v -0.70073 -1.75183 l -0.71158,-3.50366 -0.35605,-2.1022 v -2.1022 l -0.57981,-7.42332 0.57981,-0.28525 0.35605,-1.75183 v -0.70074 l 0.71158,1.0511 1.06764,0.70074 1.42317,0.35036 2.13527,0.35037 2.49132,0.35036 h 3.20239 4.98212 l 2.49132,-0.35036 2.49081,-0.35037 4.62658,-1.40146 2.49081,-0.70074 2.4908,-1.05109 2.13527,-1.0511 2.13528,-1.0511 2.13526,-1.0511 1.77922,-1.40147 1.77922,-1.05109 1.77974,-1.40147 3.20239,-3.15329 1.06763,-1.40147 1.42369,-1.75183 0.71158,-1.75235 0.71159,-1.40146 0.7121,-1.75183 0.35553,-1.75183 0.35605,-1.75184 v -1.75183 -1.75183 -0.70073 l -0.35605,-0.70073 -0.35553,-1.75183 -0.7121,-1.40147 -1.06764,-1.40146 -1.06711,-1.0511 -1.42369,-1.0511 -1.42369,-1.0511 -3.55844,-1.75183 -4.27054,-1.40146 -5.33765,-1.75235 -5.69372,-1.40147 -2.49131,-0.70073 -1.42317,-0.35037 -1.42369,-0.35036 -5.69371,-1.0511 -4.27054,-1.40147 -3.91449,-1.05109 -2.4908,-0.70074 -1.77974,-1.0511 -1.42317,-1.40146 -0.71158,-0.70073 -0.35605,-0.70073 v -1.0511 -0.700735 -1.401466 l 0.35605,-1.401463 0.35553,-1.401467 0.71158,-1.401463 1.42369,-2.452566 1.42369,-1.051097 1.06763,-1.051099 2.84686,-1.752349 3.20239,-1.75183 3.2029,-1.401464 3.20291,-1.051099 6.04975,-1.75183 0.42685,-0.07028 0.28474,0.07028 h 1.42368 l 1.42317,0.70073 1.42369,0.350367 h 1.77922 0.71158 1.06764 1.06764 l 1.06763,-0.700733 0.71159,-0.700731 0.71158,-0.700733 0.7121,-1.401463 0.35553,-1.0511 0.35605,-1.0511 v -0.700733 -0.70073 l -0.35605,-0.700733 -0.35553,-0.700733 -0.7121,-0.350367 -0.71158,-0.350364 -1.06764,-0.350366 h -1.06764 l -0.71158,-0.350367 h -1.06764 -2.4908 l -3.20291,0.350367 -4.27053,0.70073 -5.33766,1.0511 -7.82898,1.75183 -2.84686,0.350366 -2.84737,0.350367 -4.1243,0.580327 0.20981,-7.237286 0.35605,-7.708572 -0.35605,-0.700733 v -0.700733 l -0.16433,-0.161745 0.16433,-1.940451 0.7121,-4.55476 1.06764,-3.854029 0.71158,-4.204394 1.42317,-3.503662 1.06764,-3.504179 1.77973,-3.153296 1.42317,-2.452563 1.06764,-1.0511 1.06763,-1.051097 1.06764,-1.051099 1.06763,-0.700734 2.13527,-1.051096 1.06712,-0.350367 1.42369,-0.350367 1.42368,-0.350366 h 1.42317 l 1.77922,0.350366 1.06764,0.350367 1.06763,0.350367 1.77922,1.051096 1.77973,1.751833 1.77922,1.75183 1.42317,2.102197 1.42369,2.452563 0.71158,2.452563 1.06764,2.803448 0.35605,0.700733 0.35553,0.350364 h 1.06764 0.7121 l 0.35554,-0.70073 0.35605,-1.0511 0.71158,-1.401982 0.35605,-2.452563 0.35553,-2.452563 v -1.401466 l -0.71158,-1.75183 -0.71158,-1.401464 -1.06764,-1.751833 -1.42369,-1.75183 -1.77922,-1.75183 -1.77922,-1.401466 -2.13527,-1.401465 -2.13527,-1.051098 -1.42317,-0.350366 -1.06763,-0.350367 -2.49132,-0.700732 z m -14.44667,62.167263 -3.70261,2.651519 -1.61489,1.590082 0.12764,-3.389974 z m -4.24625,25.770001 0.54364,0.35657 2.49132,1.0511 2.84685,1.0511 7.1174,1.75235 9.25215,2.45256 8.18502,1.75183 5.33818,1.40147 2.13475,0.70073 1.77974,1.0511 1.42317,0.70073 1.77922,1.40146 1.06763,1.40147 0.71159,1.40146 0.7121,1.75183 v 2.1022 1.0511 l -0.35605,1.0511 -0.71159,2.10219 -1.42368,2.1022 -0.71159,1.05162 -1.06763,1.0511 -2.13527,1.75183 -2.84685,1.75183 -2.84686,1.40146 -3.20291,1.40147 -3.55844,1.0511 -3.2029,0.70073 -3.55844,0.70073 h -3.2029 l -2.49081,-0.35037 -2.49132,-0.35036 -0.71158,-0.35037 -0.71159,-0.35036 -0.35605,-0.35037 v -0.70073 l 0.71159,-0.70073 0.71158,-0.35037 v -0.70073 -0.35037 l -0.35553,-0.35036 h -1.42369 -0.71158 l -1.06764,0.70073 -1.42317,1.0511 -1.77973,1.75183 -1.77922,1.40146 -1.06764,1.40147 -0.35553,0.52503 v -7.18199 l -0.35605,-10.5115 -0.35605,-11.56209 z"
       inkscape:label="DFS Red"
       sodipodi:insensitive="true" />
  </g>
  <g
     inkscape:groupmode="layer"
     id="layer3"
     inkscape:label="Layer 3"
     style="display:inline"
     sodipodi:insensitive="true">
    <path
       id="ellipse132"
       style="display:none;fill:#000000;fill-opacity:1;fill-rule:evenodd;stroke:none;stroke-width:0.25378"
       d="M 105.83333,5.2916666 A 100.54165,100.54165 0 0 0 5.2916666,105.83333 100.54165,100.54165 0 0 0 105.83333,206.375 100.54165,100.54165 0 0 0 206.375,105.83333 100.54165,100.54165 0 0 0 105.83333,5.2916666 Z m 0,5.2916664 a 95.249999,95.249999 0 0 1 95.25,95.249997 95.249999,95.249999 0 0 1 -95.25,95.25 95.249999,95.249999 0 0 1 -95.249997,-95.25 95.249999,95.249999 0 0 1 95.249997,-95.249997 z"
       inkscape:label="Border Black"
       sodipodi:insensitive="true" />
    <path
       id="path3867"
       style="display:none;fill:#212121;fill-opacity:1;fill-rule:evenodd;stroke:none;stroke-width:0.25378"
       d="M 105.83333,5.2916666 A 100.54165,100.54165 0 0 0 5.2916666,105.83333 100.54165,100.54165 0 0 0 105.83333,206.375 100.54165,100.54165 0 0 0 206.375,105.83333 100.54165,100.54165 0 0 0 105.83333,5.2916666 Z m 0,5.2916664 a 95.249999,95.249999 0 0 1 95.25,95.249997 95.249999,95.249999 0 0 1 -95.25,95.25 95.249999,95.249999 0 0 1 -95.249997,-95.25 95.249999,95.249999 0 0 1 95.249997,-95.249997 z"
       inkscape:label="Border Grey"
       sodipodi:insensitive="true" />
    <path
       id="path3871"
       style="display:none;fill:#ffffff;fill-opacity:1;fill-rule:evenodd;stroke:none;stroke-width:0.25378"
       d="M 105.83333,5.2916666 A 100.54165,100.54165 0 0 0 5.2916666,105.83333 100.54165,100.54165 0 0 0 105.83333,206.375 100.54165,100.54165 0 0 0 206.375,105.83333 100.54165,100.54165 0 0 0 105.83333,5.2916666 Z m 0,5.2916664 a 95.249999,95.249999 0 0 1 95.25,95.249997 95.249999,95.249999 0 0 1 -95.25,95.25 95.249999,95.249999 0 0 1 -95.249997,-95.25 95.249999,95.249999 0 0 1 95.249997,-95.249997 z"
       inkscape:label="Border White"
       sodipodi:insensitive="true" />
    <path
       id="path3875"
       style="display:inline;fill:#cf1717;fill-opacity:1;fill-rule:evenodd;stroke:none;stroke-width:0.25378"
       d="M 105.83333,5.2916666 A 100.54165,100.54165 0 0 0 5.2916666,105.83333 100.54165,100.54165 0 0 0 105.83333,206.375 100.54165,100.54165 0 0 0 206.375,105.83333 100.54165,100.54165 0 0 0 105.83333,5.2916666 Z m 0,5.2916664 a 95.249999,95.249999 0 0 1 95.25,95.249997 95.249999,95.249999 0 0 1 -95.25,95.25 95.249999,95.249999 0 0 1 -95.249997,-95.25 95.249999,95.249999 0 0 1 95.249997,-95.249997 z"
       inkscape:label="Border Red"
       sodipodi:insensitive="true" />
  </g>
</svg>
