<?xml version="1.0" encoding="utf-8"?>
<svg id="Layer_1" data-name="Layer 1" viewBox="98.89 329.44 615.32 854.19" xmlns="http://www.w3.org/2000/svg">
  <path d="M405.55,1182.35c-.72-.22-73.16-22.55-145.43-82C187,1040.12,99.89,931.56,99.89,756.05S187,472,260.12,411.8c72.35-59.57,144.71-81.84,145.43-82.05l1-.31,1,.31c.73.21,73.09,22.48,145.44,82.05C626.08,472,713.21,580.54,713.21,756.05S626.08,1040.12,553,1100.3c-72.27,59.5-144.71,81.83-145.44,82l-1,.3Zm.6-730.38c-8.95,4-40.92,19.29-76.63,49.71-6.58,5.6-13,11.5-19.14,17.55-4.63,4.56-9.29,9.46-13.85,14.54a326.13,326.13,0,0,0-42.92,60.35,316.93,316.93,0,0,0-19.77,43.25c-13.62,36.9-20.53,76.82-20.53,118.68,0,116.43,52.79,193.05,97.07,236.82a358.82,358.82,0,0,0,53.3,43.32c20.58,13.7,36.55,21.31,42.47,23.94l.4.19.41-.19,2.7-1.23c11.66-5.45,52.86-26.3,93.07-66a329.48,329.48,0,0,0,48.71-61.1,317.21,317.21,0,0,0,21.62-41.53c17.74-41.21,26.73-86.36,26.73-134.19,0-116.44-52.78-193-97.06-236.82C459.5,476.52,415.37,455.7,407,452l-.41-.18Z" style="fill: rgb(255, 255, 255);"/>
  <path d="M488.42,485a39.16,39.16,0,0,0,11.87,17.9,54.87,54.87,0,0,0,9.77,7.14,35.52,35.52,0,0,0,10.44,3.73,8.52,8.52,0,0,0,5.74-.8,16.79,16.79,0,0,0,3.81-2.35,25.14,25.14,0,0,0,3-2.75c.86-1,.94-1.78.22-2.41a1.61,1.61,0,0,0-1.17-.35l-1.68.06a28.48,28.48,0,0,1-10.55-.87,22.43,22.43,0,0,1-8.18-4.85,29.27,29.27,0,0,1-9.57-15.5,32.76,32.76,0,0,1,1.23-18.15,53.18,53.18,0,0,1,11-18.15q10.29-11.55,20.54-13.91a19.47,19.47,0,0,1,18.25,4.78,40.18,40.18,0,0,1,8,9.68A43.72,43.72,0,0,1,565.67,459a27,27,0,0,1,.85,3.28,3.79,3.79,0,0,0,.88,2.09,1.64,1.64,0,0,0,1.63.32,3.75,3.75,0,0,0,1.84-1.23c.64-.71,1.35-1.59,2.13-2.63a25.14,25.14,0,0,0,1.88-2.86,8.17,8.17,0,0,0,.35-7.53,45.82,45.82,0,0,0-4.87-7.82,55,55,0,0,0-7.55-8.3q-9.33-8.31-20.11-9.91a38.7,38.7,0,0,0-21.63,3.17q-10.86,4.79-20.46,15.55-9.17,10.29-12.2,21.08A36.37,36.37,0,0,0,488.42,485Z" style=""/>
  <path d="M574.76,472.81q-4.12,6.7-9.43,15t-11,17q-5.68,8.72-10.94,16.52t-9.22,13.24c-1.17,1.59-1.31,2.93-.44,4a16.91,16.91,0,0,0,3.75,3.23,26.93,26.93,0,0,0,4,2.31,6.53,6.53,0,0,0,2.15.4,6.69,6.69,0,0,0,2.79-.67q6-2.52,13.78-5.57t16.34-6.2q8.55-3.15,17-6.14t15.8-5.42q7.38-2.43,12.55-3.87c1.38-.35,2.73-.75,4.05-1.18a9.58,9.58,0,0,0,2.48-1.07,2.13,2.13,0,0,0,.72-2.84,9.85,9.85,0,0,0-.76-1.58,16.28,16.28,0,0,0-1.11-1.59,18.67,18.67,0,0,0-2.58-2.61,2.48,2.48,0,0,0-1.54-.67,4.51,4.51,0,0,0-2.21.56q-4.19,2.07-10.85,4.85t-14.34,5.8q-7.66,3-15,5.86t-13.34,5.07q-6,2.22-9.09,3.31c-1.91.67-3.09.72-3.55.14s-.23-1.74.82-3.34q2.16-3.14,5.89-8.88l8.26-12.68q4.51-6.93,9.06-13.75T587,479.84q3.62-5.37,5.57-7.92,2.28-3,1-5.19c-.21-.4-.58-1-1.11-1.81s-1.07-1.55-1.62-2.24-1.14-1.35-1.76-2a20.43,20.43,0,0,0-1.82-1.65c-1.51-1.06-2.81-1.15-3.89-.29a5.7,5.7,0,0,0-1.05,1.4l-1.41,2.4Q578.89,466.12,574.76,472.81Z" style=""/>
  <path d="M614.32,532q-6.84,4.65-15.78,10.2l-6.18,3.85q-8.94,5.56-16.13,9.64t-11.61,6.44q-4.43,2.36-5.2,2.84a3.27,3.27,0,0,0-1.47,4c.2.49.52,1.16.95,2s.9,1.69,1.41,2.51a27.31,27.31,0,0,0,1.57,2.27c.57.77,1,1.35,1.38,1.74a3.27,3.27,0,0,0,4.27.47c.52-.32,2.13-1.45,4.85-3.4s6.35-4.47,10.91-7.57,9.82-6.49,15.78-10.2l6.18-3.84q8.94-5.56,16.13-9.64T633,537q4.43-2.36,5.2-2.84a3.28,3.28,0,0,0,1.47-4,9.14,9.14,0,0,0-.89-2.05c-.47-.83-.94-1.63-1.41-2.38s-1-1.61-1.57-2.4a8.56,8.56,0,0,0-1.44-1.71,3.28,3.28,0,0,0-4.27-.47c-.52.32-2.13,1.46-4.85,3.41S618.88,529,614.32,532Z" style=""/>
  <path d="M631.06,594.35q-4.26,6.25-6,18L624,619.82Q622.95,627,620.31,631a15.78,15.78,0,0,1-8,6.07c-3.58,1.35-6.79,1.29-9.65-.15a13.25,13.25,0,0,1-6.3-7.55,31.67,31.67,0,0,1-2.22-11.27A46.2,46.2,0,0,1,596,606.26c.2-.71.43-1.44.7-2.21a2.77,2.77,0,0,0,.17-1.78,1.43,1.43,0,0,0-1.26-.94,3.91,3.91,0,0,0-1.92.25,23.66,23.66,0,0,0-4.08,2.06,24.22,24.22,0,0,0-3.41,2.4,7.39,7.39,0,0,0-2.69,5,33.87,33.87,0,0,0,.53,7.88,52,52,0,0,0,2.75,10.12q4.94,13.14,14.24,16.67T621.8,645a24.12,24.12,0,0,0,11.8-9.09,35,35,0,0,0,5.5-14.75l1.16-7.64q1.43-9.15,4-13.77a13.84,13.84,0,0,1,7.44-6.45q4.86-1.83,8.59.32a12.76,12.76,0,0,1,5.5,6.9,32.25,32.25,0,0,1,1.85,17.13,22.84,22.84,0,0,1-1,4.15,4.84,4.84,0,0,0-.3,3.07,1.43,1.43,0,0,0,1.19,1,3.45,3.45,0,0,0,1.74-.18,36.94,36.94,0,0,0,3.45-1.54,18.92,18.92,0,0,0,3.06-1.85,6.26,6.26,0,0,0,2.69-4.67,22.73,22.73,0,0,0-.43-7.8,60.92,60.92,0,0,0-2.52-8.56q-4.66-12.42-13.42-16.15t-19,.11A24.41,24.41,0,0,0,631.06,594.35Z" style=""/>
  <path d="M647.12,651.34,640,652.77q-10.32,2.07-18.42,3.35t-13,1.93c-3.28.44-5.21.71-5.8.83a2.82,2.82,0,0,0-2.46,2,11.06,11.06,0,0,0,.21,4.69c.26,1.3.64,3.06,1.13,5.3s1,4.62,1.57,7.17,1,4.85,1.44,6.87q1,4.88,1.81,9.67t1.32,8.24c.33,2.3.56,3.78.69,4.43a4.12,4.12,0,0,0,3.33,3.39,24.75,24.75,0,0,0,4.09.53,16.78,16.78,0,0,0,4.33-.19q2.17-.44,1.8-2.28a34.78,34.78,0,0,0-1.8-4.71q-1.62-3.74-3.92-10.59A144.9,144.9,0,0,1,611.89,676q-.81-4,3.78-4.93c2.3-.46,5.05-1,8.27-1.77l9.7-2.17q4.89-1.1,8.33-1.78c1.87-.38,3,.2,3.26,1.71a170.93,170.93,0,0,1,2.66,17.9q.47,6.27.75,7.68a4.23,4.23,0,0,0,3.52,3.69,15.87,15.87,0,0,0,3.26.36,16.76,16.76,0,0,0,3.65-.28c1.7-.34,2.39-1.31,2.07-2.9-.23-1.15-1.09-3.88-2.56-8.16a168.13,168.13,0,0,1-4.94-20q-.45-2.28,2.22-2.82,5.49-1.1,11.94-2.28t10.71-1.81c1.9-.23,3,.34,3.26,1.72a136.69,136.69,0,0,1,2.58,17.17,79.37,79.37,0,0,1,.22,9.65,20.26,20.26,0,0,0-.05,4.07c.3,1.51,1.39,2.09,3.26,1.71a26.31,26.31,0,0,0,3.7-1.08,17.47,17.47,0,0,0,3.22-1.43,3.51,3.51,0,0,0,1.88-3.87c-.09-.44-.39-1.71-.9-3.82s-1.1-4.5-1.77-7.15-1.22-5.12-1.69-7.43q-.56-2.82-1.26-6.62c-.46-2.54-.91-5-1.33-7.29s-.78-4.24-1.08-5.75q-.75-3.69-1.78-4.89a3.12,3.12,0,0,0-3.2-.76q-1.27.26-11.09,2.89T647.12,651.34Z" style=""/>
  <path d="M690.35,714.67c-3.33.33-7.72.71-13.17,1.11s-11.68.74-18.7,1l-7.27.25q-10.53.36-18.79.31t-13.27-.2c-3.35-.11-5.32-.15-5.93-.13a3,3,0,0,0-3.28,2.77,24.11,24.11,0,0,0-.23,4.76,23.09,23.09,0,0,0,.55,4.73,3.06,3.06,0,0,0,3.47,2.54q.91,0,5.65-.47t11.41-1q6.68-.57,13.43-.8,2.87-.09,2.94,2.22a52,52,0,0,0,.38,5.3,22.69,22.69,0,0,1,.28,2.53c0,1-.76,1.8-2.38,2.52a86.34,86.34,0,0,0-20,11.35,75.56,75.56,0,0,0-14.16,13.81,8.19,8.19,0,0,0-1,1.91,6.33,6.33,0,0,0-.31,2.34,8.51,8.51,0,0,0,1.52,4.48c1,1.44,1.91,2.14,2.87,2.11a3.63,3.63,0,0,0,2.54-1.52,61,61,0,0,1,12.95-11.23,143.25,143.25,0,0,1,17.81-9.84,9.71,9.71,0,0,1,3.74-1,3.53,3.53,0,0,1,3.18,1.88q6.47,10.17,20.89,9.68,12.35-.42,19.07-8.89t6.25-22.5c-.14-4.27-.34-8-.58-11.31a41.46,41.46,0,0,0-.66-5.89,5.27,5.27,0,0,0-1.2-2.67,2.91,2.91,0,0,0-2.16-.65C695.64,714.16,693.67,714.33,690.35,714.67Zm-3.52,32.18q-4.87,5.7-14.75,6-7.92.27-12.13-3.07a11.28,11.28,0,0,1-4.41-8.86,27.83,27.83,0,0,1,.27-5.53,22.23,22.23,0,0,1,1.21-4.36c.48-1.34,1.71-2.05,3.7-2.11q5.46-.19,11-.33c3.69-.09,7-.15,9.95-.17s5,0,6.24,0a4.41,4.41,0,0,1,2.63.69c.53.42.83,1.48.89,3.17Q691.71,741.16,686.83,746.85Z" style=""/>
  <path d="M699,772.42a5.34,5.34,0,0,0-1.72.25l-2.7.7q-3.92,1.13-11.57,2.94t-17.25,3.91q-9.59,2.1-19.77,4.25t-19.4,3.95q-9.23,1.82-15.89,2.85c-2,.3-3,1.14-3.16,2.54a16.91,16.91,0,0,0,.37,4.93,26.08,26.08,0,0,0,1.2,4.47,6.09,6.09,0,0,0,3.69,3.3q6,2.44,13.68,5.8t15.94,7.17q8.28,3.81,16.35,7.66t15,7.34q6.93,3.49,11.61,6.13c1.23.73,2.46,1.41,3.7,2a9.87,9.87,0,0,0,2.5,1,2.12,2.12,0,0,0,2.52-1.5,9,9,0,0,0,.58-1.66,13,13,0,0,0,.34-1.9,17.28,17.28,0,0,0,0-3.67,2.44,2.44,0,0,0-.61-1.57,4.63,4.63,0,0,0-2-1.17q-4.42-1.49-11.11-4.23t-14.24-6q-7.54-3.28-14.77-6.48t-13-5.84q-5.79-2.66-8.77-4.09c-1.82-.87-2.69-1.67-2.61-2.41s1.07-1.4,3-1.78q3.74-.69,10.44-2.12l14.8-3.13q8.1-1.71,16.13-3.32t14.38-2.84q6.34-1.25,9.54-1.66c2.47-.32,3.94-1.31,4.38-3,.13-.43.3-1.12.49-2.06s.34-1.85.44-2.73.15-1.76.16-2.65a18.94,18.94,0,0,0-.12-2.46C701.27,773.56,700.42,772.57,699,772.42Z" style=""/>
  <path d="M688.37,848.48c-.6-.14-2.55-.46-5.85-1s-7.66-1.27-13.08-2.27-11.55-2.26-18.4-3.8l-7.1-1.6q-10.28-2.31-18.25-4.45t-12.79-3.56q-4.81-1.43-5.7-1.62a3.28,3.28,0,0,0-3.88,1.84c-.2.48-.44,1.18-.74,2.1s-.55,1.84-.76,2.77-.35,1.77-.48,2.73-.2,1.69-.23,2.21a3.27,3.27,0,0,0,2.71,3.33q.88.2,5.85,1t13.08,2.26q8.13,1.5,18.4,3.81l7.1,1.6q10.28,2.31,18.25,4.45t12.79,3.56q4.82,1.42,5.7,1.62a3.27,3.27,0,0,0,3.88-1.84,8.54,8.54,0,0,0,.8-2.09c.26-.92.48-1.82.67-2.68s.4-1.87.57-2.82a8.19,8.19,0,0,0,.17-2.22A3.27,3.27,0,0,0,688.37,848.48Z" style=""/>
  <path d="M681.55,878.89c-.58-.2-2.47-.75-5.69-1.65s-7.45-2.14-12.67-3.75-11.15-3.56-17.77-5.89l-6.87-2.41q-9.94-3.5-17.62-6.54t-12.29-5c-3.07-1.31-4.9-2.07-5.47-2.27a3.06,3.06,0,0,0-4.07,1.38,24.74,24.74,0,0,0-1.94,4.35,23.38,23.38,0,0,0-1.21,4.62,3.07,3.07,0,0,0,2.31,3.62q.87.3,5.43,1.61t11,3.22q6.42,1.9,12.8,4.15,2.7.95,1.93,3.13a52.07,52.07,0,0,0-1.57,5.07c-.25,1.09-.47,1.91-.66,2.47-.32.9-1.37,1.39-3.14,1.47a86.39,86.39,0,0,0-22.73,3.32,75.34,75.34,0,0,0-18.21,7.71,8.43,8.43,0,0,0-1.6,1.43,6.24,6.24,0,0,0-1.14,2.06,8.56,8.56,0,0,0-.21,4.73c.37,1.69,1,2.69,1.9,3a3.63,3.63,0,0,0,2.93-.49,60.67,60.67,0,0,1,16.14-5.75,143.42,143.42,0,0,1,20.17-2.7,9.57,9.57,0,0,1,3.85.42,3.52,3.52,0,0,1,2.29,2.91q2.31,11.82,15.93,16.61,11.65,4.08,21-1.35t14-18.68q2.13-6,3.57-10.75a44.53,44.53,0,0,0,1.53-5.73,5.44,5.44,0,0,0-.15-2.92A2.87,2.87,0,0,0,681.55,878.89Zm-11.12,15.18q-2.94,8.34-9.55,11.88T645,906.2q-7.49-2.62-10.2-7.26a11.31,11.31,0,0,1-.87-9.86,27.65,27.65,0,0,1,2.26-5.06,21.55,21.55,0,0,1,2.71-3.61q1.39-1.62,4.22-.63c3.43,1.21,6.88,2.43,10.34,3.69s6.58,2.41,9.33,3.45,4.69,1.81,5.82,2.28a4.4,4.4,0,0,1,2.19,1.59C671.1,891.38,671,892.47,670.43,894.07Z" style=""/>
  <path d="M652.53,952.1q-1.12-.66-10.23-5.16t-22.84-12.45l-6.3-3.64q-9.1-5.28-16-9.67t-11-7.15q-4.11-2.76-4.89-3.21a2.81,2.81,0,0,0-3.14-.16,11.23,11.23,0,0,0-2.95,3.66q-1,1.73-2.65,4.72l-3.57,6.42c-1.27,2.29-2.42,4.32-3.46,6.11q-2.49,4.3-5,8.45t-4.46,7.05q-1.92,2.92-2.41,3.78a4.1,4.1,0,0,0,.25,4.74,26.07,26.07,0,0,0,2.71,3.11,17.14,17.14,0,0,0,3.39,2.72c1.27.74,2.22.56,2.85-.52a34.55,34.55,0,0,0,1.76-4.73q1.26-3.87,4.07-10.54a146,146,0,0,1,8.18-16c1.36-2.36,3.4-2.75,6.1-1.19,2,1.17,4.48,2.55,7.36,4.13l8.72,4.79c2.93,1.61,5.4,3,7.43,4.17q2.48,1.44,1.31,3.44a174.09,174.09,0,0,1-9.83,15.19q-3.81,5-4.53,6.25a4.22,4.22,0,0,0,.21,5.1,15.06,15.06,0,0,0,2.2,2.42,16.56,16.56,0,0,0,2.93,2.21q2.25,1.3,3.47-.8.89-1.53,3.47-7.82a169,169,0,0,1,9.51-18.25c.77-1.34,1.95-1.55,3.52-.64q4.85,2.8,10.47,6.18t9.23,5.73q2.36,1.62,1.31,3.44a139.26,139.26,0,0,1-9.42,14.59A79,79,0,0,1,624,986a20.15,20.15,0,0,0-2.72,3q-1.17,2,1.31,3.44a26.5,26.5,0,0,0,3.48,1.63,17.94,17.94,0,0,0,3.37,1.06,3.52,3.52,0,0,0,4-1.66c.22-.38.84-1.54,1.85-3.46s2.15-4.1,3.4-6.53,2.47-4.65,3.65-6.69c1-1.66,2.1-3.6,3.43-5.8l3.82-6.35c1.22-2,2.22-3.69,3-5q1.89-3.25,1.9-4.84A3.11,3.11,0,0,0,652.53,952.1Z" style=""/>
  <path d="M226.24,975.26q9-5.46,16.21-9.49t11.65-6.37c3-1.56,4.69-2.5,5.2-2.81,1.64-1,2.19-2.24,1.68-3.76a18.64,18.64,0,0,0-1.84-3.79,18.23,18.23,0,0,0-2.5-3.38c-1.11-1.15-2.48-1.24-4.11-.25-.51.32-2.08,1.36-4.71,3.14s-5.79,3.91-9.5,6.39-7.5,4.89-11.36,7.22q-2.44,1.49-3.5-.26a40.31,40.31,0,0,0-2.6-3.91,19.45,19.45,0,0,1-1.33-1.81c-.43-.72-.1-1.76,1-3.12a91,91,0,0,0,12.53-18.59,72.62,72.62,0,0,0,6.42-17.63,7.09,7.09,0,0,0,0-2,5.25,5.25,0,0,0-.73-2,7,7,0,0,0-3.24-2.71c-1.45-.64-2.59-.71-3.4-.22a3.82,3.82,0,0,0-1.57,2.44,60.23,60.23,0,0,1-6.47,15,151.41,151.41,0,0,1-11.29,16.36,10.48,10.48,0,0,1-2.82,2.62,3.55,3.55,0,0,1-3.57.12q-10-4.67-22.32,2.81-10.56,6.4-12.8,16.25t4.18,20.44c2,3.22,3.74,6,5.34,8.45a34.71,34.71,0,0,0,3.1,4.22,4.47,4.47,0,0,0,2.18,1.47,3.13,3.13,0,0,0,2.16-.57c.52-.31,2.16-1.42,4.91-3.31s6.41-4.35,11-7.34S214,982.67,220,979Zm-13.4-4.54q-4.67,2.84-9.42,5.65t-8.58,5c-2.55,1.47-4.36,2.5-5.43,3.07a4.84,4.84,0,0,1-2.58.76q-1-.09-2.13-2a16.81,16.81,0,0,1-2.24-13.47q1.81-6.79,10.26-11.92,6.78-4.11,11.88-3.6a9.5,9.5,0,0,1,7.62,4.67,21.7,21.7,0,0,1,2.13,4.41,17.4,17.4,0,0,1,.81,4Q215.4,969.18,212.84,970.72Z" style=""/>
  <path d="M196.33,923.06q9.75-4,17.46-6.76t12.38-4.4q4.7-1.59,5.53-1.93c1.29-.52,2-1.26,2.12-2.22a8.78,8.78,0,0,0-.88-4.06q-.66-1.63-1.85-4.41c-.8-1.85-1.66-3.83-2.56-6s-1.71-4-2.39-5.71q-1.65-4.07-3.14-8.09c-1-2.68-1.82-5-2.47-6.94s-1.08-3.19-1.3-3.74a3.64,3.64,0,0,0-3.73-2.27,27.33,27.33,0,0,0-4.05.38,19.65,19.65,0,0,0-4.2,1.07c-1.36.56-1.84,1.35-1.42,2.37a27.68,27.68,0,0,0,2.43,3.75q2.1,2.93,5.33,8.46a114.64,114.64,0,0,1,6.78,14.3q1.35,3.35-3,5.1-3.25,1.32-7.8,3.27l-9.14,3.91q-4.6,2-7.85,3.3c-1.77.71-2.91.44-3.42-.83A132.57,132.57,0,0,1,184,896.54q-1.35-5.4-1.83-6.57a3.72,3.72,0,0,0-4-2.5,16.79,16.79,0,0,0-3.22.36,19.26,19.26,0,0,0-3.52,1c-1.6.66-2.14,1.65-1.6,3a67.93,67.93,0,0,0,3.67,6.61,132.85,132.85,0,0,1,7.66,16.47c.51,1.26-.08,2.24-1.76,2.92-3.46,1.4-7.22,2.9-11.31,4.48s-7.46,2.85-10.16,3.81q-2.73.88-3.42-.82a108,108,0,0,1-5-14.51,60.44,60.44,0,0,1-1.59-8.4,15.85,15.85,0,0,0-.54-3.57q-.76-1.9-3.42-.82a30.94,30.94,0,0,0-3.44,1.71,19.36,19.36,0,0,0-2.94,1.93c-1.38,1.19-1.81,2.45-1.27,3.77.15.36.62,1.42,1.42,3.16s1.72,3.71,2.74,5.89,1.93,4.23,2.71,6.16q1,2.35,2.17,5.53c.82,2.13,1.6,4.16,2.34,6.11s1.37,3.55,1.88,4.81q1.25,3.08,2.43,3.91a3.27,3.27,0,0,0,3.23,0q1.2-.48,10.38-4.84t23.87-10.31Z" style=""/>
  <path d="M177.28,880.41a59.54,59.54,0,0,0,21.36-9.35,37.47,37.47,0,0,0,12.52-14.71,26.52,26.52,0,0,0,1.59-17.63,49.92,49.92,0,0,0-3.44-10.2,54.67,54.67,0,0,0-3.81-6.7c-1.23-1.79-2.28-3.39-3.15-4.78a3.89,3.89,0,0,0-4.48-2,9.6,9.6,0,0,0-2.9,1.29,36.84,36.84,0,0,1-4.15,2.2,41.35,41.35,0,0,1-7.45,2.38q-6.19,1.48-9.72,2.14t-5.27.85a21.06,21.06,0,0,0-2.39.34,3.21,3.21,0,0,0-2.79,2.88,6.81,6.81,0,0,0,0,1.79,20.23,20.23,0,0,0,.4,2.26c.17.69.4,1.47.69,2.32a6.44,6.44,0,0,0,.82,1.74,2.89,2.89,0,0,0,3.49,1.19,19.16,19.16,0,0,0,2.71-1c1.22-.5,2.4-1,3.55-1.35q2.22-.81,6.26-2t11.38-3q4.68-1.12,6.49.84a20.22,20.22,0,0,1,2.44,3.24,14.9,14.9,0,0,1,1.61,4.19,18.9,18.9,0,0,1-2,13.88q-3.66,6.74-11.9,12a65.55,65.55,0,0,1-20.12,8.09q-15.81,3.78-25.17,1a16,16,0,0,1-11.65-12.34,26,26,0,0,1-.64-7.18,43.86,43.86,0,0,1,.92-7.32,27.58,27.58,0,0,1,2-6.15c.41-.9.81-1.74,1.2-2.55a3,3,0,0,0,.41-1.89c-.25-1.05-1.22-1.37-2.9-1a31.31,31.31,0,0,0-3.8,1.19,31,31,0,0,0-3.33,1.44,7,7,0,0,0-4,4.55,30.47,30.47,0,0,0-1.08,7.78,36.4,36.4,0,0,0,1,9.76q2.61,10.9,10.44,16.83t19.35,7.13A75.76,75.76,0,0,0,177.28,880.41Z" style=""/>
  <path d="M129,814.81l2.46-.17,4.67-.32,4.67-.32,2.34-.16q28.65-2,43-2.15t15.82-.27c1.47-.1,2.39-.55,2.77-1.37a5.47,5.47,0,0,0,.29-1.53,13.73,13.73,0,0,0,0-1.69,9.48,9.48,0,0,0-.31-1.71,13.51,13.51,0,0,0-.42-1.34,1.72,1.72,0,0,0-1.17-.83,7,7,0,0,0-1.76-.06q-1,.08-6.21.7t-15.91,1.65q-10.74,1-28.26,2.21l-11.28.78c-1.73.12-2.62-.24-2.68-1.09a1.44,1.44,0,0,1,.58-1,11.29,11.29,0,0,1,1.48-1.2q3.11-2.31,8-5.75T158,791.61l12.12-8.41q6.23-4.31,12.14-8.31L193,767.58q4.86-3.3,8-5.25a8.67,8.67,0,0,0,1.42-1.19,1.76,1.76,0,0,0,.37-1.3,5.77,5.77,0,0,0-.59-1.88,9.38,9.38,0,0,0-1.1-1.84c-.67-.86-1.87-1.24-3.6-1.12q-1.42.11-5.83.49t-10.11.84q-5.7.43-10.76.78-10.37.72-20.05,1.16t-17.61.71q-7.92.27-12.94.39c-3.33.08-5.31.13-5.91.18-1.47.1-2.39.59-2.77,1.46a5.3,5.3,0,0,0-.29,1.48,13.23,13.23,0,0,0,0,1.65,10.2,10.2,0,0,0,.24,1.58,7.2,7.2,0,0,0,.49,1.38c.4.76,1.38,1.09,2.93,1,.61,0,2.22-.26,4.85-.65s6.58-.87,11.89-1.41,12.32-1.13,21-1.73l20-1.37c1.55-.11,2.36.23,2.41,1a1.71,1.71,0,0,1-.56,1.27,10.63,10.63,0,0,1-1.48,1.24q-2,1.41-5.9,4.24t-9.19,6.56l-11,7.78q-5.7,4-11.25,7.84t-10.15,6.86c-3.07,2-5.57,3.61-7.49,4.71a11.94,11.94,0,0,0-2.42,1.72,3.55,3.55,0,0,0-1,2.25,11.82,11.82,0,0,0-.16,2.43c0,.94,0,1.78.1,2.5s.16,1.56.31,2.49a9.8,9.8,0,0,0,.53,2.11,1.81,1.81,0,0,0,2,1.31,2.57,2.57,0,0,0,1.27-.45L120,818l1-.8a7.79,7.79,0,0,1,3.59-1.8A33.9,33.9,0,0,1,129,814.81Z" style=""/>
  <path d="M116.25,716.8a13.78,13.78,0,0,0,2.44,2.62,12,12,0,0,0,3.93,2q4.44,1.49,11.37,4.12t15.25,6q8.3,3.36,16.85,6.94t16.28,6.87q7.73,3.31,13.49,5.89a9.38,9.38,0,0,0,2.66.93c1.29.12,2.11-.23,2.44-1a11,11,0,0,0,.67-3,15.21,15.21,0,0,0,.05-2,7.58,7.58,0,0,0-.24-1.64,2.71,2.71,0,0,0-.68-1.19,4.59,4.59,0,0,0-1.87-.9l-6-1.93q-3.87-1.23-8.3-2.81c-2.95-1.06-5.68-2.06-8.21-3a6.86,6.86,0,0,1-2.16-1.28,2.85,2.85,0,0,1-.66-2.11c0-1,.1-2.67.25-4.87s.31-4.53.45-7,.27-4.58.39-6.43.21-3,.24-3.36a2.69,2.69,0,0,1,1-2.2,9.4,9.4,0,0,1,2.9-1c1.06-.23,2.64-.52,4.71-.89l6.7-1.14c2.39-.41,4.66-.77,6.83-1.09s3.85-.56,5.09-.71a5.15,5.15,0,0,0,2.49-.85,3.64,3.64,0,0,0,1.15-1.85,17.16,17.16,0,0,0,.35-1.68c.1-.68.19-1.34.25-2a22.68,22.68,0,0,0,.08-2.34c0-.78,0-1.44-.08-2a2.83,2.83,0,0,0-2.89-2.62,12.14,12.14,0,0,0-3.24.44c-1.56.34-3.13.71-4.74,1.08q-5.07,1.2-12.86,2.88t-17,3.48q-9.24,1.8-18.53,3.54t-17.39,3.1q-8.09,1.36-13.38,2.15c-1.94.28-3,1.07-3.09,2.36a10.06,10.06,0,0,0,.86,4.1A21,21,0,0,0,116.25,716.8Zm15.86-1.39a9.66,9.66,0,0,1,1.67-.43c1.07-.23,2.71-.55,4.92-1s4.7-.87,7.44-1.37,5.44-1,8.1-1.51,5-.93,7-1.26a13.33,13.33,0,0,1,3.54-.27c1.3.12,1.9.64,1.82,1.54,0,.52-.16,1.59-.36,3.2s-.39,3.36-.61,5.23-.41,3.58-.6,5.13-.3,2.56-.34,3q-.14,1.45-1.95,1.29a6.42,6.42,0,0,1-1.34-.32q-.83-.27-1.83-.66c-1.52-.53-3.47-1.26-5.87-2.2s-4.89-1.9-7.5-2.89l-7.32-2.78-5.42-2.06c-1.43-.53-2.12-1.14-2.05-1.86A.93.93,0,0,1,132.11,715.41Z" style=""/>
  <path d="M123.74,666.5q.89.22,5.81,1.18t12.93,2.69q8,1.74,18.21,4.34l7.05,1.79q10.22,2.61,18.14,4.92t12.7,3.84c3.19,1,5.07,1.6,5.66,1.75q2.77.71,3.85-1.44a18.33,18.33,0,0,0,1.42-4,17.83,17.83,0,0,0,.65-4.16c.05-1.6-.85-2.63-2.69-3.1q-.89-.23-5.54-1.16c-3.11-.63-6.85-1.39-11.22-2.31s-8.75-1.92-13.11-3c-1.85-.47-2.61-1.36-2.27-2.69a40.3,40.3,0,0,0,1-4.58,17,17,0,0,1,.36-2.22c.21-.82,1.19-1.31,2.92-1.47a90.73,90.73,0,0,0,22-4.1A71.87,71.87,0,0,0,218.69,645a7,7,0,0,0,1.42-1.35,4.87,4.87,0,0,0,.88-1.89,6.88,6.88,0,0,0-.33-4.21c-.56-1.48-1.3-2.34-2.23-2.58a3.78,3.78,0,0,0-2.83.59,60.07,60.07,0,0,1-15.26,5.92,150,150,0,0,1-19.58,3.41,10.65,10.65,0,0,1-3.85-.17,3.58,3.58,0,0,1-2.59-2.47q-3.66-10.39-17.64-14-12-3-20.56,2.26t-11.66,17.3q-1.39,5.48-2.28,9.73a34.82,34.82,0,0,0-.84,5.17,4.46,4.46,0,0,0,.48,2.59A3.12,3.12,0,0,0,123.74,666.5Zm9.22-14a16.76,16.76,0,0,1,8-11q6.1-3.48,15.69-1,7.68,2,10.89,6a9.51,9.51,0,0,1,2,8.71,22,22,0,0,1-1.64,4.61,17.65,17.65,0,0,1-2.27,3.35q-1.19,1.5-4.08.77Q156.31,662.42,151,661t-9.6-2.6c-2.84-.79-4.83-1.36-6-1.73a4.83,4.83,0,0,1-2.35-1.3C132.61,654.88,132.59,653.9,133,652.45Z" style=""/>
  <path d="M142.6,601.52q1.18.51,10.73,4t24.1,9.79l6.68,2.89q9.66,4.18,17.06,7.7T213,631.65q4.42,2.24,5.25,2.59a2.92,2.92,0,0,0,3.07,0,8.68,8.68,0,0,0,2.28-3.48q.71-1.61,1.84-4.41l2.46-6c.87-2.13,1.67-4,2.39-5.71,1.17-2.68,2.35-5.32,3.57-7.91s2.29-4.8,3.22-6.63,1.52-3,1.75-3.54a3.66,3.66,0,0,0-1-4.26,26.55,26.55,0,0,0-3.11-2.62,19.18,19.18,0,0,0-3.7-2.24c-1.36-.58-2.25-.37-2.69.64a27.47,27.47,0,0,0-1,4.37q-.61,3.55-2.3,9.73A114.46,114.46,0,0,1,219.62,617q-1.44,3.32-5.73,1.45c-2.15-.93-4.75-2-7.79-3.26l-9.21-3.77q-4.63-1.9-7.85-3.29-2.62-1.14-1.82-3a135.23,135.23,0,0,1,7.17-14.27q2.9-4.74,3.41-5.91a3.74,3.74,0,0,0-1-4.57,17.48,17.48,0,0,0-2.52-2.05,19.24,19.24,0,0,0-3.18-1.8c-1.59-.69-2.67-.37-3.24.94a68.49,68.49,0,0,0-2.14,7.25,130.76,130.76,0,0,1-6.37,17c-.54,1.26-1.65,1.52-3.32.8q-5.13-2.22-11.12-4.92T155.07,593c-1.7-.88-2.31-1.89-1.81-3a107.85,107.85,0,0,1,6.85-13.71,61.2,61.2,0,0,1,4.88-7,16.67,16.67,0,0,0,2.17-2.88c.54-1.26-.06-2.26-1.81-3a31.36,31.36,0,0,0-3.64-1.25,18.71,18.71,0,0,0-3.43-.74c-1.82-.16-3,.43-3.59,1.74-.15.36-.57,1.43-1.25,3.23s-1.44,3.82-2.28,6.08-1.67,4.34-2.49,6.25q-1,2.33-2.42,5.43L143.53,590c-.86,1.9-1.57,3.47-2.11,4.72q-1.32,3-1.08,4.47C140.49,600.16,141.25,600.93,142.6,601.52Z" style=""/>
  <path d="M185.4,517.59q1,.76,9.56,6.31t21.28,15l5.86,4.32q8.49,6.24,14.9,11.33t10.23,8.26c2.53,2.11,4.05,3.35,4.53,3.71a2.92,2.92,0,0,0,3,.63,8.62,8.62,0,0,0,3-2.87c.69-.94,1.62-2.24,2.78-3.88l3.74-5.3q2-2.84,3.62-5c1.74-2.36,3.48-4.66,5.25-6.91s3.31-4.17,4.63-5.74,2.15-2.59,2.5-3.06a3.65,3.65,0,0,0,0-4.37,28,28,0,0,0-2.45-3.26,19.1,19.1,0,0,0-3.11-3c-1.18-.87-2.1-.87-2.76,0a26.63,26.63,0,0,0-1.92,4q-1.4,3.33-4.43,9A113.82,113.82,0,0,1,257,550q-2.15,2.91-5.91.13-2.82-2.08-6.86-4.93l-8.12-5.74c-2.73-1.93-5-3.59-6.92-5-1.53-1.13-1.9-2.25-1.09-3.35a134.11,134.11,0,0,1,10.19-12.29q3.9-4,4.65-5a3.74,3.74,0,0,0,.05-4.68,17,17,0,0,0-2-2.55,18.54,18.54,0,0,0-2.7-2.48c-1.39-1-2.52-1-3.36.19a68.45,68.45,0,0,0-3.72,6.58,132.39,132.39,0,0,1-10,15.14q-1.22,1.65-3.42,0-4.5-3.31-9.73-7.28t-8.56-6.68c-1.46-1.23-1.82-2.35-1.09-3.34a110.26,110.26,0,0,1,9.76-11.83,63.3,63.3,0,0,1,6.33-5.75,16.05,16.05,0,0,0,2.76-2.32c.81-1.1.45-2.21-1.08-3.35a32,32,0,0,0-3.27-2,19.33,19.33,0,0,0-3.17-1.5c-1.75-.55-3-.26-3.89.89-.23.32-.88,1.27-1.95,2.87s-2.26,3.4-3.58,5.41-2.6,3.86-3.84,5.53c-1,1.36-2.19,2.95-3.57,4.75l-4,5.19q-1.91,2.47-3.12,4.12-2,2.67-2.06,4.11C183.65,515.79,184.22,516.71,185.4,517.59Z" style=""/>
  <path d="M236,483.42a26.71,26.71,0,0,0,13.06,7.37q7.11,1.56,17.61-1l6.69-1.64a25.8,25.8,0,0,1,10.95-.61,17.3,17.3,0,0,1,8.66,4.91q4.1,4,4.23,8.49a10.83,10.83,0,0,1-3.39,8.14,25,25,0,0,1-8.33,5.83,39.69,39.69,0,0,1-10.67,2.46c-.68.07-1.39.12-2.15.15a2.31,2.31,0,0,0-1.55.47,1.25,1.25,0,0,0-.21,1.42A4.45,4.45,0,0,0,272,521a27.78,27.78,0,0,0,3.56,2.86,26.78,26.78,0,0,0,3.53,2.16,7.13,7.13,0,0,0,5.38.62,27.34,27.34,0,0,0,6.3-3.19,41,41,0,0,0,7.13-5.91q8.66-8.85,7.36-18.23t-10-17.91a26.34,26.34,0,0,0-12.87-7.19,32.34,32.34,0,0,0-14.72.28l-6.85,1.62c-5.49,1.28-9.89,1.7-13.23,1.26a15,15,0,0,1-8.71-4.29q-3.72-3.63-3.63-7.63a10.46,10.46,0,0,1,3.22-7.21,26.11,26.11,0,0,1,6.71-5.1,27.42,27.42,0,0,1,6.65-2.44,21.06,21.06,0,0,1,3.9-.55,4,4,0,0,0,2.68-.79,1.25,1.25,0,0,0,.26-1.38,3.7,3.7,0,0,0-.94-1.46c-.8-.79-1.75-1.62-2.83-2.49a20.83,20.83,0,0,0-2.92-2,6.16,6.16,0,0,0-5.09-.74,18,18,0,0,0-6.27,3.07,47.53,47.53,0,0,0-6,5.16q-8.17,8.37-7.3,17.34T236,483.42Z" style=""/>
  <path d="M254.85,439.53a24.53,24.53,0,0,0,2.66,4.45c.91,1.15,1.75,1.43,2.52.82a7.17,7.17,0,0,0,1.65-2.47,28.82,28.82,0,0,1,3.53-5.12,57.36,57.36,0,0,1,8.6-8q1.68-1.34,3.38.8,4.37,5.5,8.55,10.64t9.69,12.06l4.52,5.71q6.54,8.25,11.44,14.9t7.78,10.75q2.88,4.11,3.45,4.82a3.21,3.21,0,0,0,3.93,1.19c.41-.21,1-.55,1.69-1a23.52,23.52,0,0,0,2.07-1.48,24,24,0,0,0,1.83-1.61c.61-.59,1.06-1.07,1.37-1.42a3.23,3.23,0,0,0-.27-4.1c-.38-.47-1.67-2-3.87-4.48s-5.08-5.87-8.65-10.06-7.54-9-11.9-14.54l-4.53-5.7q-5.49-6.93-9.53-12.19t-8.4-10.75q-1.69-2.14-.1-3.42a57.4,57.4,0,0,1,8.39-5.73,39,39,0,0,1,5.4-2.46,9.48,9.48,0,0,0,2.66-1.19c.87-.69.94-1.75.23-3.17-.44-.87-1-1.9-1.76-3.08a37.61,37.61,0,0,0-2.48-3.52c-1.07-1.35-2.12-1.63-3.14-.82q-.76.6-2.85,2.67t-6.36,5.79q-4.28,3.72-11.53,9.47-8.32,6.62-14.12,10.45c-3.86,2.56-6.14,4.12-6.86,4.69a2.44,2.44,0,0,0-.7,2.72A22.09,22.09,0,0,0,254.85,439.53Z" style=""/>
  <path d="M305,513.28a333.16,333.16,0,0,0-68.55,96.51c-20.68,44.36-31.16,93.57-31.16,146.26S215.79,858,236.47,902.31A333.16,333.16,0,0,0,305,998.82c49.26,48.58,97.79,68.64,99.84,69.47l1.69.69,1.69-.69c2.05-.83,50.58-20.89,99.84-69.47a333.16,333.16,0,0,0,68.55-96.51c20.68-44.36,31.16-93.57,31.16-146.26s-10.48-101.9-31.16-146.26a333.16,333.16,0,0,0-68.55-96.51c-40.57-40-80.65-60.68-94.67-67.18h66.73a3,3,0,0,0,0-6H333a3,3,0,0,0,0,6h66.72C385.67,452.6,345.59,473.27,305,513.28Zm-7.75,21.16h67V696.61l-109.75-102h0A324.69,324.69,0,0,1,297.27,534.44Zm112,0h43.4a34.2,34.2,0,0,1,33.95,34.38v21.42a34.2,34.2,0,0,1-33.95,34.38h-43.4ZM214.31,756.05c0-45.37,8-84.67,20.47-118.33h0L364.23,758V774.3L240.66,889.16C225,852.39,214.31,808.23,214.31,756.05Zm47.82,174.58,102.1-94.89v199.62a359.09,359.09,0,0,1-53.15-43.2A329,329,0,0,1,262.13,930.63ZM502,992.16c-39.65,39.18-79.76,59.75-92.79,65.83V799.86L550.59,931.25A328.75,328.75,0,0,1,502,992.16Zm70.12-102.31L439.08,766.17,578.05,637c12.59,33.81,20.74,73.35,20.74,119C598.79,808.56,588,853,572.14,889.85ZM502,519.94a327.36,327.36,0,0,1,56.25,74l-149,138.52V656.62h43.4c36.37,0,66-29.78,66-66.38V568.82c0-36.6-29.58-66.38-66-66.38H330.17c36-30.7,68.7-46.15,76.38-49.56C415.57,456.89,459.07,477.5,502,519.94Z" style=""/>
  <path d="M553.62,411c-72.69-59.85-145-82-145.78-82.24l-1.29-.39-1.29.39c-.73.22-73.09,22.39-145.78,82.24-73.26,60.31-160.59,169.12-160.59,345s87.33,284.71,160.59,345c72.69,59.85,145,82,145.78,82.24l1.29.39,1.29-.39c.73-.22,73.09-22.39,145.78-82.24,73.26-60.31,160.59-169.12,160.59-345S626.88,471.34,553.62,411Zm-5.72,683.1C482,1148.39,416.5,1171,406.55,1174.28c-9.95-3.24-75.44-25.89-141.35-80.15-71.76-59.08-157.31-165.69-157.31-338.08S193.44,477.05,265.2,418c65.91-54.26,131.4-76.91,141.35-80.15C416.5,341.06,482,363.71,547.9,418c71.76,59.08,157.31,165.7,157.31,338.08S619.66,1035.05,547.9,1094.13Z" style=""/>
  <path d="M341.91,418.55c10.24,0,17.51-6.15,21.3-10.38,3.79,4.19,10.93,10.13,21,10.13,11.44,0,19-7.59,22.39-11.8,3.35,4.21,11,11.8,22.39,11.8,10,0,17.17-5.94,21-10.13,3.79,4.23,11.05,10.38,21.29,10.38,12.25,0,20.24-8.8,23.1-12.58a2.5,2.5,0,0,0-4-3c-2.42,3.19-9.11,10.6-19.12,10.6s-16.71-7.41-19.14-10.6a2.49,2.49,0,0,0-3.5-.48,2.42,2.42,0,0,0-.91,1.43c-2.85,3.51-9.34,9.9-18.7,9.9-11.42,0-18.59-9.56-20.14-11.84v-18.8h18.82v1.34a2.25,2.25,0,0,0,4.5,0v-7.18a2.25,2.25,0,0,0-4.5,0v1.34H408.8V368.07h7.56a2.25,2.25,0,0,0,0-4.5H396.74a2.25,2.25,0,0,0,0,4.5h7.56v10.59H385.49v-1.34a2.25,2.25,0,1,0-4.5,0v7.18a2.25,2.25,0,0,0,4.5,0v-1.34H404.3V402c-1.54,2.28-8.72,11.84-20.14,11.84-9.36,0-15.84-6.39-18.69-9.9a2.49,2.49,0,0,0-4.42-.95c-2.42,3.19-9.14,10.6-19.14,10.6s-16.7-7.41-19.12-10.6a2.5,2.5,0,1,0-4,3C321.68,409.75,329.67,418.55,341.91,418.55Z" style=""/>
  <circle cx="360.26" cy="391.96" r="6.69" style=""/>
  <circle cx="360.26" cy="426.72" r="6.69" style=""/>
  <circle cx="406.55" cy="426.72" r="6.69" style=""/>
  <path d="M333,437.62a3,3,0,0,0,1.64-3.92L328,417.47a3,3,0,0,0-5.55,2.27L329.11,436a3,3,0,0,0,2.78,1.86A3,3,0,0,0,333,437.62Z" style=""/>
  <path d="M324.27,398.64c1.91,0,3.46-3.14,3.46-7s-1.55-7-3.46-7-3.47,3.14-3.47,7S322.35,398.64,324.27,398.64Z" style=""/>
  <circle cx="452.85" cy="391.96" r="6.69" style=""/>
  <circle cx="452.85" cy="426.72" r="6.69" style=""/>
  <path d="M481.22,437.84A3,3,0,0,0,484,436l6.65-16.24a3,3,0,0,0-5.56-2.27l-6.65,16.23a3,3,0,0,0,1.64,3.92A3.08,3.08,0,0,0,481.22,437.84Z" style=""/>
  <path d="M488.84,398.64c1.91,0,3.46-3.14,3.46-7s-1.55-7-3.46-7-3.46,3.14-3.46,7S486.93,398.64,488.84,398.64Z" style=""/>
  <path d="M602,993.82c-16.78,34.43-37.7,58-41.5,61.15s-5.87,5-4.22.8c13.37-32.88,13.81-69.06,13-73.51s-3.34-6-3.58-2.32-1.66,18.6-8.8,43.51-21.94,39.37-24.67,42.8-7.28,5.41-5.29.13,11.07-37,9.84-58.23-6.51-20.8-6.44-18-1.84,25.47-12,58.36S482,1103.65,477.5,1107.2s-10.78,6.1-8.05,2.26c29.06-36.46,31.63-73.87,31.78-81.78s-3-7.58-3.59-4.13-7.81,40.39-43.22,77.35-75.18,53.74-78.67,55.2,7.63,8.75,12.47,6.57c45.42-14.87,107-37.71,152.44-72.28S605.56,993,605.56,993C606.83,989.24,604,990.19,602,993.82Z" style=""/>
  <path d="M401.93,1136.71a252,252,0,0,1-43.25-35.81c-35.4-37-42.6-73.9-43.22-77.35s-3.75-3.78-3.59,4.13,2.72,45.32,31.79,81.78c2.72,3.84-3.56,1.28-8.06-2.26s-30.74-25.85-40.85-58.74-12-55.61-11.95-58.36-5.21-3.22-6.44,18,7.85,52.95,9.83,58.23-2.55,3.29-5.28-.13-17.54-17.88-24.68-42.8-8.55-39.88-8.79-43.51-2.77-2.12-3.59,2.32-.38,40.63,13,73.51c1.66,4.16-.41,2.39-4.21-.8s-24.73-26.72-41.5-61.15c-2-3.62-4.85-4.58-3.59-.86,0,0,19.53,62.86,64.91,97.43,32.25,24.57,72.7,43.21,109.72,57.28C387.25,1145.17,394.08,1141.56,401.93,1136.71Z" style=""/>
  <path d="M437.35,1156.1c-.74-.31-3.07-1.29-6.64-3-5.63,2.12-11.15,4.13-16.51,6q5.48,1.85,10.69,3.55C429.73,1164.85,440.84,1157.57,437.35,1156.1Z" style=""/>
</svg>