<?xml version="1.0" encoding="utf-8"?>
<svg viewBox="-54.402 -112.503 634.642 867.047" xmlns="http://www.w3.org/2000/svg">
  <path d="M 262.992 746.419 L 261.992 746.119 C 261.272 745.899 188.832 723.569 116.562 664.119 C 43.472 603.939 -43.658 495.369 -43.658 319.869 C -43.658 144.369 43.462 35.769 116.552 -24.431 C 188.902 -84.001 261.262 -106.271 261.982 -106.481 L 262.982 -106.791 L 263.982 -106.481 C 264.702 -106.271 337.062 -84.001 409.412 -24.431 C 482.502 35.739 569.642 144.309 569.642 319.819 C 569.642 495.329 482.502 603.889 409.412 664.069 C 337.142 723.569 264.702 745.899 263.982 746.069 L 262.992 746.419 Z M 262.992 15.559 L 262.582 15.739 C 254.172 19.469 210.042 40.289 166.812 82.999 C 122.532 126.769 69.792 203.379 69.792 319.819 C 69.792 367.649 78.792 412.819 96.522 454.009 C 102.692 468.365 109.915 482.247 118.132 495.539 C 131.872 517.762 148.207 538.273 166.792 556.639 C 207.002 596.369 248.192 617.219 259.862 622.639 L 262.552 623.869 L 262.962 624.059 L 263.372 623.869 C 269.292 621.239 285.262 613.629 305.842 599.929 C 324.951 587.224 342.799 572.717 359.142 556.609 C 403.422 512.839 456.212 436.219 456.212 319.789 C 456.212 277.929 449.302 238.009 435.672 201.109 C 430.178 186.217 423.573 171.76 415.912 157.859 C 403.943 136.178 389.544 115.93 372.992 97.509 C 368.432 92.429 363.772 87.509 359.142 82.969 C 353.012 76.919 346.572 70.969 339.992 65.419 C 304.292 34.999 272.322 19.679 263.372 15.709 L 262.992 15.559 Z" style="fill: none;"/>
  <path d="M 433.072 466.079 C 453.752 421.719 464.232 372.509 464.232 319.819 C 464.232 267.129 453.752 217.919 433.072 173.559 C 416.166 137.555 392.95 104.869 364.522 77.049 C 323.952 37.049 283.872 16.369 269.852 9.869 C 268.032 9.019 266.642 8.409 265.762 8.029 L 264.682 7.579 L 262.992 6.889 L 261.302 7.579 L 260.222 8.029 C 259.342 8.409 257.952 9.029 256.132 9.869 C 242.132 16.369 202.032 37.039 161.462 77.049 C 133.034 104.869 109.818 137.555 92.912 173.559 C 72.232 217.919 61.792 267.129 61.792 319.819 C 61.792 372.509 72.232 421.769 92.912 466.079 C 109.818 502.083 133.034 534.769 161.462 562.589 C 210.722 611.169 259.252 631.229 261.302 632.059 L 262.992 632.749 L 264.682 632.059 C 266.682 631.229 315.262 611.169 364.522 562.589 C 392.95 534.769 416.166 502.083 433.072 466.079 Z M 428.922 452.819 L 305.462 338.069 L 305.312 337.929 L 305.312 321.769 L 434.792 201.489 C 447.222 235.149 455.262 274.489 455.262 319.819 C 455.232 371.949 444.612 416.069 428.922 452.819 Z M 260.312 188.389 L 217.062 188.389 C 198.201 188.251 183.012 172.87 183.112 154.009 L 183.112 132.589 C 183.012 113.728 198.201 98.346 217.062 98.209 L 260.312 98.209 L 260.312 188.389 Z M 415.062 158.389 L 305.312 260.389 L 305.312 98.209 L 372.312 98.209 C 388.816 116.57 403.172 136.754 415.102 158.369 L 415.062 158.389 Z M 167.522 83.709 C 210.522 41.269 253.972 20.659 262.992 16.649 C 270.672 20.059 303.332 35.509 339.372 66.209 L 217.062 66.209 C 180.692 66.209 151.112 95.989 151.112 132.589 L 151.112 154.009 C 151.112 190.609 180.692 220.389 217.062 220.389 L 260.312 220.389 L 260.312 296.109 L 111.312 157.629 C 126.439 130.441 145.366 105.551 167.522 83.709 Z M 70.792 319.819 C 70.792 274.069 78.962 234.499 91.562 200.659 L 230.562 329.869 L 230.492 329.939 L 97.392 453.619 C 81.512 416.769 70.792 372.329 70.792 319.819 Z M 118.992 495.019 L 260.352 363.629 L 260.352 621.769 C 247.352 615.689 207.212 595.119 167.562 555.939 C 149 537.631 132.682 517.181 118.952 495.019 L 118.992 495.019 Z M 358.502 555.929 C 342.202 571.989 324.405 586.455 305.352 599.129 L 305.352 399.369 L 305.502 399.509 L 407.502 494.309 C 393.679 516.736 377.215 537.424 358.462 555.929 L 358.502 555.929 Z" style=""/>
  <path d="M 408.932 -26.461 C 336.242 -86.311 263.882 -108.461 263.152 -108.701 L 261.862 -109.091 L 260.572 -108.701 C 259.842 -108.481 187.482 -86.311 114.792 -26.461 C 41.532 33.849 -45.798 142.659 -45.798 318.539 C -45.798 494.419 41.532 603.249 114.792 663.539 C 187.482 723.389 259.792 745.539 260.572 745.779 L 261.862 746.169 L 263.152 745.779 C 263.882 745.559 336.242 723.389 408.932 663.539 C 482.192 603.229 569.522 494.419 569.522 318.539 C 569.522 142.659 482.192 33.849 408.932 -26.461 Z M 403.212 656.639 C 337.302 710.899 271.812 733.549 261.862 736.789 C 251.862 733.549 186.422 710.899 120.512 656.639 C 48.792 597.559 -36.798 490.949 -36.798 318.559 C -36.798 146.169 48.752 39.559 120.512 -19.521 C 186.422 -73.781 251.912 -96.431 261.862 -99.671 C 271.862 -96.431 337.302 -73.781 403.212 -19.521 C 474.972 39.559 560.522 146.179 560.522 318.559 C 560.522 490.939 474.972 597.559 403.212 656.639 Z" style=""/>
  <path d="M 288.922 14.399 C 289.492 14.796 290.087 15.156 290.702 15.479 C 291.207 15.749 291.74 15.964 292.292 16.119 C 292.754 16.238 293.24 16.238 293.702 16.119 C 294.362 15.868 294.956 15.471 295.442 14.959 L 300.142 10.709 C 302.142 8.895 304.352 6.979 306.772 4.959 C 309.192 2.939 311.442 1.075 313.522 -0.631 C 314.179 -1.177 314.932 -1.594 315.742 -1.861 C 316.526 -1.978 317.325 -1.788 317.972 -1.331 C 318.902 -0.781 320.332 0.139 322.232 1.419 C 324.132 2.699 326.162 4.029 328.292 5.419 C 330.422 6.809 332.292 8.029 333.882 9.089 C 335.472 10.149 336.452 10.809 336.792 11.089 C 337.574 11.505 338.114 12.264 338.252 13.139 C 338.234 14.163 338.045 15.177 337.692 16.139 C 337.372 17.192 336.865 18.715 336.172 20.709 C 335.479 22.702 334.722 24.842 333.902 27.129 C 333.082 29.419 332.292 31.589 331.512 33.639 C 330.732 35.689 330.112 37.279 329.642 38.429 C 329.261 39.243 329.102 40.143 329.182 41.039 C 329.333 41.803 329.717 42.502 330.282 43.039 C 330.705 43.459 331.152 43.853 331.622 44.219 C 332.182 44.659 332.732 45.079 333.292 45.469 C 333.96 45.933 334.651 46.364 335.362 46.759 C 336.072 47.149 336.672 47.459 337.172 47.759 C 338.541 48.455 340.216 47.937 340.952 46.589 C 341.488 45.649 341.892 44.639 342.152 43.589 C 342.612 42.059 343.062 40.489 343.512 38.909 C 344.459 35.575 345.705 31.345 347.252 26.219 C 348.799 21.092 350.555 15.549 352.522 9.589 C 354.475 3.589 356.475 -2.411 358.522 -8.411 C 360.569 -14.411 362.492 -19.995 364.292 -25.161 C 366.132 -30.321 367.685 -34.575 368.952 -37.921 C 369.662 -39.751 369.462 -41.061 368.352 -41.831 C 367.088 -42.567 365.685 -43.033 364.232 -43.201 C 362.606 -43.52 360.948 -43.644 359.292 -43.571 C 358.077 -43.474 356.881 -43.219 355.732 -42.811 C 354.351 -42.255 353.088 -41.441 352.012 -40.411 C 349.659 -38.351 346.552 -35.768 342.692 -32.661 C 338.832 -29.555 334.522 -26.168 329.762 -22.501 C 325.022 -18.841 320.172 -15.151 315.212 -11.431 C 310.252 -7.711 305.512 -4.178 300.992 -0.831 C 296.459 2.502 292.459 5.399 288.992 7.859 C 288.187 8.356 287.462 8.973 286.842 9.689 C 286.102 10.759 286.012 11.689 286.582 12.359 C 287.27 13.138 288.056 13.824 288.922 14.399 Z M 325.312 -9.491 C 325.605 -9.863 325.94 -10.199 326.312 -10.491 C 326.742 -10.871 327.242 -11.291 327.802 -11.741 C 329.035 -12.795 330.662 -14.128 332.682 -15.741 C 334.682 -17.341 336.812 -19.011 338.992 -20.741 L 345.092 -25.671 L 349.632 -29.321 C 350.812 -30.321 351.702 -30.571 352.312 -30.141 C 352.633 -29.917 352.793 -29.526 352.722 -29.141 C 352.631 -28.569 352.487 -28.007 352.292 -27.461 C 351.972 -26.411 351.452 -24.821 350.742 -22.671 C 350.032 -20.521 349.212 -18.131 348.312 -15.491 C 347.412 -12.851 346.522 -10.231 345.672 -7.651 C 344.822 -5.071 344.042 -2.821 343.342 -0.871 C 342.989 0.266 342.48 1.35 341.832 2.349 C 341.085 3.415 340.325 3.675 339.552 3.129 C 339.102 2.819 338.202 2.129 336.842 1.129 L 332.432 -2.111 C 330.852 -3.271 329.432 -4.331 328.102 -5.301 C 326.772 -6.271 325.952 -6.881 325.562 -7.161 C 324.682 -7.711 324.612 -8.491 325.312 -9.491 Z" style=""/>
  <path d="M 351.442 46.619 C 349.002 48.905 347.579 50.272 347.172 50.719 C 345.862 52.109 345.682 53.479 346.622 54.849 C 347.469 56.042 348.445 57.138 349.532 58.119 C 350.574 59.145 351.728 60.05 352.972 60.819 C 354.392 61.679 355.762 61.419 357.062 60.029 C 357.482 59.589 358.712 58.159 360.752 55.739 C 362.792 53.319 365.269 50.412 368.182 47.019 C 371.089 43.632 374.089 40.299 377.182 37.019 C 378.515 35.632 379.685 35.425 380.692 36.399 C 381.857 37.531 383.086 38.596 384.372 39.589 C 385.014 40.034 385.625 40.522 386.202 41.049 C 386.842 41.649 386.822 42.759 386.142 44.369 C 382.967 51.228 380.676 58.462 379.322 65.899 C 378.124 72.156 377.751 78.544 378.212 84.899 C 378.298 85.568 378.479 86.221 378.752 86.839 C 379.052 87.502 379.488 88.095 380.032 88.579 C 381.145 89.591 382.541 90.24 384.032 90.439 C 385.632 90.699 386.762 90.489 387.422 89.789 C 388.061 89.004 388.357 87.994 388.242 86.989 C 388.122 81.433 388.771 75.887 390.172 70.509 C 391.829 64.043 393.917 57.695 396.422 51.509 C 396.877 50.294 397.556 49.174 398.422 48.209 C 399.306 47.268 400.633 46.884 401.882 47.209 C 409.302 48.589 416.302 45.779 422.882 38.779 C 428.522 32.779 431.112 26.349 430.652 19.489 C 430.192 12.629 426.832 6.259 420.572 0.379 C 417.725 -2.288 415.159 -4.621 412.872 -6.621 C 411.54 -7.859 410.112 -8.989 408.602 -10.001 C 407.857 -10.548 406.966 -10.861 406.042 -10.901 C 405.255 -10.81 404.536 -10.411 404.042 -9.791 C 403.622 -9.351 402.345 -7.845 400.212 -5.271 C 398.079 -2.698 395.212 0.635 391.612 4.729 C 388.025 8.849 383.825 13.465 379.012 18.579 L 374.012 23.879 C 369.205 28.999 364.842 33.492 360.922 37.359 C 357.002 41.225 353.842 44.312 351.442 46.619 Z M 388.442 24.979 C 390.942 22.312 393.465 19.645 396.012 16.979 C 398.559 14.312 400.865 11.932 402.932 9.839 C 405.005 7.739 406.479 6.269 407.352 5.429 C 407.966 4.745 408.765 4.255 409.652 4.019 C 410.302 3.919 411.192 4.399 412.332 5.469 C 416.272 9.169 418.315 13.409 418.462 18.189 C 418.609 22.969 416.425 27.759 411.912 32.559 C 408.279 36.412 404.755 38.602 401.342 39.129 C 398.141 39.724 394.85 38.725 392.522 36.449 C 391.261 35.305 390.125 34.031 389.132 32.649 C 388.354 31.485 387.704 30.241 387.192 28.939 C 386.699 27.759 387.132 26.439 388.492 24.979 L 388.442 24.979 Z" style=""/>
  <path d="M 403.202 80.639 C 399.527 86.398 397.593 93.096 397.632 99.929 C 397.802 106.689 400.009 113.242 403.962 118.729 C 406.029 121.819 408.46 124.649 411.202 127.159 C 413.805 129.433 416.769 131.258 419.972 132.559 C 421.746 133.305 423.722 133.422 425.572 132.889 C 427.024 132.572 428.431 132.079 429.762 131.419 C 430.983 130.84 432.16 130.171 433.282 129.419 C 434.352 128.679 434.642 127.949 434.142 127.229 C 433.897 126.919 433.535 126.724 433.142 126.689 C 432.662 126.609 432.142 126.519 431.542 126.439 C 428.18 126.129 424.906 125.189 421.892 123.669 C 419.338 122.185 417.162 120.132 415.532 117.669 C 412.131 112.997 410.433 107.3 410.722 101.529 C 411.155 95.555 413.232 89.817 416.722 84.949 C 420.818 79.13 425.958 74.121 431.882 70.179 C 440.375 64.325 448.042 61.305 454.882 61.119 C 461.722 60.932 466.992 63.539 470.692 68.939 C 472.917 72.119 474.581 75.657 475.612 79.399 C 476.577 82.919 477.042 86.558 476.992 90.209 C 477.032 91.276 477.005 92.345 476.912 93.409 C 476.767 94.118 476.859 94.856 477.172 95.509 C 477.5 95.966 478.056 96.201 478.612 96.119 C 479.357 96.039 480.068 95.763 480.672 95.319 C 481.452 94.769 482.352 94.089 483.362 93.319 C 484.252 92.608 485.097 91.843 485.892 91.029 C 487.728 89.229 488.597 86.663 488.232 84.119 C 487.714 81.315 486.885 78.579 485.762 75.959 C 484.492 72.756 482.865 69.707 480.912 66.869 C 477.034 60.945 471.365 56.414 464.732 53.939 C 457.939 51.589 450.619 51.215 443.622 52.859 C 435.995 54.472 428.219 58.005 420.292 63.459 C 412.719 68.625 407.022 74.352 403.202 80.639 Z" style=""/>
  <path d="M 467.052 123.669 L 460.442 126.669 C 454.062 129.595 448.329 132.119 443.242 134.239 C 438.155 136.359 434.055 138.025 430.942 139.239 C 427.822 140.452 425.989 141.182 425.442 141.429 C 423.965 141.972 423.095 143.501 423.382 145.049 C 423.502 145.519 423.712 146.169 424.002 147.049 C 424.294 147.882 424.627 148.699 425.002 149.499 C 425.356 150.269 425.75 151.02 426.182 151.749 C 426.622 152.509 426.982 153.089 427.262 153.489 C 428.252 154.709 429.975 155.046 431.352 154.289 C 431.902 154.029 433.652 153.119 436.592 151.539 C 439.532 149.959 443.392 147.969 448.152 145.539 C 452.912 143.109 458.322 140.539 464.382 137.739 C 466.122 136.949 467.292 137.219 467.912 138.569 C 468.732 140.349 469.802 142.619 471.112 145.359 C 472.422 148.099 473.822 151.019 475.332 154.079 C 476.842 157.139 478.262 160.079 479.612 162.939 C 480.962 165.799 482.092 168.179 483.002 170.139 C 483.622 171.489 483.062 172.569 481.332 173.359 C 475.192 176.185 469.599 178.645 464.552 180.739 C 459.505 182.832 455.425 184.499 452.312 185.739 C 449.192 186.952 447.355 187.682 446.802 187.929 C 445.347 188.498 444.506 190.025 444.802 191.559 C 444.922 192.019 445.122 192.669 445.412 193.559 C 445.702 194.449 446.032 195.209 446.412 196.009 C 446.792 196.809 447.152 197.489 447.592 198.259 C 448.032 199.029 448.402 199.599 448.672 199.989 C 449.658 201.217 451.386 201.555 452.762 200.789 C 453.309 200.542 455.059 199.625 458.012 198.039 C 460.952 196.469 464.892 194.439 469.802 191.949 C 474.712 189.459 480.372 186.759 486.742 183.829 L 493.362 180.829 C 499.742 177.902 505.472 175.379 510.552 173.259 C 515.632 171.139 519.735 169.472 522.862 168.259 C 525.969 167.045 527.802 166.312 528.362 166.059 C 529.815 165.493 530.657 163.97 530.362 162.439 C 530.277 161.749 530.091 161.075 529.812 160.439 C 529.482 159.619 529.152 158.849 528.812 158.109 C 528.472 157.369 528.062 156.519 527.652 155.739 C 527.354 155.121 526.97 154.549 526.512 154.039 C 525.526 152.81 523.798 152.472 522.422 153.239 C 521.869 153.492 520.202 154.369 517.422 155.869 C 514.642 157.369 511.202 159.175 507.102 161.289 C 503.015 163.389 498.765 165.452 494.352 167.479 C 492.699 168.239 491.562 167.942 490.942 166.589 C 490.072 164.689 488.992 162.299 487.722 159.429 L 483.722 150.429 L 479.772 141.529 C 478.542 138.749 477.512 136.469 476.702 134.689 C 476.102 133.402 476.632 132.375 478.292 131.609 C 482.619 129.609 486.872 127.765 491.052 126.079 C 495.232 124.392 498.795 122.959 501.742 121.779 C 504.682 120.612 506.429 119.902 506.982 119.649 C 508.46 119.101 509.33 117.569 509.042 116.019 C 508.954 115.329 508.769 114.656 508.492 114.019 C 508.162 113.199 507.822 112.419 507.492 111.689 C 507.162 110.959 506.732 110.099 506.332 109.319 C 506.032 108.697 505.645 108.121 505.182 107.609 C 504.197 106.386 502.476 106.048 501.102 106.809 C 500.542 107.062 498.792 107.979 495.852 109.559 C 492.912 111.139 488.979 113.169 484.052 115.649 C 479.105 118.062 473.439 120.735 467.052 123.669 Z" style=""/>
  <path d="M 515.432 190.389 C 510.252 192.269 504.322 194.269 497.642 196.389 L 490.712 198.619 C 484.045 200.772 478.045 202.592 472.712 204.079 C 467.379 205.565 463.109 206.725 459.902 207.559 C 456.662 208.385 454.752 208.895 454.172 209.089 C 452.643 209.455 451.6 210.87 451.702 212.439 C 451.762 212.909 451.892 213.579 452.072 214.439 C 452.252 215.299 452.492 216.149 452.762 216.989 C 453.032 217.829 453.312 218.549 453.662 219.359 C 454.012 220.169 454.302 220.789 454.532 221.209 C 455.363 222.569 457.066 223.114 458.532 222.489 C 459.105 222.309 460.952 221.609 464.072 220.389 C 467.192 219.169 471.332 217.629 476.492 215.769 C 481.672 213.895 487.602 211.895 494.282 209.769 L 501.212 207.539 C 507.879 205.392 513.879 203.572 519.212 202.079 C 524.545 200.585 528.815 199.425 532.022 198.599 C 535.262 197.769 537.162 197.259 537.742 197.079 C 539.273 196.716 540.318 195.299 540.212 193.729 C 540.205 193.051 540.101 192.377 539.902 191.729 C 539.672 190.879 539.442 190.069 539.192 189.289 C 538.942 188.509 538.632 187.629 538.322 186.799 C 538.1 186.148 537.787 185.532 537.392 184.969 C 536.553 183.619 534.859 183.076 533.392 183.689 C 532.812 183.882 530.965 184.582 527.852 185.789 C 524.739 186.995 520.599 188.529 515.432 190.389 Z" style=""/>
  <path d="M 520.792 215.139 C 515.799 216.345 511.276 219.004 507.792 222.779 C 504.505 226.425 501.839 231.812 499.792 238.939 L 497.862 245.759 C 496.926 249.428 495.222 252.857 492.862 255.819 C 490.563 258.317 487.561 260.06 484.252 260.819 C 480.572 261.812 477.405 261.545 474.752 260.019 C 472.028 258.401 470.093 255.731 469.402 252.639 C 468.41 249.222 468.107 245.643 468.512 242.109 C 469.091 238.381 470.178 234.751 471.742 231.319 C 472.012 230.689 472.332 230.029 472.682 229.319 C 472.994 228.836 473.125 228.259 473.052 227.689 C 472.93 227.147 472.475 226.744 471.922 226.689 C 471.28 226.573 470.619 226.607 469.992 226.789 C 468.524 227.204 467.096 227.746 465.722 228.409 C 464.457 228.976 463.239 229.645 462.082 230.409 C 460.455 231.402 459.287 232.998 458.832 234.849 C 458.399 237.256 458.268 239.709 458.442 242.149 C 458.612 245.365 459.132 248.554 459.992 251.659 C 462.225 259.945 466.269 265.385 472.122 267.979 C 477.975 270.572 484.839 270.805 492.712 268.679 C 497.6 267.459 502.021 264.826 505.422 261.109 C 508.78 257.309 511.222 252.79 512.562 247.899 L 514.562 240.899 C 516.212 235.339 518.062 231.209 520.112 228.479 C 522.106 225.794 524.962 223.877 528.202 223.049 C 531.535 222.149 534.352 222.442 536.652 223.929 C 539.006 225.493 540.667 227.903 541.292 230.659 C 542.099 233.482 542.456 236.414 542.352 239.349 C 542.252 241.794 541.842 244.217 541.132 246.559 C 540.756 247.855 540.26 249.114 539.652 250.319 C 539.111 251.146 538.877 252.137 538.992 253.119 C 539.109 253.64 539.534 254.037 540.062 254.119 C 540.637 254.247 541.235 254.23 541.802 254.069 C 542.882 253.779 544.082 253.389 545.392 252.899 C 546.51 252.492 547.59 251.991 548.622 251.399 C 550.243 250.563 551.413 249.056 551.822 247.279 C 552.429 244.923 552.592 242.474 552.302 240.059 C 552.014 237.357 551.512 234.682 550.802 232.059 C 548.689 224.225 544.895 218.965 539.422 216.279 C 533.949 213.592 527.739 213.212 520.792 215.139 Z" style=""/>
  <path d="M 535.322 278.349 C 527.315 275.221 518.778 273.672 510.182 273.789 C 502.416 273.632 494.703 275.107 487.542 278.119 C 481.251 280.723 475.779 284.976 471.702 290.429 C 467.8 295.792 465.744 302.277 465.842 308.909 C 465.842 316.749 467.899 323.482 472.012 329.109 C 476.416 334.94 482.363 339.422 489.182 342.049 C 497.186 345.188 505.725 346.737 514.322 346.609 C 522.108 346.781 529.843 345.308 537.022 342.289 C 543.282 339.664 548.726 335.414 552.792 329.979 C 556.693 324.615 558.749 318.13 558.652 311.499 C 558.652 303.645 556.595 296.909 552.482 291.289 C 548.081 285.459 542.137 280.977 535.322 278.349 Z M 543.792 321.769 C 540.305 325.769 535.502 328.895 529.382 331.149 C 522.504 333.509 515.262 334.63 507.992 334.459 C 497.852 334.419 489.885 332.462 484.092 328.589 C 478.299 324.715 475.419 319.442 475.452 312.769 C 475.413 307.59 477.282 302.578 480.702 298.689 C 484.182 294.649 489.005 291.509 495.172 289.269 C 502.074 286.908 509.339 285.784 516.632 285.949 C 526.685 285.989 534.609 287.965 540.402 291.879 C 546.195 295.792 549.079 301.025 549.052 307.579 C 549.123 312.798 547.248 317.857 543.792 321.769 Z" style=""/>
  <path d="M 552.402 356.299 C 551.802 356.239 549.852 356.149 546.552 356.029 C 543.252 355.909 538.875 355.685 533.422 355.359 C 527.969 355.025 521.749 354.522 514.762 353.849 L 507.522 353.139 C 500.529 352.472 494.325 351.765 488.912 351.019 C 483.499 350.272 479.165 349.645 475.912 349.139 C 472.652 348.619 470.719 348.329 470.112 348.269 C 468.112 348.069 466.932 348.809 466.502 350.459 C 466.222 351.585 465.812 354.025 465.272 357.779 C 464.732 361.532 464.189 366.199 463.642 371.779 C 462.835 380.119 463.985 387.532 467.092 394.019 C 470.241 400.569 475.249 406.047 481.492 409.769 C 487.979 413.769 495.882 416.222 505.202 417.129 C 519.202 418.462 530.535 415.762 539.202 409.029 C 547.869 402.295 552.915 391.649 554.342 377.089 C 554.612 374.259 554.832 371.569 554.992 368.999 C 555.152 366.429 555.282 364.279 555.362 362.519 C 555.442 361.401 555.465 360.279 555.432 359.159 C 555.388 357.531 554.03 356.248 552.402 356.299 Z M 545.262 374.649 C 544.775 380.769 542.708 386.657 539.262 391.739 C 535.821 396.618 530.997 400.356 525.412 402.469 C 519.519 404.809 512.435 405.575 504.162 404.769 C 496.049 403.982 489.612 402.335 484.852 399.829 C 480.092 397.322 476.759 394.112 474.852 390.199 C 472.914 385.927 472.201 381.202 472.792 376.549 C 472.988 374.878 473.302 373.224 473.732 371.599 C 474.111 369.969 474.595 368.366 475.182 366.799 C 475.586 365.381 476.55 364.19 477.852 363.499 C 479.493 362.864 481.267 362.65 483.012 362.879 C 484.212 362.999 486.092 363.139 488.642 363.329 L 497.202 363.959 C 500.362 364.199 503.442 364.459 506.462 364.759 L 513.582 365.449 C 517.582 365.842 521.482 366.239 525.282 366.639 C 529.082 367.039 532.465 367.422 535.432 367.789 C 538.352 368.142 540.459 368.415 541.752 368.609 C 542.794 368.782 543.738 369.325 544.412 370.139 C 545.202 370.989 545.472 372.499 545.262 374.649 Z" style=""/>
  <path d="M 532.132 462.139 C 531.718 460.99 531.149 459.904 530.442 458.909 C 529.546 457.721 528.425 456.722 527.142 455.969 C 524.535 454.249 521.202 451.945 517.142 449.059 C 513.082 446.172 508.665 442.929 503.892 439.329 C 499.092 435.742 494.235 432.075 489.322 428.329 C 484.409 424.582 479.742 420.962 475.322 417.469 C 470.895 413.995 467.035 410.932 463.742 408.279 C 463.044 407.639 462.256 407.107 461.402 406.699 C 460.182 406.269 459.302 406.419 458.762 407.159 C 458.166 408.039 457.689 408.994 457.342 409.999 C 457.114 410.653 456.927 411.321 456.782 411.999 C 456.652 412.559 456.588 413.133 456.592 413.709 C 456.588 414.183 456.705 414.651 456.932 415.069 C 457.349 415.639 457.894 416.105 458.522 416.429 L 463.872 419.829 C 466.165 421.282 468.605 422.895 471.192 424.669 C 473.779 426.442 476.175 428.109 478.382 429.669 C 479.082 430.157 479.686 430.77 480.162 431.479 C 480.484 432.202 480.517 433.022 480.252 433.769 C 479.972 434.769 479.472 436.429 478.742 438.609 C 478.012 440.789 477.282 443.099 476.522 445.519 C 475.762 447.939 475.072 450.059 474.522 451.889 C 473.972 453.719 473.522 454.829 473.422 455.209 C 473.233 456.087 472.645 456.826 471.832 457.209 C 470.833 457.462 469.799 457.55 468.772 457.469 C 467.682 457.469 466.082 457.359 463.972 457.229 L 457.172 456.769 C 454.752 456.589 452.452 456.409 450.262 456.209 C 448.072 456.009 446.372 455.839 445.142 455.689 C 444.255 455.54 443.343 455.63 442.502 455.949 C 441.824 456.301 441.269 456.853 440.912 457.529 C 440.623 458.051 440.363 458.588 440.132 459.139 C 439.862 459.799 439.602 460.439 439.382 461.079 C 439.113 461.846 438.882 462.627 438.692 463.419 C 438.502 464.209 438.362 464.879 438.262 465.419 C 437.962 466.924 438.908 468.396 440.402 468.749 C 441.464 469.012 442.558 469.126 443.652 469.089 C 445.252 469.089 446.882 469.089 448.532 469.149 C 452.012 469.149 456.422 469.215 461.762 469.349 C 467.102 469.482 472.912 469.685 479.192 469.959 C 485.472 470.245 491.772 470.552 498.092 470.879 C 504.412 471.205 510.305 471.565 515.772 471.959 C 521.239 472.339 525.755 472.695 529.322 473.029 C 531.322 473.209 532.482 472.669 532.932 471.399 C 533.297 469.981 533.368 468.505 533.142 467.059 C 533.004 465.384 532.665 463.732 532.132 462.139 Z M 517.242 459.029 C 517.113 459.402 516.776 459.665 516.382 459.699 C 515.807 459.752 515.227 459.752 514.652 459.699 C 513.552 459.699 511.882 459.599 509.652 459.489 L 502.082 459.069 C 499.282 458.909 496.529 458.762 493.822 458.629 C 491.115 458.495 488.732 458.355 486.672 458.209 C 485.476 458.174 484.292 457.972 483.152 457.609 C 481.932 457.179 481.472 456.519 481.792 455.609 C 481.972 455.099 482.362 454.059 482.962 452.479 L 484.912 447.359 C 485.602 445.519 486.242 443.849 486.822 442.359 C 487.402 440.869 487.822 439.869 487.922 439.419 C 488.262 438.469 489.002 438.189 490.152 438.589 C 490.581 438.761 490.99 438.979 491.372 439.239 C 491.852 439.549 492.372 439.919 492.982 440.339 C 494.315 441.245 496.022 442.459 498.102 443.979 C 500.182 445.499 502.362 447.075 504.642 448.709 L 511.022 453.269 L 515.762 456.659 C 516.982 457.539 517.482 458.329 517.242 459.029 Z" style=""/>
  <path d="M 510.532 511.399 C 509.992 511.129 508.182 510.399 505.102 509.039 C 502.022 507.679 497.972 505.949 492.952 503.689 C 487.932 501.429 482.282 498.689 475.952 495.599 L 469.432 492.359 C 463.145 489.239 457.622 486.382 452.862 483.789 C 448.102 481.195 444.292 479.075 441.432 477.429 C 438.572 475.775 436.869 474.815 436.322 474.549 C 435.403 473.949 434.24 473.862 433.242 474.319 C 432.432 474.779 431.562 475.959 430.632 477.829 C 430.452 478.199 430.032 479.139 429.372 480.659 C 428.712 482.179 427.922 483.919 426.992 485.879 C 426.062 487.839 425.202 489.629 424.392 491.259 C 422.192 495.679 420.192 499.345 418.392 502.259 C 416.602 505.179 415.322 507.399 414.572 508.909 C 413.935 510.093 414.073 511.545 414.922 512.589 C 415.988 513.991 417.198 515.278 418.532 516.429 C 419.636 517.439 420.858 518.312 422.172 519.029 C 423.412 519.639 424.282 519.469 424.762 518.499 C 425.285 517.157 425.641 515.757 425.822 514.329 C 426.37 511.441 427.105 508.591 428.022 505.799 C 429.602 501.087 431.541 496.504 433.822 492.089 C 434.162 491.18 434.899 490.477 435.822 490.179 C 437.006 490.072 438.195 490.327 439.232 490.909 C 442.372 492.389 446.145 494.152 450.552 496.199 C 454.959 498.245 459.539 500.435 464.292 502.769 L 470.812 506.009 C 477.092 509.135 482.652 512.012 487.492 514.639 C 492.332 517.265 496.202 519.415 499.102 521.089 C 501.995 522.755 503.715 523.725 504.262 523.999 C 505.615 524.799 507.349 524.513 508.372 523.319 C 508.834 522.831 509.228 522.282 509.542 521.689 C 509.952 520.959 510.362 520.189 510.752 519.409 C 511.142 518.629 511.472 517.899 511.842 517.059 C 512.151 516.427 512.364 515.753 512.472 515.059 C 512.796 513.53 511.979 511.989 510.532 511.399 Z" style=""/>
  <path d="M 480.562 564.239 C 480.052 563.899 478.352 562.899 475.462 561.239 C 472.572 559.579 468.772 557.239 464.082 554.409 C 459.392 551.579 454.082 548.159 448.262 544.269 L 442.202 540.269 C 436.349 536.389 431.189 532.842 426.722 529.629 C 422.255 526.415 418.685 523.795 416.012 521.769 C 413.342 519.769 411.752 518.579 411.252 518.239 C 410.013 517.268 408.253 517.336 407.092 518.399 C 406.752 518.739 406.312 519.259 405.752 519.939 C 405.192 520.619 404.672 521.329 404.182 522.069 C 403.713 522.772 403.283 523.499 402.892 524.249 C 402.472 525.029 402.172 525.639 401.982 526.079 C 401.464 527.563 402.083 529.205 403.452 529.979 C 403.962 530.319 405.652 531.319 408.552 532.979 C 411.452 534.639 415.232 536.929 419.932 539.809 C 424.632 542.689 429.932 546.059 435.752 549.949 L 441.812 553.949 C 447.659 557.829 452.819 561.375 457.292 564.589 C 461.765 567.802 465.335 570.415 468.002 572.429 C 470.672 574.429 472.252 575.619 472.762 575.959 C 474.001 576.929 475.761 576.862 476.922 575.799 C 477.457 575.366 477.925 574.858 478.312 574.289 C 478.842 573.579 479.312 572.889 479.772 572.219 C 480.232 571.549 480.772 570.739 481.172 569.989 C 481.544 569.408 481.833 568.779 482.032 568.119 C 482.539 566.64 481.921 565.01 480.562 564.239 Z" style=""/>
  <path d="M 463.972 582.639 C 462.994 581.208 461.861 579.89 460.592 578.709 C 459.492 577.709 458.592 577.629 457.932 578.389 C 457.322 579.228 456.893 580.185 456.672 581.199 C 455.965 583.234 455.05 585.191 453.942 587.039 C 451.807 590.51 449.339 593.766 446.572 596.759 C 445.572 597.869 444.412 597.829 443.042 596.629 C 439.535 593.529 436.102 590.529 432.742 587.629 C 429.382 584.729 425.495 581.339 421.082 577.459 L 415.622 572.649 C 410.362 567.982 405.735 563.762 401.742 559.989 C 397.749 556.215 394.569 553.135 392.202 550.749 C 389.842 548.389 388.422 547.009 387.972 546.609 C 386.877 545.479 385.127 545.306 383.832 546.199 C 383.452 546.489 382.942 546.939 382.292 547.549 C 381.646 548.146 381.032 548.777 380.452 549.439 C 379.889 550.076 379.362 550.744 378.872 551.439 C 378.352 552.159 377.972 552.719 377.722 553.129 C 376.998 554.528 377.386 556.246 378.642 557.199 C 379.102 557.599 380.635 558.839 383.242 560.919 C 385.849 562.999 389.285 565.785 393.552 569.279 C 397.812 572.772 402.575 576.839 407.842 581.479 L 413.292 586.299 C 417.712 590.199 421.555 593.639 424.822 596.619 C 428.089 599.599 431.479 602.635 434.992 605.729 C 436.352 606.929 436.572 608.069 435.632 609.129 C 433.34 611.814 430.825 614.3 428.112 616.559 C 426.534 617.86 424.863 619.043 423.112 620.099 C 422.206 620.552 421.37 621.134 420.632 621.829 C 419.872 622.689 419.962 623.769 420.902 625.049 C 421.482 625.829 422.242 626.749 423.172 627.789 C 424.108 628.851 425.11 629.853 426.172 630.789 C 427.505 631.942 428.605 632.009 429.472 630.989 C 429.912 630.489 430.732 629.399 431.912 627.739 C 433.092 626.079 434.912 623.739 437.372 620.659 C 439.832 617.579 443.202 613.659 447.452 608.859 C 452.319 603.339 456.492 598.905 459.972 595.559 C 463.452 592.212 465.499 590.189 466.112 589.489 C 466.787 588.681 466.898 587.542 466.392 586.619 C 465.726 585.211 464.915 583.877 463.972 582.639 Z" style=""/>
  <path d="M 397.272 645.989 C 395.952 643.149 394.342 639.449 392.442 634.859 C 390.542 630.269 388.442 625.189 386.302 619.609 C 384.162 614.029 381.932 608.339 379.752 602.539 C 377.572 596.739 375.502 591.199 373.552 585.919 C 371.602 580.639 369.952 575.999 368.552 572.009 C 368.297 571.095 367.906 570.226 367.392 569.429 C 366.582 568.429 365.752 568.089 364.902 568.429 C 363.934 568.861 363.029 569.423 362.212 570.099 C 361.665 570.527 361.15 570.995 360.672 571.499 C 360.27 571.909 359.915 572.361 359.612 572.849 C 359.362 573.253 359.218 573.714 359.192 574.189 C 359.234 574.896 359.446 575.582 359.812 576.189 L 362.572 581.889 C 363.752 584.329 364.982 586.989 366.242 589.889 C 367.502 592.789 368.672 595.449 369.722 597.939 C 370.055 598.725 370.241 599.565 370.272 600.419 C 370.165 601.205 369.761 601.921 369.142 602.419 C 368.355 603.159 367.079 604.265 365.312 605.739 C 363.542 607.219 361.702 608.739 359.782 610.439 C 357.862 612.139 356.152 613.539 354.682 614.779 L 351.992 617.019 C 351.37 617.649 350.491 617.955 349.612 617.849 C 348.626 617.549 347.7 617.082 346.872 616.469 C 345.952 615.869 344.619 614.952 342.872 613.719 C 341.152 612.489 339.302 611.169 337.342 609.719 C 335.382 608.269 333.512 606.919 331.762 605.609 C 330.012 604.299 328.652 603.239 327.682 602.469 C 327.005 601.875 326.185 601.468 325.302 601.289 C 324.538 601.241 323.777 601.418 323.112 601.799 C 322.594 602.104 322.093 602.437 321.612 602.799 C 321.032 603.209 320.472 603.629 319.942 604.049 C 319.412 604.469 318.712 605.049 318.132 605.669 C 317.552 606.289 317.082 606.739 316.712 607.149 C 315.625 608.27 315.652 610.06 316.772 611.149 C 317.532 611.935 318.401 612.608 319.352 613.149 C 320.685 614.022 322.059 614.895 323.472 615.769 C 326.432 617.609 330.142 619.989 334.602 622.909 C 339.062 625.829 343.892 629.065 349.092 632.619 C 354.292 636.172 359.489 639.752 364.682 643.359 C 369.875 646.965 374.695 650.375 379.142 653.589 C 383.582 656.809 387.229 659.475 390.082 661.589 C 391.655 662.782 392.965 662.955 394.012 662.109 C 395.067 661.097 395.907 659.883 396.482 658.539 C 397.236 657.064 397.816 655.507 398.212 653.899 C 398.461 652.706 398.552 651.485 398.482 650.269 C 398.36 648.777 397.949 647.323 397.272 645.989 Z M 387.272 643.369 C 386.967 643.618 386.544 643.665 386.192 643.489 C 385.67 643.236 385.172 642.938 384.702 642.599 C 383.782 641.999 382.402 641.059 380.542 639.769 L 374.322 635.429 C 372.035 633.815 369.775 632.239 367.542 630.699 C 365.312 629.159 363.352 627.779 361.682 626.569 C 360.688 625.908 359.789 625.114 359.012 624.209 C 358.202 623.209 358.162 622.399 358.902 621.799 C 359.322 621.459 360.202 620.799 361.552 619.799 L 365.902 616.469 L 370.172 613.209 C 371.465 612.229 372.295 611.589 372.662 611.289 C 373.452 610.659 374.232 610.809 374.992 611.759 C 375.267 612.128 375.498 612.527 375.682 612.949 C 375.932 613.469 376.192 614.069 376.472 614.739 C 377.139 616.212 377.952 618.142 378.912 620.529 C 379.872 622.915 380.892 625.402 381.972 627.989 C 383.052 630.569 384.062 632.989 384.972 635.229 C 385.882 637.469 386.662 639.229 387.212 640.609 C 387.762 641.989 387.792 642.899 387.242 643.369 L 387.272 643.369 Z" style=""/>
  <path d="M 333.182 655.479 C 328.589 653.779 322.589 653.275 315.182 653.969 L 308.122 654.639 C 304.373 655.107 300.568 654.783 296.952 653.689 C 293.796 652.524 291.067 650.433 289.122 647.689 C 286.849 644.675 285.942 641.675 286.402 638.689 C 286.933 635.61 288.719 632.89 291.332 631.179 C 294.16 629.05 297.382 627.503 300.812 626.629 C 304.494 625.821 308.268 625.515 312.032 625.719 C 312.732 625.719 313.462 625.789 314.232 625.869 C 314.793 625.985 315.377 625.9 315.882 625.629 C 316.314 625.319 316.503 624.769 316.352 624.259 C 316.23 623.63 315.959 623.041 315.562 622.539 C 314.639 621.343 313.611 620.232 312.492 619.219 C 311.506 618.264 310.446 617.388 309.322 616.599 C 307.794 615.468 305.887 614.973 304.002 615.219 C 301.606 615.686 299.276 616.441 297.062 617.469 C 294.137 618.771 291.358 620.38 288.772 622.269 C 281.859 627.262 278.265 632.889 277.992 639.149 C 277.719 645.409 279.999 651.742 284.832 658.149 C 287.769 662.187 291.827 665.275 296.502 667.029 C 301.273 668.744 306.369 669.363 311.412 668.839 L 318.622 668.219 C 324.402 667.739 328.929 667.949 332.202 668.849 C 335.411 669.696 338.234 671.616 340.202 674.289 C 342.262 677.019 343.012 679.699 342.462 682.289 C 341.844 685.005 340.204 687.379 337.882 688.919 C 335.538 690.666 332.937 692.039 330.172 692.989 C 327.854 693.765 325.449 694.252 323.012 694.439 C 321.682 694.562 320.342 694.562 319.012 694.439 C 318.044 694.24 317.038 694.381 316.162 694.839 C 315.732 695.128 315.525 695.653 315.642 696.159 C 315.735 696.73 315.969 697.27 316.322 697.729 C 316.982 698.609 317.792 699.569 318.722 700.579 C 319.507 701.455 320.367 702.262 321.292 702.989 C 322.668 704.177 324.494 704.707 326.292 704.439 C 328.704 704.161 331.044 703.439 333.192 702.309 C 335.634 701.087 337.975 699.672 340.192 698.079 C 346.725 693.359 350.245 688.025 350.752 682.079 C 351.259 676.132 349.352 670.285 345.032 664.539 C 342.052 660.426 337.932 657.276 333.182 655.479 Z" style=""/>
  <path d="M 241.422 626.769 C 239.133 624.498 236.601 622.486 233.872 620.769 C 226.639 616.169 219.972 614.879 213.872 616.899 C 207.772 618.919 202.542 623.355 198.182 630.209 C 195.393 634.383 193.901 639.288 193.892 644.309 C 193.97 649.368 195.208 654.343 197.512 658.849 L 200.692 665.329 C 203.225 670.529 204.649 674.819 204.962 678.199 C 205.299 681.519 204.479 684.853 202.642 687.639 C 200.772 690.549 198.502 692.229 195.812 692.639 C 193.008 693.066 190.147 692.408 187.812 690.799 C 183.203 687.973 179.522 683.861 177.222 678.969 C 176.629 677.762 176.147 676.503 175.782 675.209 C 175.623 674.237 175.127 673.352 174.382 672.709 C 173.946 672.419 173.378 672.419 172.942 672.709 C 172.43 673 171.998 673.412 171.682 673.909 C 171.082 674.849 170.462 675.909 169.822 677.189 C 169.267 678.235 168.808 679.329 168.452 680.459 C 167.811 682.16 167.961 684.059 168.862 685.639 C 169.997 687.783 171.524 689.696 173.362 691.279 C 175.404 693.093 177.588 694.741 179.892 696.209 C 186.732 700.555 193.082 701.889 198.942 700.209 C 204.802 698.529 209.692 694.622 213.612 688.489 C 216.473 684.255 218.015 679.268 218.042 674.159 C 218.042 669.265 216.375 663.512 213.042 656.899 L 209.872 650.579 C 208.087 647.26 207.03 643.598 206.772 639.839 C 206.785 636.441 207.832 633.128 209.772 630.339 C 211.825 627.139 214.345 625.209 217.332 624.549 C 220.435 623.913 223.663 624.578 226.262 626.389 C 229.291 628.238 231.923 630.672 234.002 633.549 C 236.087 636.682 237.733 640.087 238.892 643.669 C 239.122 644.319 239.332 645.019 239.532 645.769 C 239.631 646.329 239.921 646.837 240.352 647.209 C 240.81 647.499 241.399 647.475 241.832 647.149 C 242.382 646.804 242.847 646.339 243.192 645.789 C 243.996 644.493 244.689 643.132 245.262 641.719 C 245.815 640.457 246.267 639.153 246.612 637.819 C 247.149 635.993 246.937 634.028 246.022 632.359 C 244.723 630.314 243.178 628.437 241.422 626.769 Z" style=""/>
  <path d="M 194.342 619.399 C 199.095 616.399 203.282 613.802 206.902 611.609 C 207.741 611.169 208.509 610.606 209.182 609.939 C 210.002 608.939 210.182 608.049 209.632 607.299 C 209.012 606.437 208.275 605.667 207.442 605.009 C 206.921 604.559 206.369 604.144 205.792 603.769 C 205.306 603.463 204.79 603.209 204.252 603.009 C 203.804 602.848 203.322 602.804 202.852 602.879 C 202.176 603.065 201.552 603.408 201.032 603.879 L 196.032 607.769 C 193.879 609.429 191.545 611.179 189.032 613.019 C 186.519 614.859 184.135 616.552 181.882 618.099 C 181.185 618.587 180.406 618.946 179.582 619.159 C 178.79 619.22 178.006 618.972 177.392 618.469 C 176.499 617.849 175.165 616.829 173.392 615.409 C 171.619 613.989 169.705 612.512 167.652 610.979 C 165.652 609.445 163.882 608.089 162.342 606.909 L 159.582 604.749 C 158.837 604.268 158.354 603.471 158.272 602.589 C 158.365 601.552 158.628 600.539 159.052 599.589 C 159.452 598.569 160.072 597.089 160.912 595.149 C 161.752 593.209 162.662 591.125 163.642 588.899 C 164.642 586.689 165.582 584.579 166.502 582.589 C 167.422 580.599 168.162 579.059 168.722 577.949 C 169.161 577.164 169.385 576.278 169.372 575.379 C 169.248 574.626 168.899 573.929 168.372 573.379 C 167.975 572.933 167.555 572.509 167.112 572.109 C 166.592 571.629 166.112 571.169 165.542 570.739 C 164.903 570.224 164.236 569.747 163.542 569.309 C 162.875 568.855 162.295 568.495 161.802 568.229 C 160.489 567.429 158.778 567.819 157.942 569.109 C 157.332 570.038 156.854 571.048 156.522 572.109 C 155.952 573.599 155.392 575.109 154.822 576.679 C 153.629 579.959 152.075 584.085 150.162 589.059 C 148.249 594.032 146.092 599.432 143.692 605.259 C 141.305 611.079 138.889 616.905 136.442 622.739 C 133.995 628.572 131.662 633.999 129.442 639.019 C 127.222 644.025 125.359 648.152 123.852 651.399 C 123.022 653.179 123.122 654.499 124.172 655.349 C 125.376 656.175 126.738 656.743 128.172 657.019 C 129.773 657.446 131.416 657.691 133.072 657.749 C 134.292 657.738 135.505 657.57 136.682 657.249 C 138.101 656.795 139.422 656.076 140.572 655.129 C 143.065 653.249 146.352 650.915 150.432 648.129 C 154.512 645.342 159.059 642.282 164.072 638.949 C 169.072 635.615 174.182 632.282 179.402 628.949 C 184.622 625.615 189.602 622.432 194.342 619.399 Z M 169.402 626.159 C 169.099 626.5 168.764 626.811 168.402 627.089 C 167.942 627.439 167.402 627.819 166.822 628.229 C 165.522 629.182 163.802 630.379 161.662 631.819 C 159.522 633.269 157.312 634.819 155.002 636.379 L 148.552 640.839 L 143.762 644.149 C 142.522 645.035 141.612 645.245 141.032 644.779 C 140.738 644.537 140.606 644.15 140.692 643.779 C 140.827 643.213 141.015 642.66 141.252 642.129 C 141.642 641.129 142.252 639.559 143.152 637.469 C 144.052 635.379 145.002 633.059 146.102 630.469 C 147.202 627.879 148.262 625.349 149.302 622.849 C 150.342 620.349 151.302 618.139 152.122 616.259 C 152.556 615.145 153.145 614.098 153.872 613.149 C 154.692 612.149 155.472 611.939 156.202 612.539 C 156.622 612.879 157.472 613.599 158.752 614.699 L 162.912 618.259 C 164.412 619.525 165.775 620.692 167.002 621.759 C 168.232 622.819 169.002 623.499 169.392 623.759 C 170.172 624.432 170.175 625.232 169.402 626.159 Z" style=""/>
  <path d="M 152.982 564.769 C 154.132 563.849 154.602 562.909 154.402 561.959 C 154.229 561.407 153.98 560.882 153.662 560.399 C 153.341 559.861 152.987 559.343 152.602 558.849 C 152.187 558.353 151.736 557.888 151.252 557.459 C 150.679 556.959 150.279 556.625 150.052 556.459 C 149.591 556.205 149.042 556.169 148.552 556.359 C 148.014 556.603 147.51 556.915 147.052 557.289 C 146.512 557.722 144.945 559.095 142.352 561.409 C 139.759 563.722 135.712 567.192 130.212 571.819 C 124.705 576.445 117.372 582.399 108.212 589.679 L 99.352 596.679 C 97.992 597.749 97.022 597.919 96.432 597.179 C 96.201 596.794 96.133 596.334 96.242 595.899 C 96.35 595.248 96.507 594.606 96.712 593.979 C 97.445 591.419 98.445 588.172 99.712 584.239 C 100.979 580.305 102.369 575.972 103.882 571.239 C 105.402 566.572 106.965 561.749 108.572 556.769 C 110.179 551.789 111.765 546.992 113.332 542.379 C 114.905 537.712 116.332 533.475 117.612 529.669 C 118.892 525.862 119.982 522.775 120.882 520.409 C 121.088 519.799 121.226 519.169 121.292 518.529 C 121.303 518.011 121.113 517.509 120.762 517.129 C 120.282 516.583 119.718 516.117 119.092 515.749 C 118.437 515.316 117.736 514.957 117.002 514.679 C 115.892 514.269 114.662 514.599 113.302 515.679 C 112.562 516.279 111.055 517.519 108.782 519.399 C 106.522 521.279 103.902 523.399 100.942 525.819 C 97.982 528.239 95.162 530.469 92.512 532.569 C 87.085 536.875 81.789 540.972 76.622 544.859 C 71.455 548.745 66.742 552.249 62.482 555.369 C 58.215 558.489 54.722 561.022 52.002 562.969 C 49.282 564.915 47.685 566.075 47.212 566.449 C 46.052 567.369 45.602 568.329 45.852 569.339 C 46.018 569.871 46.253 570.378 46.552 570.849 C 46.852 571.373 47.186 571.877 47.552 572.359 C 47.924 572.864 48.338 573.336 48.792 573.769 C 49.185 574.143 49.614 574.478 50.072 574.769 C 50.892 575.239 51.912 574.999 53.132 574.029 C 53.612 573.649 54.812 572.545 56.732 570.719 C 58.652 568.892 61.652 566.242 65.732 562.769 C 69.779 559.295 75.232 554.839 82.092 549.399 L 97.772 536.949 C 98.992 535.949 99.882 535.839 100.422 536.529 C 100.729 536.957 100.855 537.488 100.772 538.009 C 100.696 538.689 100.549 539.359 100.332 540.009 C 99.842 541.609 99.102 544.009 98.142 547.179 C 97.182 550.349 96.032 554.079 94.702 558.329 C 93.372 562.579 91.992 566.999 90.542 571.599 C 89.092 576.199 87.662 580.679 86.212 585.059 C 84.762 589.439 83.422 593.429 82.212 597.059 C 81.002 600.689 79.892 603.479 79.002 605.559 C 78.571 606.492 78.262 607.477 78.082 608.489 C 78.015 609.399 78.243 610.307 78.732 611.079 C 79.135 611.89 79.61 612.663 80.152 613.389 C 80.772 614.239 81.322 614.979 81.832 615.619 C 82.342 616.259 82.952 616.949 83.662 617.719 C 84.197 618.323 84.798 618.866 85.452 619.339 C 86.151 620.024 87.261 620.05 87.992 619.399 C 88.347 619.106 88.611 618.717 88.752 618.279 C 88.932 617.789 89.102 617.279 89.272 616.829 L 89.582 615.549 C 89.833 614.183 90.468 612.917 91.412 611.899 C 92.441 610.816 93.551 609.813 94.732 608.899 L 96.672 607.369 C 97.752 606.499 98.982 605.529 100.332 604.459 L 104.002 601.549 L 105.832 600.089 C 120.839 588.189 132.282 579.499 140.162 574.019 C 148.042 568.539 152.315 565.455 152.982 564.769 Z" style=""/>
  <path d="M 49.622 542.229 C 57.409 541.809 65.632 539.509 74.292 535.329 C 82.572 531.329 89.079 526.519 93.812 520.899 C 98.33 515.772 101.268 509.448 102.272 502.689 C 103.141 495.982 101.97 489.17 98.912 483.139 C 97.341 479.77 95.374 476.601 93.052 473.699 C 90.822 471.051 88.169 468.791 85.202 467.009 C 83.564 466.001 81.63 465.585 79.722 465.829 C 78.238 465.924 76.771 466.196 75.352 466.639 C 74.06 467.029 72.796 467.51 71.572 468.079 C 70.402 468.639 70.002 469.319 70.392 470.079 C 70.583 470.428 70.914 470.678 71.302 470.769 L 72.832 471.259 C 76.107 472.079 79.198 473.51 81.942 475.479 C 84.242 477.344 86.079 479.716 87.312 482.409 C 89.951 487.55 90.755 493.438 89.592 499.099 C 88.238 504.935 85.3 510.285 81.102 514.559 C 76.164 519.685 70.314 523.846 63.852 526.829 C 54.565 531.309 46.539 533.119 39.772 532.259 C 33.005 531.399 28.195 528.015 25.342 522.109 C 23.629 518.622 22.527 514.868 22.082 511.009 C 21.669 507.383 21.77 503.716 22.382 500.119 C 22.511 499.059 22.701 498.007 22.952 496.969 C 23.199 496.291 23.224 495.551 23.022 494.859 C 22.764 494.356 22.247 494.04 21.682 494.039 C 20.936 494 20.194 494.162 19.532 494.509 C 18.672 494.929 17.682 495.509 16.532 496.119 C 15.547 496.685 14.598 497.313 13.692 497.999 C 11.59 499.486 10.332 501.894 10.312 504.469 C 10.398 507.314 10.797 510.141 11.502 512.899 C 12.267 516.263 13.407 519.53 14.902 522.639 C 17.82 529.087 22.727 534.431 28.902 537.889 C 35.258 541.269 42.444 542.774 49.622 542.229 Z" style=""/>
  <path d="M 14.332 487.569 C 13.879 486.641 13.243 485.815 12.462 485.139 C 10.995 483.559 9.698 481.829 8.592 479.979 C 6.531 476.459 4.823 472.744 3.492 468.889 C 2.972 467.499 3.562 466.479 5.272 465.889 C 9.652 464.249 13.912 462.629 18.022 461.029 C 22.132 459.429 26.962 457.589 32.482 455.529 L 39.312 452.989 C 45.885 450.542 51.785 448.449 57.012 446.709 C 62.239 444.969 66.452 443.615 69.652 442.649 C 72.852 441.649 74.732 441.079 75.302 440.869 C 76.815 440.435 77.795 438.973 77.622 437.409 C 77.532 436.939 77.382 436.279 77.152 435.409 C 76.922 434.539 76.662 433.719 76.362 432.899 C 76.062 432.079 75.742 431.359 75.362 430.559 C 74.982 429.759 74.652 429.169 74.412 428.749 C 73.516 427.468 71.834 427.01 70.412 427.659 C 69.839 427.872 68.022 428.639 64.962 429.959 C 61.902 431.279 57.825 432.995 52.732 435.109 C 47.645 437.215 41.812 439.499 35.232 441.959 L 28.412 444.499 C 22.892 446.559 18.049 448.325 13.882 449.799 C 9.712 451.289 5.432 452.799 1.052 454.479 C -0.661 455.112 -1.761 454.779 -2.248 453.479 C -3.536 450.194 -4.539 446.805 -5.248 443.349 C -5.648 441.337 -5.895 439.298 -5.988 437.249 C -5.962 436.236 -6.083 435.226 -6.348 434.249 C -6.748 433.179 -7.738 432.749 -9.348 432.979 C -10.348 433.119 -11.478 433.359 -12.838 433.679 C -14.23 434.022 -15.603 434.442 -16.948 434.939 C -18.568 435.549 -19.148 436.479 -18.668 437.749 C -18.438 438.379 -17.858 439.609 -16.948 441.439 C -16.038 443.269 -14.818 445.979 -13.288 449.589 C -11.758 453.199 -9.868 458.019 -7.628 464.039 C -5.048 470.952 -3.105 476.722 -1.798 481.349 C -0.491 485.975 0.329 488.735 0.662 489.629 C 1.052 490.609 2.007 491.245 3.062 491.229 C 4.633 491.317 6.208 491.236 7.762 490.989 C 9.479 490.77 11.166 490.361 12.792 489.769 C 14.182 489.259 14.692 488.519 14.332 487.569 Z" style=""/>
  <path d="M -16.758 426.099 C -16.171 425.945 -14.278 425.382 -11.078 424.409 C -7.878 423.435 -3.631 422.202 1.662 420.709 C 6.995 419.209 13.059 417.639 19.852 415.999 L 26.932 414.279 C 33.752 412.639 39.862 411.269 45.262 410.169 C 50.662 409.069 54.995 408.225 58.262 407.639 C 61.549 407.045 63.489 406.682 64.082 406.549 C 65.636 406.299 66.783 404.963 66.792 403.389 C 66.792 402.909 66.692 402.229 66.572 401.389 C 66.452 400.549 66.282 399.649 66.082 398.789 C 65.882 397.929 65.642 397.189 65.352 396.359 C 65.062 395.529 64.822 394.889 64.632 394.449 C 63.9 393.054 62.269 392.391 60.772 392.879 C 60.185 393.019 58.292 393.579 55.092 394.559 C 51.892 395.539 47.642 396.775 42.342 398.269 C 37.009 399.762 30.949 401.332 24.162 402.979 L 17.082 404.689 C 10.282 406.322 4.185 407.682 -1.208 408.769 C -6.601 409.855 -10.935 410.695 -14.208 411.289 C -17.498 411.879 -19.438 412.289 -20.028 412.389 C -21.584 412.637 -22.734 413.973 -22.748 415.549 C -22.783 416.219 -22.73 416.892 -22.588 417.549 C -22.418 418.419 -22.238 419.249 -22.048 420.029 C -21.858 420.809 -21.618 421.739 -21.368 422.579 C -21.197 423.246 -20.931 423.886 -20.578 424.479 C -19.86 425.867 -18.255 426.547 -16.758 426.099 Z" style=""/>
  <path d="M -6.888 347.679 C -1.771 347.477 3.172 345.769 7.322 342.769 C 11.262 339.835 14.929 335.079 18.322 328.499 L 21.572 322.199 C 23.202 318.788 25.541 315.764 28.432 313.329 C 31.175 311.318 34.463 310.185 37.862 310.079 C 41.669 309.839 44.722 310.729 47.022 312.749 C 49.372 314.877 50.743 317.879 50.812 321.049 C 51.105 324.592 50.69 328.157 49.592 331.539 C 48.283 335.077 46.5 338.42 44.292 341.479 C 43.892 342.049 43.452 342.629 42.972 343.239 C 42.572 343.648 42.331 344.187 42.292 344.759 C 42.327 345.299 42.694 345.761 43.212 345.919 C 43.817 346.151 44.466 346.247 45.112 346.199 C 48.017 345.922 50.87 345.249 53.592 344.199 C 55.384 343.545 56.844 342.207 57.652 340.479 C 58.553 338.207 59.168 335.832 59.482 333.409 C 59.95 330.221 60.071 326.992 59.842 323.779 C 59.295 315.219 56.409 309.089 51.182 305.389 C 45.955 301.689 39.289 300.099 31.182 300.619 C 26.133 300.831 21.261 302.536 17.182 305.519 C 13.131 308.574 9.839 312.523 7.562 317.059 L 4.192 323.469 C 1.485 328.589 -1.145 332.279 -3.698 334.539 C -6.184 336.772 -9.361 338.085 -12.698 338.259 C -16.158 338.479 -18.868 337.639 -20.808 335.729 C -22.8 333.724 -23.952 331.034 -24.028 328.209 C -24.256 325.281 -24.027 322.336 -23.348 319.479 C -22.761 317.104 -21.877 314.813 -20.718 312.659 C -20.095 311.463 -19.361 310.328 -18.528 309.269 C -17.834 308.562 -17.406 307.636 -17.318 306.649 C -17.349 306.126 -17.686 305.67 -18.178 305.489 C -18.715 305.249 -19.302 305.146 -19.888 305.189 C -21.018 305.259 -22.268 305.409 -23.638 305.629 C -24.816 305.807 -25.977 306.085 -27.108 306.459 C -28.883 306.942 -30.35 308.192 -31.108 309.869 C -32.173 312.063 -32.818 314.437 -33.008 316.869 C -33.267 319.591 -33.31 322.329 -33.138 325.059 C -32.618 333.159 -29.951 339.069 -25.138 342.789 C -20.325 346.509 -14.241 348.139 -6.888 347.679 Z" style=""/>
  <path d="M -29.278 294.969 C -27.929 295.784 -26.498 296.454 -25.008 296.969 C -23.396 297.601 -21.719 298.054 -20.008 298.319 C -18.538 298.499 -17.748 298.089 -17.618 297.089 C -17.595 296.063 -17.779 295.042 -18.158 294.089 C -18.71 292.005 -19.045 289.871 -19.158 287.719 C -19.355 283.645 -19.147 279.561 -18.538 275.529 C -18.348 274.059 -17.348 273.439 -15.538 273.659 C -10.871 274.245 -6.351 274.785 -1.978 275.279 C 2.395 275.772 7.515 276.385 13.382 277.119 L 20.602 278.039 C 27.562 278.919 33.762 279.805 39.202 280.699 C 44.642 281.592 48.999 282.349 52.272 282.969 C 55.559 283.589 57.502 283.922 58.102 283.969 C 59.647 284.285 61.194 283.439 61.762 281.969 C 61.912 281.519 62.082 280.859 62.282 279.969 C 62.482 279.079 62.632 278.249 62.742 277.379 C 62.852 276.509 62.902 275.729 62.932 274.839 C 62.962 273.949 62.932 273.279 62.932 272.839 C 62.748 271.273 61.457 270.071 59.882 269.999 C 59.282 269.919 57.319 269.755 53.992 269.509 C 50.652 269.259 46.252 268.889 40.762 268.399 C 35.272 267.909 29.052 267.219 22.092 266.339 L 14.862 265.419 C 9.022 264.679 3.862 263.999 -0.468 263.419 C -4.798 262.839 -9.358 262.189 -13.998 261.599 C -15.808 261.369 -16.618 260.599 -16.438 259.149 C -16.068 255.641 -15.399 252.172 -14.438 248.779 C -13.856 246.808 -13.13 244.883 -12.268 243.019 C -11.762 242.137 -11.398 241.183 -11.188 240.189 C -11.038 239.049 -11.718 238.189 -13.188 237.689 C -14.108 237.359 -15.248 237.029 -16.598 236.689 C -17.991 236.342 -19.404 236.078 -20.828 235.899 C -22.538 235.679 -23.488 236.239 -23.658 237.589 C -23.738 238.259 -23.808 239.589 -23.848 241.649 C -23.888 243.709 -24.068 246.649 -24.388 250.579 C -24.708 254.509 -25.268 259.579 -26.078 265.999 C -26.998 273.332 -27.955 279.332 -28.948 283.999 C -29.948 288.719 -30.498 291.539 -30.618 292.479 C -30.712 293.502 -30.184 294.483 -29.278 294.969 Z" style=""/>
  <path d="M -17.768 225.899 C -16.928 226.065 -13.155 226.652 -6.448 227.659 C 0.259 228.665 8.779 230.255 19.112 232.429 L 26.232 233.929 C 33.099 235.382 39.185 236.769 44.492 238.089 C 49.799 239.409 54.039 240.512 57.212 241.399 C 60.392 242.269 62.282 242.779 62.872 242.899 C 63.925 243.26 65.092 242.983 65.872 242.189 C 66.699 240.994 67.24 239.626 67.452 238.189 C 67.702 236.999 68.022 235.369 68.452 233.309 C 68.882 231.249 69.262 229.039 69.712 226.689 C 70.162 224.339 70.592 222.229 70.982 220.369 C 71.612 217.369 72.272 214.459 72.982 211.569 C 73.692 208.679 74.312 206.199 74.882 204.149 C 75.452 202.099 75.792 200.759 75.882 200.149 C 76.246 198.535 75.522 196.871 74.092 196.039 C 72.957 195.283 71.767 194.615 70.532 194.039 C 69.234 193.388 67.865 192.892 66.452 192.559 C 65.012 192.259 64.172 192.669 63.942 193.789 C 63.776 195.329 63.736 196.881 63.822 198.429 C 63.875 200.929 63.745 204.392 63.432 208.819 C 62.956 214.288 62.121 219.719 60.932 225.079 C 60.412 227.529 58.632 228.429 55.572 227.779 C 53.285 227.299 50.525 226.752 47.292 226.139 L 37.512 224.289 C 34.242 223.659 31.452 223.109 29.162 222.629 C 27.302 222.239 26.512 221.339 26.802 219.959 C 27.937 214.549 29.376 209.207 31.112 203.959 C 32.445 200.325 33.185 198.082 33.332 197.229 C 33.812 195.497 33.043 193.661 31.472 192.789 C 30.571 192.186 29.613 191.674 28.612 191.259 C 27.496 190.754 26.329 190.369 25.132 190.109 C 23.442 189.749 22.432 190.299 22.132 191.749 C 21.748 194.343 21.508 196.957 21.412 199.579 C 20.825 205.851 19.823 212.078 18.412 218.219 C 18.112 219.609 17.082 220.119 15.292 219.749 C 11.652 218.975 7.695 218.105 3.422 217.139 C -0.838 216.139 -4.368 215.319 -7.138 214.599 C -8.968 214.079 -9.758 213.179 -9.498 211.929 C -8.47 206.706 -7.093 201.558 -5.378 196.519 C -4.409 193.719 -3.256 190.987 -1.928 188.339 C -1.281 187.265 -0.751 186.125 -0.348 184.939 C -0.058 183.549 -0.838 182.659 -2.708 182.269 C -3.969 182.018 -5.245 181.855 -6.528 181.779 C -7.695 181.668 -8.871 181.668 -10.038 181.779 C -11.858 182.019 -12.928 182.859 -13.238 184.319 C -13.318 184.719 -13.518 185.899 -13.848 187.869 C -14.178 189.839 -14.538 192.059 -14.928 194.529 C -15.318 196.999 -15.728 199.299 -16.178 201.419 C -16.538 203.139 -16.985 205.139 -17.518 207.419 C -18.048 209.729 -18.518 211.929 -19.048 214.039 C -19.578 216.149 -19.928 217.889 -20.218 219.279 C -20.688 221.529 -20.758 223.129 -20.428 224.059 C -19.928 225.098 -18.917 225.797 -17.768 225.899 Z" style=""/>
  <path d="M 1.332 154.829 C 1.892 155.082 3.735 155.792 6.862 156.959 C 9.989 158.125 14.089 159.732 19.162 161.779 C 24.235 163.819 29.975 166.269 36.382 169.129 L 43.032 172.129 C 49.445 174.975 55.112 177.619 60.032 180.059 C 64.952 182.499 68.905 184.499 71.892 186.059 C 74.892 187.609 76.612 188.499 77.172 188.749 C 78.557 189.498 80.281 189.139 81.252 187.899 C 81.522 187.509 81.872 186.899 82.312 186.159 C 82.748 185.393 83.146 184.605 83.502 183.799 C 83.832 183.059 84.142 182.269 84.422 181.439 C 84.702 180.609 84.892 179.939 85.002 179.439 C 85.279 177.889 84.395 176.366 82.912 175.839 C 82.362 175.589 80.512 174.839 77.382 173.709 C 74.252 172.579 70.142 170.919 65.032 168.859 C 59.922 166.799 54.162 164.349 47.752 161.489 L 41.102 158.489 C 37.222 156.755 33.515 155.065 29.982 153.419 C 26.449 151.772 23.335 150.292 20.642 148.979 C 17.975 147.645 16.092 146.712 14.992 146.179 C 13.752 145.549 12.992 144.859 12.852 144.109 C 12.726 142.982 12.961 141.844 13.522 140.859 C 14.931 137.494 17.322 134.633 20.382 132.649 C 23.481 130.728 27.046 129.69 30.692 129.649 C 35.013 129.629 39.283 130.587 43.182 132.449 C 48.402 134.782 51.735 137.399 53.182 140.299 C 54.629 143.199 54.545 146.475 52.932 150.129 C 52.446 151.289 51.77 152.36 50.932 153.299 C 50.437 153.77 50.007 154.305 49.652 154.889 C 49.212 155.889 49.652 156.659 50.892 157.219 C 51.769 157.592 52.701 157.822 53.652 157.899 C 54.573 157.989 55.501 157.989 56.422 157.899 C 57.856 157.781 59.116 156.903 59.722 155.599 C 60.558 153.626 61.146 151.557 61.472 149.439 C 61.902 147.01 62.003 144.534 61.772 142.079 C 61.231 137.483 59.431 133.127 56.572 129.489 C 53.226 125.177 48.824 121.801 43.792 119.689 C 35.559 116.022 28.129 115.502 21.502 118.129 C 14.875 120.755 9.589 126.485 5.642 135.319 C 4.569 137.719 3.599 140.005 2.732 142.179 C 1.865 144.352 1.152 146.215 0.592 147.769 C 0.052 149.299 -0.268 150.269 -0.358 150.679 C -0.615 151.567 -0.615 152.51 -0.358 153.399 C 0.01 154.067 0.612 154.576 1.332 154.829 Z" style=""/>
  <path d="M 31.662 97.929 C 32.152 98.279 33.832 99.319 36.662 101.069 C 39.492 102.819 43.252 105.189 47.872 108.189 C 52.492 111.189 57.682 114.689 63.432 118.719 L 69.432 122.899 C 75.185 126.899 80.255 130.565 84.642 133.899 C 89.029 137.232 92.529 139.935 95.142 142.009 C 97.762 144.089 99.319 145.305 99.812 145.659 C 101.033 146.651 102.79 146.625 103.982 145.599 C 104.322 145.269 104.782 144.759 105.362 144.089 C 105.942 143.419 106.472 142.729 106.972 142.009 C 107.459 141.316 107.909 140.598 108.322 139.859 C 108.762 139.089 109.072 138.479 109.322 138.049 C 109.884 136.577 109.306 134.914 107.952 134.109 C 107.459 133.769 105.792 132.722 102.952 130.969 C 100.112 129.215 96.445 126.882 91.952 123.969 C 87.472 121.075 82.499 117.715 77.032 113.889 C 75.472 112.789 75.122 111.639 75.972 110.419 C 77.105 108.812 78.525 106.752 80.232 104.239 C 81.939 101.725 83.739 99.059 85.632 96.239 C 87.512 93.385 89.339 90.662 91.112 88.069 C 92.885 85.475 94.392 83.292 95.632 81.519 C 96.485 80.299 97.692 80.235 99.252 81.329 C 104.792 85.209 109.735 88.799 114.082 92.099 C 118.429 95.399 121.915 98.089 124.542 100.169 C 127.162 102.259 128.712 103.469 129.212 103.819 C 130.426 104.816 132.182 104.795 133.372 103.769 C 133.712 103.429 134.172 102.929 134.752 102.259 C 135.332 101.589 135.872 100.889 136.372 100.169 C 136.872 99.449 137.282 98.789 137.722 98.019 C 138.162 97.249 138.472 96.649 138.672 96.209 C 139.237 94.74 138.658 93.078 137.302 92.279 C 136.802 91.925 135.135 90.875 132.302 89.129 C 129.469 87.382 125.735 85.012 121.102 82.019 C 116.475 79.025 111.289 75.512 105.542 71.479 L 99.542 67.309 C 93.795 63.309 88.725 59.642 84.332 56.309 C 79.939 52.975 76.425 50.265 73.792 48.179 C 71.185 46.099 69.629 44.885 69.122 44.539 C 67.909 43.537 66.15 43.558 64.962 44.589 C 64.418 45.012 63.936 45.51 63.532 46.069 C 62.992 46.759 62.532 47.439 62.022 48.069 C 61.512 48.699 61.022 49.529 60.562 50.269 C 60.175 50.839 59.872 51.462 59.662 52.119 C 59.106 53.588 59.683 55.244 61.032 56.049 C 61.532 56.402 63.135 57.402 65.842 59.049 C 68.549 60.695 71.839 62.755 75.712 65.229 C 79.592 67.695 83.519 70.322 87.492 73.109 C 88.985 74.162 89.319 75.295 88.492 76.509 C 87.282 78.219 85.762 80.359 83.922 82.899 C 82.082 85.439 80.162 88.129 78.142 90.899 C 76.122 93.669 74.232 96.339 72.452 98.799 C 70.672 101.259 69.212 103.299 68.092 104.909 C 67.272 106.069 66.119 106.125 64.632 105.079 C 60.732 102.345 56.992 99.602 53.412 96.849 C 49.832 94.095 46.799 91.742 44.312 89.789 C 41.822 87.789 40.312 86.679 39.832 86.339 C 38.627 85.325 36.867 85.325 35.662 86.339 C 35.12 86.76 34.639 87.255 34.232 87.809 C 33.692 88.509 33.232 89.189 32.722 89.809 C 32.212 90.429 31.722 91.259 31.262 92.009 C 30.874 92.574 30.574 93.194 30.372 93.849 C 29.715 95.34 30.267 97.086 31.662 97.929 Z" style=""/>
  <path d="M 105.692 14.839 C 107.292 17.505 109.272 21.029 111.632 25.409 C 113.992 29.789 116.545 34.639 119.292 39.959 C 122.032 45.292 124.789 50.729 127.562 56.269 C 130.335 61.809 132.952 67.109 135.412 72.169 C 137.885 77.222 140.015 81.665 141.802 85.499 C 142.151 86.378 142.63 87.201 143.222 87.939 C 144.132 88.869 144.992 89.119 145.802 88.679 C 146.72 88.149 147.564 87.5 148.312 86.749 C 148.808 86.263 149.273 85.745 149.702 85.199 C 150.056 84.749 150.361 84.263 150.612 83.749 C 150.822 83.32 150.922 82.846 150.902 82.369 C 150.775 81.674 150.491 81.017 150.072 80.449 C 149.272 79.169 148.162 77.372 146.742 75.059 C 145.322 72.745 143.832 70.225 142.272 67.499 C 140.719 64.765 139.295 62.215 138.002 59.849 C 137.588 59.105 137.314 58.291 137.192 57.449 C 137.219 56.655 137.552 55.902 138.122 55.349 C 138.832 54.529 139.982 53.299 141.592 51.649 C 143.202 49.999 144.872 48.259 146.592 46.419 C 148.312 44.579 149.882 42.959 151.222 41.579 C 152.562 40.199 153.372 39.359 153.662 39.069 C 154.222 38.381 155.065 37.986 155.952 37.999 C 156.963 38.205 157.932 38.577 158.822 39.099 C 159.822 39.599 161.192 40.379 163.032 41.419 C 164.872 42.459 166.842 43.599 168.942 44.819 C 171.042 46.039 173.032 47.199 174.942 48.329 C 176.852 49.459 178.282 50.329 179.322 51.039 C 180.053 51.56 180.908 51.88 181.802 51.969 C 182.569 51.944 183.311 51.689 183.932 51.239 C 184.422 50.899 184.89 50.528 185.332 50.129 C 185.872 49.655 186.382 49.185 186.862 48.719 C 187.432 48.149 187.982 47.549 188.502 46.919 C 189.022 46.289 189.432 45.749 189.762 45.309 C 190.691 44.088 190.488 42.351 189.302 41.379 C 188.459 40.674 187.524 40.089 186.522 39.639 L 182.162 37.459 C 179.032 35.929 175.092 33.929 170.352 31.459 C 165.612 28.989 160.482 26.289 154.952 23.279 C 149.422 20.269 143.882 17.279 138.352 14.189 C 132.822 11.099 127.672 8.189 122.922 5.489 C 118.172 2.789 114.272 0.489 111.212 -1.401 C 109.532 -2.401 108.212 -2.461 107.212 -1.511 C 106.262 -0.405 105.55 0.885 105.122 2.279 C 104.523 3.825 104.103 5.436 103.872 7.079 C 103.745 8.291 103.779 9.515 103.972 10.719 C 104.276 12.189 104.86 13.588 105.692 14.839 Z M 115.932 16.419 C 116.211 16.136 116.631 16.046 117.002 16.189 C 117.545 16.387 118.071 16.631 118.572 16.919 C 119.572 17.429 121.022 18.219 122.992 19.309 L 129.622 22.999 C 132.072 24.369 134.472 25.699 136.852 26.999 C 139.232 28.299 141.322 29.469 143.102 30.509 C 144.16 31.061 145.136 31.758 146.002 32.579 C 146.912 33.509 147.002 34.299 146.362 34.969 C 145.972 35.349 145.172 36.119 143.932 37.269 L 139.932 41.019 L 136.032 44.769 C 134.842 45.879 134.032 46.599 133.742 46.929 C 133.022 47.639 132.242 47.569 131.382 46.699 C 131.07 46.361 130.798 45.989 130.572 45.589 C 130.272 45.089 129.952 44.529 129.572 43.889 C 128.762 42.489 127.752 40.659 126.572 38.379 C 125.392 36.099 124.092 33.729 122.762 31.269 L 119.012 24.369 L 116.242 19.249 C 115.512 17.869 115.402 16.939 115.932 16.419 Z" style=""/>
  <path d="M 150.892 -32.681 L 152.252 -31.991 L 153.492 -31.521 C 154.813 -31.099 155.988 -30.312 156.882 -29.251 C 157.839 -28.093 158.705 -26.863 159.472 -25.571 C 159.612 -25.351 160.042 -24.651 160.762 -23.461 L 163.192 -19.461 L 165.622 -15.461 C 166.342 -14.281 166.742 -13.611 166.832 -13.461 C 176.785 2.912 183.985 15.345 188.432 23.839 C 192.879 32.332 195.352 36.999 195.852 37.839 C 196.622 39.099 197.492 39.689 198.462 39.599 C 199.03 39.496 199.581 39.318 200.102 39.069 C 200.675 38.812 201.233 38.521 201.772 38.199 C 202.315 37.853 202.83 37.466 203.312 37.039 C 203.707 36.702 204.084 36.344 204.442 35.969 C 204.758 35.549 204.865 35.007 204.732 34.499 C 204.563 33.931 204.318 33.39 204.002 32.889 C 203.642 32.302 202.475 30.579 200.502 27.719 C 198.529 24.859 195.585 20.409 191.672 14.369 C 187.772 8.329 182.772 0.309 176.672 -9.691 L 170.792 -19.391 C 169.892 -20.871 169.842 -21.861 170.652 -22.391 C 171.065 -22.563 171.529 -22.563 171.942 -22.391 C 172.577 -22.209 173.196 -21.975 173.792 -21.691 C 176.242 -20.641 179.342 -19.261 183.082 -17.521 C 186.822 -15.781 190.932 -13.881 195.412 -11.781 L 209.192 -5.321 C 213.892 -3.115 218.452 -0.941 222.872 1.199 L 234.952 7.009 C 238.579 8.762 241.509 10.229 243.742 11.409 C 244.319 11.692 244.926 11.91 245.552 12.059 C 246.062 12.133 246.582 12.008 247.002 11.709 C 247.603 11.297 248.136 10.794 248.582 10.219 C 249.092 9.623 249.535 8.972 249.902 8.279 C 250.452 7.279 250.282 5.969 249.382 4.489 C 248.882 3.669 247.839 2.019 246.252 -0.461 C 244.665 -2.941 242.869 -5.805 240.862 -9.051 C 238.862 -12.291 236.979 -15.355 235.212 -18.241 C 231.612 -24.168 228.209 -29.935 225.002 -35.541 C 221.795 -41.148 218.905 -46.261 216.332 -50.881 C 213.752 -55.501 211.672 -59.285 210.092 -62.231 C 208.512 -65.178 207.559 -66.905 207.232 -67.411 C 206.472 -68.671 205.572 -69.241 204.532 -69.121 C 203.981 -69.024 203.447 -68.852 202.942 -68.611 C 202.385 -68.365 201.844 -68.084 201.322 -67.771 C 200.813 -67.477 200.328 -67.143 199.872 -66.771 C 199.453 -66.429 199.071 -66.044 198.732 -65.621 C 198.162 -64.871 198.282 -63.831 199.092 -62.491 C 199.402 -61.971 200.342 -60.651 201.922 -58.491 C 203.502 -56.331 205.752 -53.061 208.692 -48.611 C 211.632 -44.161 215.382 -38.201 219.922 -30.721 L 230.322 -13.611 C 231.132 -12.271 231.162 -11.381 230.412 -10.921 C 229.948 -10.675 229.405 -10.621 228.902 -10.771 C 228.25 -10.928 227.617 -11.152 227.012 -11.441 C 225.482 -12.131 223.202 -13.161 220.162 -14.511 C 217.122 -15.861 213.582 -17.461 209.532 -19.311 L 196.892 -25.091 C 192.512 -27.091 188.235 -29.091 184.062 -31.091 C 179.889 -33.091 176.132 -34.905 172.792 -36.531 C 169.392 -38.225 166.725 -39.638 164.792 -40.771 C 163.921 -41.316 162.983 -41.746 162.002 -42.051 C 161.107 -42.23 160.179 -42.118 159.352 -41.731 C 158.497 -41.431 157.671 -41.057 156.882 -40.611 C 155.972 -40.101 155.162 -39.611 154.472 -39.221 C 153.782 -38.831 153.002 -38.271 152.152 -37.661 C 151.49 -37.202 150.877 -36.676 150.322 -36.091 C 149.554 -35.484 149.392 -34.384 149.952 -33.581 C 150.176 -33.2 150.501 -32.888 150.892 -32.681 Z" style=""/>
  <path d="M 256.162 -78.841 C 256.375 -75.508 256.589 -71.088 256.802 -65.581 C 257.015 -60.075 257.132 -53.811 257.152 -46.791 L 257.152 -39.511 C 257.152 -32.491 257.069 -26.231 256.902 -20.731 C 256.735 -15.231 256.542 -10.811 256.322 -7.471 C 256.122 -4.131 256.032 -2.161 256.032 -1.551 C 255.917 0.016 256.947 1.438 258.472 1.819 C 258.942 1.909 259.622 1.989 260.472 2.079 C 261.322 2.169 262.232 2.199 263.112 2.199 C 263.992 2.199 264.762 2.149 265.642 2.069 C 266.522 1.989 267.192 1.889 267.642 1.799 C 269.169 1.413 270.193 -0.022 270.062 -1.591 C 270.062 -2.191 269.959 -4.161 269.752 -7.501 C 269.545 -10.841 269.329 -15.261 269.102 -20.761 C 268.889 -26.261 268.772 -32.521 268.752 -39.541 L 268.752 -46.821 C 268.752 -53.841 268.839 -60.105 269.012 -65.611 C 269.185 -71.118 269.375 -75.538 269.582 -78.871 C 269.782 -82.201 269.872 -84.181 269.872 -84.781 C 269.988 -86.351 268.958 -87.777 267.432 -88.161 C 266.784 -88.361 266.11 -88.469 265.432 -88.481 C 264.552 -88.481 263.712 -88.541 262.902 -88.541 C 262.092 -88.541 261.142 -88.541 260.262 -88.471 C 259.584 -88.452 258.911 -88.341 258.262 -88.141 C 256.74 -87.748 255.719 -86.319 255.842 -84.751 C 255.842 -84.141 255.942 -82.171 256.162 -78.841 Z" style=""/>
</svg>