<?xml version="1.0" encoding="UTF-8" standalone="no"?>
<!-- Created with Inkscape (http://www.inkscape.org/) -->

<svg
   width="1969.9491"
   height="2636.0005"
   viewBox="0 0 521.21569 697.44179"
   version="1.1"
   id="svg1"
   xml:space="preserve"
   inkscape:export-filename="bitmap.svg"
   inkscape:export-xdpi="96"
   inkscape:export-ydpi="96"
   sodipodi:docname="sspx_w.svg"
   inkscape:version="1.4 (e7c3feb1, 2024-10-09)"
   xmlns:inkscape="http://www.inkscape.org/namespaces/inkscape"
   xmlns:sodipodi="http://sodipodi.sourceforge.net/DTD/sodipodi-0.dtd"
   xmlns="http://www.w3.org/2000/svg"
   xmlns:svg="http://www.w3.org/2000/svg"><sodipodi:namedview
     id="namedview1"
     pagecolor="#505050"
     bordercolor="#ffffff"
     borderopacity="1"
     inkscape:showpageshadow="0"
     inkscape:pageopacity="0"
     inkscape:pagecheckerboard="1"
     inkscape:deskcolor="#505050"
     inkscape:document-units="mm"
     inkscape:zoom="0.11080779"
     inkscape:cx="1890.6613"
     inkscape:cy="433.18254"
     inkscape:window-width="1440"
     inkscape:window-height="847"
     inkscape:window-x="0"
     inkscape:window-y="25"
     inkscape:window-maximized="1"
     inkscape:current-layer="layer1"><inkscape:page
       x="0"
       y="0"
       width="521.2157"
       height="697.44177"
       id="page2"
       margin="0"
       bleed="0" /></sodipodi:namedview><defs
     id="defs1" /><g
     inkscape:label="Layer 1"
     inkscape:groupmode="layer"
     id="layer1"
     transform="translate(-16.484722,-21.695835)"><g
       id="g1"
       style="display:none"><path
         style="display:inline;fill:#000000"
         d="m 169.68612,265.23684 -3.70416,-1.58278 -3.52778,-1.23236 -3.52778,-1.23235 -4.58611,-1.19926 -4.58611,-1.19925 -4.23333,-0.70206 -4.23334,-0.70205 -4.05694,-0.36924 -4.05695,-0.36924 -2.99861,-0.004 -2.99861,-0.004 -18.25625,-50.19957 -18.256243,-50.19958 v -0.71438 -0.71439 l 7.320138,-3.5611 7.320135,-3.5611 4.78423,-2.10828 4.78423,-2.10828 6.11199,-2.52023 6.112,-2.52023 0.54496,0.10495 0.54496,0.10495 6.85484,18.91673 6.85484,18.91673 4.98731,-1.75532 4.98731,-1.75532 4.93888,-1.57792 4.93889,-1.57793 7.76111,-2.22933 7.76111,-2.22932 -0.0584,-0.65435 -0.0584,-0.65435 -3.42068,-19.48646 -3.42068,-19.48645 0.18854,-0.49133 0.18854,-0.49133 7.34747,-1.79886 7.34746,-1.79886 4.7625,-1.04636 4.7625,-1.04636 6.62353,-1.25408 6.62352,-1.25408 h 1.15947 1.15947 l 3.45687,19.66736 3.45687,19.66736 0.1689,0.90809 0.16891,0.90808 3.05512,-0.45531 3.05512,-0.45531 5.64444,-0.70596 5.64444,-0.70597 5.46806,-0.56484 5.46805,-0.56484 7.32014,-0.20211 7.32014,-0.2021 V 120.95278 88.723612 H 243.41667 226.13056 V 72.495835 56.268057 h 17.28611 17.28611 V 38.981946 21.695835 h 16.40416 16.40417 v 17.286111 17.286111 h 17.28611 17.28611 v 16.227778 16.227777 h -17.28611 -17.28611 v 32.226868 32.22686 l 7.32014,0.20645 7.32014,0.20645 5.46805,0.56535 5.46806,0.56535 6.87916,0.88806 6.87917,0.88806 1.76389,0.19422 1.76389,0.19423 3.47356,-19.70526 3.47357,-19.70525 0.19228,-0.8401 0.19229,-0.84011 2.15498,0.20183 2.15498,0.20183 8.81944,1.75622 8.81945,1.75621 8.93753,2.19431 8.93754,2.19431 0.15496,0.40384 0.15497,0.40383 -3.54723,19.8871 -3.54723,19.88709 0.11018,0.33054 0.11018,0.33053 7.7501,2.21918 7.75011,2.21917 6.35,2.12587 6.35,2.12587 3.43601,1.24986 3.43602,1.24985 0.29803,-0.60084 0.29804,-0.60083 6.67289,-18.43087 6.67289,-18.43086 0.58407,-0.002 0.58408,-0.002 7.17703,2.96464 7.17704,2.96464 4.05695,1.8186 4.05694,1.8186 6.96736,3.38896 6.96736,3.38895 v 0.43956 0.43956 l -18.14143,49.86116 -18.14144,49.86116 -0.24075,0.61736 -0.24075,0.61736 -2.69628,0.003 -2.69629,0.003 -4.05694,0.34646 -4.05695,0.34647 -3.66841,0.56245 -3.66841,0.56244 -4.79826,1.18366 -4.79825,1.18365 -4.58611,1.57729 -4.58611,1.57729 -3.32403,1.4424 -3.32403,1.44241 h -0.50945 -0.50946 l 0.16804,-0.79375 0.16805,-0.79375 10.27588,-28.20873 10.27587,-28.20873 -0.26043,-0.23897 -0.26044,-0.23897 -7.05556,-2.31258 -7.05555,-2.31257 -6.87917,-1.94452 -6.87916,-1.94452 -5.82084,-1.43889 -5.82083,-1.43889 -8.64305,-1.73403 -8.64306,-1.73403 -4.23333,-0.71223 -4.23333,-0.71223 -7.9375,-1.04254 -7.9375,-1.04255 -1.94028,-0.21074 -1.94028,-0.21074 -8.29027,-0.72293 -8.29028,-0.72293 -15.55603,-0.19673 -15.55603,-0.19672 -7.55091,0.41426 -7.55092,0.41426 -8.11388,0.67956 -8.11389,0.67955 -6.87917,0.89719 -6.87916,0.89719 -6.52639,1.0548 -6.52639,1.05481 -8.64305,1.79284 -8.64306,1.79285 -6.70278,1.7156 -6.70277,1.71559 -4.77183,1.38122 -4.77183,1.38121 -7.48706,2.42881 -7.48706,2.42881 -1.4e-4,0.29857 -1.4e-4,0.29856 10.28204,28.27644 10.28204,28.27643 0.16605,0.61736 0.16605,0.61736 -0.65851,-0.0284 -0.6585,-0.0284 z"
         id="path9" /><path
         style="display:inline;fill:#000000"
         d="m 222.42639,359.61984 -5.29166,-5.68088 -6.52639,-6.10679 -6.52639,-6.10678 -3.175,-2.71768 -3.175,-2.71768 -3.61597,-2.83163 -3.61597,-2.83164 v -0.40182 -0.40182 l 1.85208,-1.77764 1.85208,-1.77763 1.76389,-1.42785 1.76389,-1.42784 3.08978,-2.01011 3.08978,-2.0101 2.90744,-1.3356 2.90745,-1.3356 2.82222,-0.91634 2.82222,-0.91634 2.71915,-0.54612 2.71916,-0.54612 h 1.04403 1.04402 l 2.54036,2.94179 2.54036,2.94178 3.02637,-3.38276 3.02636,-3.38275 4.41544,-4.71463 4.41544,-4.71462 5.14608,-4.66305 5.14607,-4.66304 4.21552,-3.3436 4.21552,-3.3436 2.99861,-2.10492 2.99862,-2.10492 3.44021,-2.194 3.44022,-2.194 4.93266,-2.65818 4.93266,-2.65817 3.97635,-1.70258 3.97635,-1.70259 3.76764,-1.27408 3.76763,-1.27407 4.16786,-1.04037 4.16786,-1.04038 3.35138,-0.55341 3.35139,-0.55341 4.40972,-0.40239 4.40973,-0.4024 5.82083,0.21255 5.82083,0.21254 3.63486,0.53195 3.63487,0.53195 4.06177,0.91098 4.06177,0.91098 4.51394,1.54614 4.51393,1.54614 3.48492,1.52651 3.48491,1.52651 0.10557,0.54817 0.10557,0.54817 -3.82858,2.52129 -3.82858,2.52129 -3.50581,2.58619 -3.50581,2.5862 -4.23333,3.53735 -4.23333,3.53736 -4.26396,4.02729 -4.26395,4.02729 -3.27429,3.43959 -3.27428,3.43958 -4.27982,0.006 -4.27981,0.006 -3.62746,0.51564 -3.62747,0.51565 -3.73798,0.91815 -3.73798,0.91814 -4.0793,1.4066 -4.07929,1.4066 -4.25387,1.91661 -4.25387,1.91661 -4.20137,2.31019 -4.20136,2.3102 -4.79447,3.08286 -4.79446,3.08287 -0.70556,0.58582 -0.70556,0.58582 -4.8934,3.70377 -4.8934,3.70376 -4.45227,3.81014 -4.45227,3.81014 -5.33179,5.00343 -5.3318,5.00343 -5.76759,6.10907 -5.76758,6.10907 -0.36884,0.0879 -0.36883,0.0879 z"
         id="path7" /><path
         style="display:inline;fill:#000000"
         d="m 231.38581,640.90417 -10.01775,-10.14722 -6.20425,-6.87431 -6.20424,-6.87431 -4.57361,-5.33506 -4.5736,-5.33506 -4.77143,-5.95383 -4.77142,-5.95382 -4.76192,-6.35 -4.76192,-6.35 -3.3687,-4.7625 -3.36869,-4.7625 -4.76085,-7.23195 -4.76085,-7.23194 -3.72179,-6.1951 -3.72178,-6.1951 -3.60867,-6.5049 -3.60868,-6.5049 -4.10843,-8.29028 -4.10842,-8.29028 -2.41492,-5.46805 -2.41493,-5.46806 -2.56083,-6.37037 -2.56084,-6.37038 -2.70082,-7.91712 -2.70083,-7.91713 -1.73382,-5.99722 -1.73382,-5.99722 -1.39172,-5.82084 -1.39172,-5.82083 -0.90202,-4.58611 -0.90201,-4.58611 -0.69488,-4.23334 -0.69489,-4.23333 -0.53762,-4.40972 -0.53763,-4.40972 -0.44727,-4.40973 -0.44726,-4.40972 -0.006,-12.52361 -0.006,-12.52361 0.45813,-4.23333 0.45813,-4.23334 0.87584,-5.46805 0.87584,-5.46806 0.89746,-4.05694 0.89745,-4.05695 1.56285,-5.56717 1.56284,-5.56718 1.62594,-4.48699 1.62594,-4.48699 2.10259,-4.93889 2.1026,-4.93889 2.60113,-5.01473 2.60113,-5.01473 2.52045,-4.15749 2.52045,-4.15749 2.62638,-3.7436 2.62638,-3.74361 2.94549,-3.66473 2.94549,-3.66473 3.30319,-3.58676 3.30319,-3.58677 3.35139,-3.08922 3.35138,-3.08923 3.52778,-2.82415 3.52778,-2.82416 4.7625,-3.13299 4.7625,-3.133 5.46805,-2.73419 5.46806,-2.73418 4.40972,-1.62049 4.40972,-1.62048 5.11528,-1.25877 5.11528,-1.25877 3.70416,-0.54418 3.70417,-0.54418 5.64444,-0.21975 5.64445,-0.21975 4.93889,0.43137 4.93888,0.43137 3.88056,0.68787 3.88055,0.68787 4.03965,1.06978 4.03965,1.06978 4.27108,1.54821 4.27108,1.54821 2.3608,1.05922 2.3608,1.05922 v 0.51756 0.51756 l -3.61597,2.367 -3.61598,2.367 -3.89686,2.89548 -3.89687,2.89548 -4.39341,3.66533 -4.39341,3.66534 -7.23194,7.10278 -7.23195,7.10278 -4.93889,0.20979 -4.93888,0.2098 -3.52778,0.73958 -3.52778,0.73958 -3.67888,1.2257 -3.67888,1.22571 -4.08223,2.11755 -4.08223,2.11755 -3.32788,2.36911 -3.32789,2.36911 -4.004,3.84351 -4.004,3.84352 -2.5857,3.21483 -2.5857,3.21482 -2.6645,4.05416 -2.66451,4.05416 -2.1285,4.05694 -2.1285,4.05695 -1.77613,4.14164 -1.77613,4.14165 -1.58548,4.6778 -1.58548,4.67779 -1.41721,5.55988 -1.41721,5.55988 -0.86284,5.02346 -0.86284,5.02345 -0.60364,5.29167 -0.60364,5.29166 -0.0111,9.17223 -0.0111,9.17222 0.43064,4.23333 0.43064,4.23334 0.71917,5.11527 0.71916,5.11528 1.03185,5.22182 1.03185,5.22181 1.25783,5.00874 1.25782,5.00874 1.37163,4.58611 1.37162,4.58611 1.9203,5.64445 1.9203,5.64444 2.30274,5.82084 2.30274,5.82083 2.3212,5.22588 2.32121,5.22588 3.14633,6.41578 3.14634,6.41579 2.9739,5.46806 2.97391,5.46805 3.0768,5.24457 3.0768,5.24457 4.07222,6.3971 4.07223,6.3971 3.90162,5.64444 3.90163,5.64445 5.03585,6.77744 5.03584,6.77744 3.43588,4.33506 3.43587,4.33506 4.42755,5.29166 4.42754,5.29167 4.37379,4.93889 4.37378,4.93889 7.52553,7.97417 7.52553,7.97418 4.44318,4.29483 4.44317,4.29482 -0.11214,0.48527 -0.11214,0.48527 -4.93889,4.49157 -4.93889,4.49157 -6.26645,5.38062 -6.26646,5.38062 -3.3047,2.68534 -3.3047,2.68535 h -0.51942 -0.51943 z"
         id="path5" /><path
         style="display:inline;fill:#000000"
         d="m 322.08611,716.77503 -3.35139,-2.33802 -7.76111,-5.6432 -7.76111,-5.64319 -5.99722,-4.59994 -5.99723,-4.59994 -4.16658,-3.30459 -4.16658,-3.3046 0.10964,-0.47224 0.10964,-0.47225 6.52638,-5.56822 6.52639,-5.56822 4.58611,-4.11686 4.58611,-4.11686 3.35139,-3.06064 3.35139,-3.06064 0.60737,0.1 0.60737,0.1 6.38259,4.88441 6.38259,4.88441 4.70449,-3.55969 4.7045,-3.55969 5.41526,-4.29668 5.41527,-4.29667 5.29167,-4.41677 5.29166,-4.41676 5.45706,-4.78211 5.45706,-4.78211 4.7735,-4.3994 4.77349,-4.3994 7.18796,-7.06588 7.18795,-7.06588 5.86865,-6.19015 5.86864,-6.19016 5.13699,-5.80429 5.137,-5.80429 4.66852,-5.59449 4.66853,-5.5945 4.89573,-6.30608 4.89574,-6.30607 3.25574,-4.48694 3.25575,-4.48694 4.14449,-6.01388 4.1445,-6.01387 4.31892,-6.87917 4.31892,-6.87917 3.8401,-6.70277 3.84009,-6.70278 4.53337,-8.99584 4.53337,-8.99583 2.64555,-5.99722 2.64555,-5.99722 2.01697,-5.11528 2.01697,-5.11528 2.445,-7.23194 2.445,-7.23195 1.55129,-5.64444 1.55129,-5.64445 0.878,-3.88055 0.87801,-3.88056 0.72302,-3.70416 0.72302,-3.70417 0.52097,-3.35139 0.52097,-3.35139 0.61995,-5.29167 0.61996,-5.29166 7.8e-4,-10.75972 7.9e-4,-10.75973 -0.62801,-5.11527 -0.62801,-5.11528 -0.87434,-4.7625 -0.87433,-4.7625 -1.06054,-4.23334 -1.06054,-4.23333 -1.07753,-3.52778 -1.07753,-3.52777 -1.86687,-4.7625 -1.86686,-4.7625 -1.29955,-2.82223 -1.29955,-2.82222 -1.97004,-3.52778 -1.97003,-3.52777 -2.10796,-3.175 -2.10795,-3.175 -2.6724,-3.34634 -2.67239,-3.34634 -2.83231,-2.8305 -2.83231,-2.8305 -2.46945,-1.9814 -2.46944,-1.98139 -2.64584,-1.7632 -2.64583,-1.7632 -3.52778,-1.76736 -3.52777,-1.76736 -3.175,-1.12774 -3.175,-1.12774 -4.05695,-0.87588 -4.05694,-0.87588 -5.48367,-0.20184 -5.48367,-0.20183 -3.51217,0.41355 -3.51216,0.41356 -3.35138,0.69583 -3.35139,0.69582 -3.175,0.92489 -3.175,0.92489 -3.88056,1.50003 -3.88055,1.50002 -3.73427,1.75489 -3.73428,1.75489 -3.85045,2.20474 -3.85045,2.20474 -5.11527,3.36353 -5.11528,3.36352 -4.05694,3.09387 -4.05695,3.09387 -3.88055,3.23064 -3.88056,3.23064 -5.46805,5.02673 -5.46806,5.02673 -6.87917,7.11948 -6.87916,7.11948 -0.44403,1.1e-4 -0.44403,1e-4 -8.5518,-8.68546 -8.55181,-8.68546 -4.42124,-3.99551 -4.42125,-3.99551 -4.22956,-3.45861 -4.22957,-3.45862 -3.59579,-2.64583 -3.59579,-2.64583 -0.0124,-0.44616 -0.0124,-0.44616 1.14653,-0.70944 1.14653,-0.70945 4.7625,-2.42017 4.76249,-2.42018 4.05695,-1.58628 4.05694,-1.58628 3.195,-0.92941 3.19499,-0.92941 3.60849,-0.6995 3.60848,-0.69951 h 1.69311 1.69311 l 2.4096,2.82223 2.4096,2.82222 h 0.24074 0.24074 l 4.64839,-5.2537 4.64838,-5.25371 6.08541,-5.94699 6.08541,-5.94699 4.04844,-3.38096 4.04844,-3.38096 4.05695,-3.01122 4.05694,-3.01121 3.52778,-2.27242 3.52777,-2.27242 2.82223,-1.60978 2.82222,-1.60978 3.88055,-1.94235 3.88056,-1.94236 4.93889,-1.95107 4.93889,-1.95108 3.70416,-1.07189 3.70417,-1.07188 3.175,-0.70185 3.175,-0.70185 4.23333,-0.61635 4.23333,-0.61636 7.9375,-0.0178 7.9375,-0.0178 3.35139,0.46685 3.35139,0.46685 4.23333,0.87821 4.23334,0.87821 5.11527,1.70667 5.11528,1.70666 4.23953,1.90652 4.23953,1.90651 3.87436,2.23067 3.87436,2.23067 2.64583,1.77502 2.64583,1.77502 2.82222,2.13665 2.82223,2.13665 4.05694,3.58413 4.05694,3.58413 2.33136,2.42014 2.33135,2.42014 2.90035,3.32809 2.90035,3.32808 2.9281,3.90386 2.92811,3.90386 2.63901,4.05695 2.63901,4.05694 2.40497,4.23333 2.40497,4.23334 2.22197,4.66852 2.22198,4.66853 2.26607,5.73842 2.26607,5.73842 1.28558,4.0105 1.28558,4.01051 1.37763,5.3381 1.37764,5.33811 0.90575,4.70707 0.90575,4.70708 0.6847,5.34709 0.68471,5.34709 0.40124,7.05556 0.40124,7.05555 -0.23166,6.35 -0.23166,6.35 -0.52065,6.17361 -0.52064,6.17361 -0.88697,6.30847 -0.88697,6.30847 -1.23352,6.33938 -1.23353,6.33939 -1.19906,4.99104 -1.19907,4.99103 -1.76038,6.17361 -1.76039,6.17361 -1.99375,5.99723 -1.99374,5.99722 -2.12692,5.64444 -2.12691,5.64445 -2.99259,7.05555 -2.99259,7.05556 -5.04598,10.23055 -5.04598,10.23056 -3.2569,5.82083 -3.2569,5.82084 -3.88833,6.48357 -3.88833,6.48357 -4.92968,7.45115 -4.92968,7.45115 -3.37112,4.7625 -3.37111,4.7625 -4.14493,5.51611 -4.14492,5.51611 -4.3154,5.42 -4.31541,5.42 -3.71606,4.40972 -3.71607,4.40973 -3.88113,4.40972 -3.88112,4.40972 -6.06277,6.52639 -6.06277,6.52639 -10.88617,10.77418 -10.88616,10.77418 -7.06,6.33554 -7.06,6.33554 -3.87611,3.37121 -3.87611,3.3712 -5.29167,4.41258 -5.29166,4.41257 -6.17362,4.92325 -6.17361,4.92324 -5.82083,4.43733 -5.82083,4.43733 -5.42797,3.96529 -5.42798,3.96528 -5.46348,3.84939 -5.46348,3.84939 -0.57382,-0.0122 -0.57382,-0.0122 z"
         id="path3" /><path
         style="display:inline;fill:#000000"
         d="m 218.36945,712.69352 -8.99583,-6.43418 -7.40834,-5.6198 -7.40833,-5.61979 -5.11527,-4.05037 -5.11528,-4.05036 -3.88056,-3.19806 -3.88055,-3.19806 -5.99722,-5.09757 -5.99723,-5.09756 -3.175,-2.83982 -3.175,-2.83983 -4.40972,-4.03304 -4.40972,-4.03305 -7.55758,-7.26324 -7.55758,-7.26324 -7.23268,-7.58472 -7.23267,-7.58472 -5.34477,-5.99722 -5.34477,-5.99722 -4.18728,-4.93889 -4.18728,-4.93889 -4.83984,-6.05857 -4.83984,-6.05858 -4.55915,-6.11226 -4.559149,-6.11226 -4.40995,-6.35 -4.40995,-6.35 -3.597569,-5.5723 -3.59757,-5.57229 -3.63976,-6.06937 -3.639759,-6.06937 -2.762729,-4.93889 -2.762728,-4.93889 -4.28172,-8.46667 -4.281719,-8.46666 -2.217554,-4.93889 L 40.140248,508 l -2.754771,-6.70278 -2.754772,-6.70278 -2.323465,-6.44953 -2.323466,-6.44953 -2.278942,-7.53651 -2.278942,-7.53651 -1.756879,-7.18063 -1.756878,-7.18062 -1.062134,-5.46805 -1.062134,-5.46806 -0.884331,-6.17361 -0.88433,-6.17361 -0.556625,-5.82084 -0.556624,-5.82083 -0.210617,-8.81944 -0.210616,-8.81945 0.409238,-5.95604 0.409238,-5.95603 0.52545,-4.09813 0.52545,-4.09813 0.919822,-5.11528 0.919821,-5.11528 1.355956,-5.35657 1.355956,-5.35658 1.459406,-4.5212 1.459406,-4.5212 2.29453,-5.82084 2.294529,-5.82083 3.122882,-6.24912 3.122881,-6.24912 2.186951,-3.62866 2.18695,-3.62865 2.122636,-3.175 2.122636,-3.175 2.653779,-3.51419 2.653779,-3.51418 3.061997,-3.54137 3.061998,-3.54137 4.572801,-4.45321 4.572801,-4.45321 3.849285,-3.07162 3.849286,-3.07163 3.880555,-2.58592 3.880555,-2.58592 3.558923,-1.98471 3.558924,-1.98471 4.202187,-1.87725 4.202187,-1.87724 3.880553,-1.31224 3.88056,-1.31225 4.23333,-1.01828 4.23333,-1.01827 4.23334,-0.61604 4.23333,-0.61604 8.11389,0.002 8.11389,0.002 4.05694,0.61881 4.05694,0.61882 4.05695,0.88886 4.05694,0.88887 5.11528,1.70397 5.11528,1.70397 3.61471,1.53488 3.61471,1.53487 -4e-5,0.52917 -3e-5,0.52916 -3.54299,2.59175 -3.54298,2.59175 -3.42308,2.86195 -3.42308,2.86196 -4.41852,4.42407 -4.41851,4.42408 -2.69149,3.175 -2.69148,3.175 -2.27475,2.96482 -2.27474,2.96482 -7.90136,0.0509 -7.90137,0.0509 -3.70417,0.79776 -3.70416,0.79776 -3.175,1.04949 -3.175,1.04949 -3.88056,1.89685 -3.88055,1.89685 -2.998613,2.01494 -2.998611,2.01494 -2.645833,2.20724 -2.645833,2.20723 -2.833625,2.95269 -2.833626,2.95268 -2.230462,2.82222 -2.230462,2.82223 -2.202802,3.35138 -2.202801,3.35139 -1.935443,3.52778 -1.935444,3.52778 -1.805798,3.94873 -1.805798,3.94872 -1.635201,4.51107 -1.635201,4.51107 -1.167672,4.06381 -1.167671,4.06382 -0.907614,4.05695 -0.907614,4.05694 -0.695591,4.23333 -0.69559,4.23334 -0.383306,3.35139 -0.383307,3.35138 -0.312294,6.14558 -0.312295,6.14557 0.310342,6.56319 0.310342,6.5632 0.550184,4.75373 0.550183,4.75373 0.88691,5.29167 0.886909,5.29167 1.076313,4.7625 1.076312,4.7625 1.588395,5.82083 1.588396,5.82083 2.049044,6.17362 2.049044,6.17361 2.378776,6.17361 2.378776,6.17361 2.900247,6.52639 2.900247,6.52639 3.586289,7.16125 3.586288,7.16125 2.868993,5.18597 2.868994,5.18597 3.685687,6.17361 3.685686,6.17361 5.73551,8.64306 5.7355,8.64305 4.50839,6.17362 4.50839,6.17361 4.09307,5.26506 4.09306,5.26507 6.2158,7.43493 6.21579,7.43494 3.96885,4.40972 3.96885,4.40972 7.73299,8.16224 7.73299,8.16225 8.53028,8.06553 8.53028,8.06554 1.95069,1.78335 1.9507,1.78335 4.23333,3.7162 4.23334,3.7162 4.7625,4.02914 4.76249,4.02914 5.99723,4.79447 5.99722,4.79447 5.41614,4.10787 5.41615,4.10787 0.40469,-0.23923 0.40468,-0.23924 6.70278,-5.11992 6.70278,-5.11992 3.52778,-2.82442 3.52777,-2.82442 6.52639,-5.48297 6.52639,-5.48298 6.70278,-5.98716 6.70277,-5.98717 10.70916,-10.59537 10.70916,-10.59538 5.56638,-5.99722 5.56638,-5.99722 4.47943,-5.11528 4.47943,-5.11527 5.3799,-6.55805 5.37991,-6.55804 4.40924,-5.78918 4.40925,-5.78918 3.56575,-4.98554 3.56576,-4.98554 4.2054,-6.30335 4.2054,-6.30335 2.74387,-4.40972 2.74386,-4.40972 4.55638,-7.9375 4.55637,-7.9375 4.70956,-9.525 4.70956,-9.525 2.83371,-6.70278 2.8337,-6.70278 1.91504,-5.11527 1.91504,-5.11528 1.81929,-5.55211 1.81929,-5.5521 1.41161,-5.20762 1.41161,-5.20762 1.01426,-4.40972 1.01426,-4.40972 0.91301,-5.11528 0.913,-5.11528 0.51438,-4.05694 0.51438,-4.05695 0.42078,-5.2837 0.42078,-5.2837 -0.20534,-9.0038 -0.20534,-9.0038 -0.71268,-5.29805 -0.71267,-5.29806 -0.73785,-3.87417 -0.73785,-3.87416 -1.26177,-4.93889 -1.26178,-4.93889 -1.72639,-5.06744 -1.7264,-5.06745 -1.43705,-3.39922 -1.43706,-3.39922 -2.34417,-4.58611 -2.34416,-4.58611 -3.27744,-4.91943 -3.27744,-4.91942 0.10451,-0.54267 0.10451,-0.54268 4.05326,-2.56445 4.05326,-2.56446 5.46805,-2.79153 5.46806,-2.79152 3.70416,-1.47388 3.70417,-1.47388 4.05694,-1.1676 4.05695,-1.1676 1.63457,-0.24447 1.63458,-0.24447 2.94257,4.7082 2.94257,4.70819 3.72359,7.40833 3.72358,7.40834 1.887,4.7625 1.88699,4.7625 1.69948,5.18251 1.69948,5.18251 1.42941,5.69329 1.4294,5.69329 1.05089,6.05753 1.0509,6.05753 0.53811,5.11528 0.53811,5.11528 0.22056,7.58472 0.22056,7.58472 -0.41097,7.05556 -0.41096,7.05555 -0.52969,4.93889 -0.5297,4.93889 -0.89412,5.82084 -0.89412,5.82083 -1.22962,5.99722 -1.22962,5.99722 -1.40876,5.64445 -1.40876,5.64444 -1.5564,5.3041 -1.55639,5.3041 -2.33874,6.86673 -2.33875,6.86674 -2.64835,6.70278 -2.64835,6.70277 -2.64322,5.99723 -2.64322,5.99722 -4.31444,8.64305 -4.31444,8.64306 -3.62357,6.48618 -3.62356,6.48617 -3.54049,5.86105 -3.54048,5.86104 -5.37263,8.11389 -5.37262,8.11389 -3.81008,5.29167 -3.81008,5.29167 -3.19356,4.23333 -3.19356,4.23333 -5.51909,6.87917 -5.51908,6.87916 -5.46656,6.35 -5.46657,6.35 -4.69675,5.11528 -4.69675,5.11528 -6.55553,6.83394 -6.55554,6.83394 -7.9375,7.47736 -7.9375,7.47736 -4.05694,3.7038 -4.05695,3.7038 -5.64444,4.91891 -5.64445,4.91891 -7.23194,6.01374 -7.23194,6.01375 -5.11528,4.04756 -5.11528,4.04756 -4.40972,3.3543 -4.40972,3.3543 -6.52639,4.7791 -6.52639,4.77911 -4.85331,3.40947 -4.85331,3.40948 -0.61474,-0.005 -0.61475,-0.005 z"
         id="path1" /></g><g
       id="g2"><path
         style="fill:#ffffff;fill-opacity:0.99999988"
         d="m 163.10754,237.33125 -10.36558,-28.4868 0.0954,-0.51355 0.0954,-0.51355 6.87734,-2.25015 6.87734,-2.25015 6.52639,-1.8948 6.52639,-1.8948 6.52639,-1.61552 6.52638,-1.61552 9.525,-1.91322 9.525,-1.91322 5.82083,-0.88726 5.82084,-0.88725 6.87916,-0.87712 6.87917,-0.87713 9.17222,-0.72358 9.17222,-0.72359 11.37415,-0.36913 11.37415,-0.36913 10.67446,0.36802 10.67446,0.36803 8.46667,0.71528 8.46666,0.71527 5.82083,0.71056 5.82084,0.71056 7.05555,1.07417 7.05556,1.07416 8.64305,1.70849 8.64306,1.70848 8.46666,2.13072 8.46667,2.13072 5.29166,1.55072 5.29167,1.55073 7.00932,2.24951 7.00932,2.24951 0.15195,0.39598 0.15195,0.39597 -9.93392,27.30478 -9.93392,27.30478 -0.45552,1.26802 -0.45553,1.26801 3.60457,-1.4896 3.60457,-1.48961 3.85694,-1.30546 3.85694,-1.30547 3.9773,-1.02664 3.9773,-1.02664 4.13659,-0.70054 4.13658,-0.70054 3.65335,-0.36173 3.65335,-0.36174 h 3.45122 3.45121 l 1.25902,-3.43958 1.25902,-3.43959 16.94822,-46.5503 16.94822,-46.55029 v -0.27843 -0.27843 l -4.49792,-2.25295 -4.49791,-2.25294 -6.17361,-2.81199 -6.17361,-2.81199 -6.91467,-2.87509 -6.91467,-2.87509 h -0.35554 -0.35554 l -6.81929,18.73384 -6.81928,18.73385 -0.49447,0.18974 -0.49448,0.18975 -11.16881,-3.75069 -11.16881,-3.75069 -6.83988,-1.93385 -6.83989,-1.93385 -0.14307,-0.14308 -0.14308,-0.14308 3.54411,-19.88694 3.54411,-19.88694 -7.3e-4,-0.54049 -7.3e-4,-0.54049 -7.49653,-1.85149 -7.49653,-1.85149 -4.76249,-1.03207 -4.7625,-1.03207 -6.81603,-1.284 -6.81602,-1.284 -0.1244,0.12439 -0.12439,0.12439 -3.59503,20.28227 -3.59503,20.28227 -0.26084,0.28351 -0.26083,0.28351 -6.31344,-0.88072 -6.31344,-0.88072 -4.93888,-0.55354 -4.93889,-0.55353 -6.17361,-0.52047 -6.17361,-0.52047 -4.49792,-0.004 -4.49792,-0.004 V 121.00278 88.018057 H 309.91527 327.025 V 72.495835 56.973613 H 309.91527 292.80555 V 39.687502 22.401391 h -15.69861 -15.69861 v 17.286111 17.286111 h -17.2861 -17.28611 v 15.522222 15.522222 h 17.28611 17.2861 v 32.931563 32.93156 l -6.96736,0.21058 -6.96736,0.21058 -7.05555,0.72553 -7.05556,0.72553 -6.52638,0.87369 -6.52639,0.8737 -1.62709,0.22492 -1.62709,0.22492 -0.19337,-0.83503 -0.19338,-0.83504 -3.4711,-19.85988 -3.4711,-19.85987 -1.41121,0.22661 -1.41122,0.22661 -8.05706,1.56978 -8.05705,1.56978 -6.58322,1.56969 -6.58322,1.56969 -3.175,0.8209 -3.175,0.8209 0.11227,0.85623 0.11227,0.85622 3.34054,19.04807 3.34055,19.04807 -0.10143,0.68542 -0.10142,0.68543 -8.46667,2.40844 -8.46666,2.40843 -9.38803,3.16988 -9.38803,3.16987 h -0.53168 -0.53167 l -6.83724,-18.88768 -6.83724,-18.88769 -0.76897,0.19097 -0.76898,0.19097 -5.40463,2.25097 -5.40464,2.25098 -4.58611,2.01908 -4.58611,2.01908 -7.20874,3.49674 -7.208738,3.49675 -0.09337,0.0934 -0.09337,0.0934 18.238218,50.08308 18.23822,50.08308 5.47159,0.22443 5.47159,0.22443 4.05341,0.59181 4.05341,0.59181 4.23333,0.88471 4.23333,0.8847 6.17361,2.06581 6.17361,2.06581 2.82223,1.25107 2.82222,1.25108 0.0414,0.009 0.0414,0.009 z"
         id="path10" /><path
         style="fill:#ffffff;fill-opacity:0.99999988"
         d="m 233.73696,358.09973 5.62277,-5.96694 5.2946,-4.96917 5.29461,-4.96918 4.45226,-3.81013 4.45227,-3.81014 4.89341,-3.70377 4.8934,-3.70377 0.70555,-0.58582 0.70556,-0.58582 4.79447,-3.08286 4.79446,-3.08287 4.20137,-2.31019 4.20136,-2.3102 4.40381,-1.98415 4.4038,-1.98415 5.1212,-1.70565 5.12119,-1.70565 4.40972,-0.8789 4.40973,-0.87891 3.70416,-0.31966 3.70417,-0.31966 2.3049,0.16114 2.30489,0.16114 3.30893,-3.47582 3.30892,-3.47582 4.26396,-4.02729 4.26395,-4.02729 4.23334,-3.53468 4.23333,-3.53468 3.175,-2.3536 3.175,-2.35361 3.97084,-2.64499 3.97085,-2.64499 -3.92186,-1.67437 -3.92186,-1.67436 -3.0476,-1.03749 -3.04759,-1.03749 -4.05695,-1.03232 -4.05694,-1.03232 -3.35139,-0.53079 -3.35139,-0.53079 -4.93889,-0.39436 -4.93889,-0.39436 -4.05694,0.23557 -4.05694,0.23557 -4.05371,0.51811 -4.05371,0.51812 -4.06018,0.90223 -4.06018,0.90223 -5.16188,1.69255 -5.16187,1.69255 -3.83396,1.66293 -3.83396,1.66294 -4.85005,2.60663 -4.85006,2.60663 -3.44022,2.194 -3.44022,2.19401 -2.99861,2.10492 -2.99861,2.10491 -4.21552,3.3436 -4.21552,3.34361 -5.14608,4.66304 -5.14608,4.66304 -4.41543,4.71463 -4.41544,4.71462 -3.14806,3.52778 -3.14805,3.52778 -0.37138,0.0991 -0.37138,0.0991 -2.75341,-3.18587 -2.75342,-3.18588 h -0.10767 -0.10767 l -2.92331,0.55454 -2.92331,0.55454 -2.84492,0.89872 -2.84493,0.89871 -2.91082,1.3448 -2.91082,1.3448 -3.08977,2.01394 -3.08978,2.01394 -2.46945,2.02942 -2.46944,2.02941 -0.96067,1.01731 -0.96066,1.01731 3.43011,2.682 3.43011,2.68199 3.175,2.71851 3.175,2.7185 6.52639,6.1077 6.52638,6.1077 5.11528,5.47181 5.11528,5.47181 0.0217,-0.0561 0.0217,-0.0561 z"
         id="path8" /><path
         style="fill:#ffffff;fill-opacity:0.99999988"
         d="m 248.74892,644.5679 6.50726,-5.42515 5.45733,-4.85277 5.45732,-4.85278 2.20846,-2.06058 2.20845,-2.06059 -4.27943,-4.15385 -4.27944,-4.15385 -7.49252,-7.9375 -7.49253,-7.9375 -4.37379,-4.93889 -4.37379,-4.93888 -4.42754,-5.29167 -4.42755,-5.29167 -3.43587,-4.33506 -3.43587,-4.33505 -5.03585,-6.77745 -5.03585,-6.77744 -3.90162,-5.64444 -3.90163,-5.64445 -4.07222,-6.3971 -4.07223,-6.3971 -3.07416,-5.24456 -3.07417,-5.24457 -3.53997,-6.52639 -3.53998,-6.52639 -2.80166,-5.82083 -2.80166,-5.82083 -2.08052,-4.69571 -2.08052,-4.6957 -2.6187,-6.61495 -2.6187,-6.61494 -2.1008,-6.32852 -2.1008,-6.32851 -1.61737,-5.82056 -1.61738,-5.82056 -1.05037,-4.63974 -1.05037,-4.63974 -0.89863,-5.06165 -0.89863,-5.06165 -0.71658,-6.17361 -0.71657,-6.17361 -0.21147,-7.9375 -0.21146,-7.9375 0.41382,-5.64444 0.41381,-5.64445 0.70827,-5.064 0.70826,-5.06401 0.87062,-4.28461 0.87061,-4.2846 0.9054,-3.35139 0.90539,-3.35139 1.39892,-4.31751 1.39892,-4.3175 1.77181,-4.32555 1.7718,-4.32555 2.443,-4.71767 2.443,-4.71767 2.69542,-4.09898 2.69542,-4.09899 2.58569,-3.21483 2.5857,-3.21482 4.004,-3.84352 4.00401,-3.84352 3.32788,-2.37682 3.32788,-2.37682 4.42701,-2.25689 4.42701,-2.25689 3.97697,-1.28567 3.97697,-1.28567 4.06649,-0.6952 4.0665,-0.6952 h 3.72687 3.72687 l 7.26238,-7.14994 7.26237,-7.14994 4.39341,-3.66533 4.39341,-3.66534 3.89687,-2.89464 3.89687,-2.89464 3.35139,-2.19633 3.35139,-2.19633 0.10019,-0.0983 0.1002,-0.0984 -5.39186,-2.1283 -5.39187,-2.1283 -3.72426,-1.05952 -3.72425,-1.05952 -3.34524,-0.72477 -3.34523,-0.72477 -4.04301,-0.5147 -4.043,-0.5147 -3.88056,-0.23311 -3.88056,-0.2331 -4.999,0.38147 -4.999,0.38146 -4.17322,0.70734 -4.17322,0.70734 -3.88055,1.07356 -3.88056,1.07356 -3.52778,1.2462 -3.52777,1.2462 -5.99722,2.94146 -5.99723,2.94146 -4.7625,3.13913 -4.7625,3.13913 -3.52777,2.82415 -3.52778,2.82416 -3.35139,3.08922 -3.35139,3.08923 -3.30318,3.58676 -3.30319,3.58677 -2.94549,3.66473 -2.9455,3.66473 -2.66467,3.79499 -2.66468,3.79499 -2.84038,4.71111 -2.84037,4.71111 -3.11817,6.35 -3.11817,6.35 -1.76237,4.40972 -1.76237,4.40973 -1.64472,4.93889 -1.64473,4.93888 -1.20562,4.58612 -1.20563,4.58611 -0.88016,4.33009 -0.88016,4.3301 -0.51928,3.25462 -0.51928,3.25463 -0.62021,5.29167 -0.62021,5.29166 0.003,11.46528 0.003,11.46528 0.61192,6.17361 0.61192,6.17361 0.88038,6.17361 0.88037,6.17361 1.40916,7.05556 1.40916,7.05556 1.91256,7.43763 1.91255,7.43763 1.98803,6.3207 1.98803,6.3207 2.23854,6.17361 2.23854,6.17361 1.92996,4.77459 1.92996,4.77459 2.40104,5.45597 2.40103,5.45597 4.10843,8.29027 4.10843,8.29028 3.60867,6.5049 3.60868,6.5049 3.72178,6.1951 3.72178,6.1951 4.76085,7.23195 4.76085,7.23194 3.3687,4.7625 3.3687,4.7625 4.76191,6.35 4.76192,6.35 4.77143,5.95383 4.77142,5.95382 4.57361,5.33506 4.5736,5.33507 6.20425,6.87367 6.20425,6.87368 9.84087,9.97146 9.84088,9.97146 h 0.24315 0.24315 z"
         id="path6" /><path
         style="fill:#ffffff;fill-opacity:0.99999988"
         d="m 334.43333,712.39494 7.9375,-5.67303 7.53401,-5.66136 7.53401,-5.66135 7.10626,-5.65622 7.10627,-5.65621 5.29167,-4.41524 5.29166,-4.41523 3.87611,-3.37121 3.87612,-3.3712 7.05999,-6.33554 7.06,-6.33555 10.88617,-10.77418 10.88617,-10.77418 6.06276,-6.52639 6.06277,-6.52638 3.88113,-4.40973 3.88112,-4.40972 3.71607,-4.40972 3.71607,-4.40972 4.3154,-5.42 4.31541,-5.42001 4.14492,-5.51611 4.14492,-5.5161 3.36364,-4.7625 3.36364,-4.7625 4.22684,-6.35 4.22684,-6.35 3.3636,-5.46806 3.3636,-5.46806 3.62691,-6.35 3.62692,-6.35 4.16201,-8.11388 4.16201,-8.11389 2.87887,-6.35 2.87888,-6.35 2.05374,-4.93889 2.05375,-4.93889 2.09946,-5.64445 2.09946,-5.64444 2.13958,-6.52639 2.13958,-6.52639 1.28058,-4.55926 1.28058,-4.55926 1.3657,-5.67129 1.36571,-5.6713 1.06055,-5.33457 1.06055,-5.33457 0.88028,-5.95432 0.88028,-5.95432 0.63431,-5.82083 0.63431,-5.82083 0.003,-13.40556 0.003,-13.40555 -0.63633,-4.93889 -0.63632,-4.93889 -0.69427,-4.14115 -0.69428,-4.14115 -1.05285,-4.63763 -1.05286,-4.63763 -1.27561,-4.45039 -1.27562,-4.45039 -1.22349,-3.52777 -1.22349,-3.52778 -1.78653,-4.40972 -1.78652,-4.40973 -2.00179,-4.23333 -2.00179,-4.23333 -2.54335,-4.53538 -2.54334,-4.53537 -2.67458,-4.10768 -2.67458,-4.10768 -2.92811,-3.90386 -2.92811,-3.90386 -2.90035,-3.32809 -2.90035,-3.32808 -2.33135,-2.42014 -2.33135,-2.42015 -4.05695,-3.58413 -4.05694,-3.58413 -2.83621,-2.15717 -2.83622,-2.15718 -3.51378,-2.29428 -3.51379,-2.29429 -3.64782,-2.01231 -3.64781,-2.01232 -4.1133,-1.77161 -4.11329,-1.7716 -4.05694,-1.33577 -4.05695,-1.33577 -4.22132,-0.94428 -4.22131,-0.94427 -3.89257,-0.54129 -3.89257,-0.54129 -6.87917,-0.0149 -6.87917,-0.0149 -4.40972,0.59587 -4.40972,0.59588 -4.05694,0.90213 -4.05695,0.90213 -5.11527,1.68351 -5.11528,1.68352 -3.52778,1.50196 -3.52778,1.50195 -3.175,1.58918 -3.175,1.58917 -2.82222,1.60944 -2.82222,1.60945 -3.52778,2.27242 -3.52777,2.27241 -4.05695,3.01122 -4.05694,3.01122 -4.04595,3.38096 -4.04594,3.38096 -5.7944,5.64444 -5.7944,5.64444 -5.27376,5.90903 -5.27376,5.90903 h -0.29017 -0.29018 l -2.76377,-3.20258 -2.76378,-3.20258 -1.94028,0.22716 -1.94028,0.22716 -3.91858,0.8652 -3.91859,0.8652 -3.48974,1.17926 -3.48975,1.17926 -3.175,1.31206 -3.175,1.31206 -4.85069,2.50279 -4.8507,2.50279 v 0.24796 0.24795 l 4.01689,3.01717 4.0169,3.01717 4.18519,3.48487 4.18519,3.48488 4.40972,4.07316 4.40972,4.07315 7.70664,7.84635 7.70663,7.84636 7.3228,-7.53049 7.3228,-7.53048 5.00343,-4.55418 5.00342,-4.55418 3.77964,-3.14986 3.77964,-3.14986 4.05694,-3.09387 4.05694,-3.09387 5.11528,-3.36352 5.11528,-3.36352 3.86634,-2.2139 3.86634,-2.21389 3.89477,-1.83272 3.89477,-1.83272 4.36812,-1.65787 4.36812,-1.65786 4.64029,-1.18929 4.64029,-1.18929 4.04436,-0.59407 4.04437,-0.59407 7.05556,0.18702 7.05555,0.18702 3.40733,0.73721 3.40733,0.73722 3.64796,1.26977 3.64797,1.26977 3.49385,1.74636 3.49386,1.74635 2.68001,1.78957 2.68002,1.78956 2.46945,1.9814 2.46944,1.98139 2.83231,2.8305 2.83232,2.83051 2.67239,3.34633 2.67239,3.34634 2.11387,3.175 2.11387,3.175 2.32845,4.23333 2.32845,4.23334 1.99383,4.58611 1.99384,4.58611 1.87952,5.64444 1.87952,5.64445 1.25943,5.13213 1.25942,5.13213 0.86174,5.09842 0.86174,5.09843 0.55081,5.79874 0.55082,5.79875 -0.004,7.95959 -0.004,7.95959 -0.3581,4.23333 -0.3581,4.23333 -0.70819,5.46806 -0.70819,5.46805 -1.23311,6.17361 -1.23311,6.17362 -1.41682,5.46805 -1.41683,5.46806 -1.78334,5.82083 -1.78334,5.82083 -2.79552,7.50829 -2.79551,7.50828 -2.70528,6.25005 -2.70528,6.25005 -5.02713,10.05417 -5.02713,10.05416 -3.84671,6.70278 -3.84671,6.70278 -4.31892,6.87917 -4.31892,6.87916 -4.1445,6.01388 -4.1445,6.01387 -3.25574,4.48694 -3.25575,4.48694 -4.89573,6.30608 -4.89574,6.30608 -4.66852,5.59449 -4.66853,5.5945 -5.13699,5.80429 -5.137,5.80429 -5.86864,6.19015 -5.86864,6.19016 -7.18796,7.06588 -7.18795,7.06588 -4.7735,4.3994 -4.7735,4.39939 -5.45705,4.78212 -5.45706,4.78211 -5.29167,4.41427 -5.29166,4.41426 -5.11528,4.06256 -5.11528,4.06255 -5.17428,3.93899 -5.17429,3.93898 h -0.34479 -0.34478 l -6.27558,-4.79844 -6.27557,-4.79843 -0.39558,-0.1518 -0.39558,-0.1518 -3.15561,2.88474 -3.1556,2.88475 -4.58611,4.11426 -4.58611,4.11427 -6.35,5.41168 -6.35,5.41169 -0.10812,0.0854 -0.10812,0.0854 6.28173,4.90893 6.28173,4.90893 3.70417,2.83374 3.70416,2.83373 6.52639,4.76053 6.52639,4.76054 4.36062,3.0579 4.36062,3.0579 0.40188,-0.006 0.40188,-0.006 z"
         id="path4" /><path
         style="fill:#ffffff;fill-opacity:0.99999988"
         d="m 240.24167,709.66873 5.11528,-3.69477 7.05555,-5.30153 7.05556,-5.30154 5.11527,-4.05991 5.11528,-4.05992 7.23195,-6.01374 7.23194,-6.01374 5.64444,-4.91892 5.64445,-4.91891 4.05694,-3.7038 4.05695,-3.70379 7.93749,-7.47736 7.9375,-7.47736 6.55554,-6.83394 6.55554,-6.83395 4.69675,-5.11527 4.69675,-5.11528 5.46656,-6.35 5.46657,-6.35 5.51908,-6.87917 5.51908,-6.87916 3.19356,-4.23334 3.19356,-4.23333 3.81009,-5.29167 3.81008,-5.29166 5.3707,-8.11389 5.37069,-8.11389 3.09192,-5.10569 3.09191,-5.10568 2.91103,-5.12487 2.91103,-5.12487 2.97187,-5.64445 2.97187,-5.64444 3.38234,-7.05556 3.38233,-7.05555 2.71282,-6.35 2.71281,-6.35 2.75473,-7.40834 2.75473,-7.40833 1.64818,-5.07235 1.64818,-5.07234 1.92763,-6.91671 1.92763,-6.9167 1.55044,-7.06095 1.55044,-7.06095 0.90256,-5.29167 0.90255,-5.29166 0.69792,-5.82084 0.69791,-5.82083 0.35195,-4.7625 0.35195,-4.7625 0.21741,-5.46805 0.21741,-5.46806 -0.39364,-6.87917 -0.39364,-6.87916 -0.6975,-5.46806 -0.6975,-5.46805 -0.55505,-2.99862 -0.55505,-2.99861 -1.02273,-4.52546 -1.02272,-4.52546 -1.09522,-3.75968 -1.09522,-3.75968 -1.05356,-3.18014 -1.05356,-3.18013 -2.14426,-5.46806 -2.14426,-5.46805 -3.57103,-7.05556 -3.57103,-7.05555 -2.89038,-4.62976 -2.89037,-4.62976 -1.85969,0.43681 -1.85969,0.43682 -2.82223,0.79022 -2.82222,0.79021 -4.05694,1.59111 -4.05695,1.5911 -5.11527,2.5863 -5.11528,2.5863 -4.32153,2.6836 -4.32153,2.6836 v 0.17175 0.17175 l 3.08681,4.66056 3.0868,4.66055 2.53004,4.93858 2.53004,4.93859 1.59439,3.89694 1.5944,3.89695 1.59561,4.8246 1.59561,4.8246 1.23505,5.03679 1.23505,5.03679 0.71048,4.05694 0.71048,4.05694 0.52686,4.08958 0.52686,4.08958 0.35437,6.82151 0.35437,6.82152 -0.34821,7.08057 -0.34822,7.08058 -0.69823,5.68842 -0.69823,5.68842 -0.90054,4.89491 -0.90053,4.89491 -1.0828,4.7625 -1.08279,4.7625 -1.70527,5.99723 -1.70527,5.99722 -2.15768,6.35 -2.15768,6.35 -2.59803,6.52639 -2.59804,6.52639 -3.04586,6.70277 -3.04585,6.70278 -3.63328,7.05556 -3.63329,7.05555 -3.6398,6.35 -3.63979,6.35 -3.16104,5.11528 -3.16103,5.11528 -4.20647,6.30334 -4.20648,6.30335 -3.56575,4.98554 -3.56576,4.98555 -4.40924,5.78917 -4.40925,5.78918 -5.3799,6.55805 -5.37991,6.55804 -4.47943,5.11528 -4.47942,5.11528 -5.56638,5.99722 -5.56639,5.99722 -10.70915,10.59537 -10.70916,10.59537 -6.70278,5.98717 -6.70278,5.98717 -6.52638,5.48297 -6.52639,5.48298 -3.52778,2.82442 -3.52778,2.82442 -6.70277,5.12916 -6.70278,5.12916 -0.76343,0.47392 -0.76344,0.47391 -4.17545,-3.12906 -4.17546,-3.12905 -5.82083,-4.57728 -5.82083,-4.57729 -5.99723,-5.0066 -5.99722,-5.0066 -4.7625,-4.17153 -4.7625,-4.17154 -1.95069,-1.79048 -1.9507,-1.79048 -8.53028,-8.06553 -8.53027,-8.06554 -7.73299,-8.16224 -7.73299,-8.16224 -3.96885,-4.40973 -3.96885,-4.40972 -6.2158,-7.43493 -6.21579,-7.43493 -4.09307,-5.26507 -4.09307,-5.26507 -4.50838,-6.17361 -4.50839,-6.17361 -5.73551,-8.64306 -5.7355,-8.64305 -3.685691,-6.17361 -3.685688,-6.17361 -2.870527,-5.18874 -2.870527,-5.18875 -3.844089,-7.68764 -3.844089,-7.68765 -2.031036,-4.58611 -2.031036,-4.58611 -2.215441,-5.46806 -2.215441,-5.46805 -2.003313,-5.64445 -2.003314,-5.64444 -1.759905,-5.82084 -1.759906,-5.82083 -1.36594,-5.64444 -1.365939,-5.64445 -1.073406,-5.64444 -1.073406,-5.64445 -0.701301,-5.46805 -0.701301,-5.46806 -0.418929,-7.3578 -0.418928,-7.3578 0.4181,-7.45886 0.4181,-7.45887 0.530773,-4.05695 0.530774,-4.05694 0.899545,-4.75557 0.899544,-4.75558 1.191053,-4.59304 1.191053,-4.59303 1.773002,-5.19053 1.773002,-5.19052 2.153133,-4.8604 2.153132,-4.86039 1.968558,-3.53103 1.968558,-3.53102 2.199953,-3.35139 2.199952,-3.35139 2.230462,-2.82222 2.230463,-2.82222 2.833625,-2.95269 2.833626,-2.95268 2.645833,-2.20724 2.645833,-2.20724 2.99861,-2.01493 2.998609,-2.01494 3.88056,-1.90139 3.88055,-1.90139 3.75849,-1.22478 3.75849,-1.22478 3.05615,-0.57267 3.05615,-0.57267 4.47425,-0.25037 4.47425,-0.25037 3.46461,0.18796 3.46461,0.18795 2.15797,-2.82222 2.15797,-2.82222 3.00034,-3.52778 3.00034,-3.52778 4.25347,-4.23886 4.25346,-4.23887 3.175,-2.67072 3.175,-2.67073 3.59129,-2.6665 3.5913,-2.6665 -2.0038,-0.89335 -2.00379,-0.89335 -2.64583,-1.0422 -2.64583,-1.04221 -3.52167,-1.1251 -3.52167,-1.1251 -2.82833,-0.6815 -2.82833,-0.68149 -4.05695,-0.69634 -4.05694,-0.69634 -5.11528,-0.3886 -5.11527,-0.38861 -3.88056,0.2331 -3.88056,0.23311 -4.05694,0.51583 -4.05694,0.51583 -3.85829,0.87024 -3.85829,0.87023 -4.60838,1.54371 -4.608375,1.54371 -3.73553,1.64004 -3.735531,1.64004 -3.849191,2.1323 -3.849191,2.13231 -3.880555,2.58896 -3.880556,2.58897 -3.849285,3.07162 -3.849286,3.07163 -4.572801,4.4532 -4.572801,4.45321 -3.061997,3.54137 -3.061998,3.54137 -2.653779,3.51419 -2.653779,3.51418 -2.122636,3.175 -2.122635,3.175 -2.153793,3.57377 -2.153793,3.57376 -2.802937,5.59846 -2.802937,5.59846 -1.932778,4.59399 -1.932779,4.594 -1.631302,4.68912 -1.631302,4.68913 -1.427145,5.18077 -1.427145,5.18076 -1.212083,5.99723 -1.212083,5.99722 -0.705959,5.46805 -0.705959,5.46806 -0.416099,7.30742 -0.416099,7.30742 0.408837,8.39119 0.408838,8.39119 0.720513,6.35 0.720513,6.35 0.850782,5.29167 0.850782,5.29166 1.096892,5.29167 1.096893,5.29167 1.407001,5.64444 1.407001,5.64445 1.552893,5.29166 1.552893,5.29167 2.458901,7.23344 2.458901,7.23345 3.185981,7.96654 3.185982,7.96654 3.561959,7.73057 3.561958,7.73057 3.201639,6.17361 3.201638,6.17361 2.65223,4.7625 2.65223,4.7625 3.63976,6.06937 3.63976,6.06937 3.597569,5.5723 3.597569,5.5723 4.40995,6.35 4.40995,6.35 4.55915,6.11226 4.559149,6.11226 4.839841,6.05857 4.839844,6.05857 4.18728,4.93889 4.18728,4.93889 5.34477,5.99722 5.34477,5.99722 7.23267,7.58473 7.23267,7.58472 7.55758,7.26324 7.55759,7.26323 4.40972,4.03305 4.40972,4.03305 3.175,2.83982 3.175,2.83982 5.99722,5.09757 5.99722,5.09756 3.88056,3.19806 3.88055,3.19806 5.11528,4.05037 5.11528,4.05037 7.40833,5.61979 7.40833,5.61979 8.95485,6.3975 8.95484,6.3975 3.56877,-2.49264 3.56876,-2.49264 z"
         id="path2" /></g></g></svg>
